if (_typeface_js && _typeface_js.loadFace) _typeface_js.loadFace({"glyphs":{"¦":{"x_min":51,"x_max":203,"ha":254,"o":"m 203 463 q 121 450 162 450 q 51 463 81 450 l 51 937 q 120 954 78 954 q 203 937 161 954 l 203 463 m 203 -115 q 121 -128 162 -128 q 51 -115 81 -128 l 51 358 q 120 375 78 375 q 203 358 161 375 l 203 -115 "},"ǻ":{"x_min":23,"x_max":508,"ha":492,"o":"m 202 577 q 299 609 277 609 l 372 609 q 508 538 508 609 l 508 525 q 444 484 508 505 q 362 466 389 466 q 328 483 334 466 l 328 487 l 328 513 q 313 514 321 514 q 202 480 217 514 l 202 0 q 113 -26 202 -26 q 23 0 23 -26 l 23 594 q 113 623 23 623 q 202 594 202 623 l 202 577 m 355 493 q 362 493 357 493 q 481 532 426 493 l 481 538 q 372 582 481 582 l 299 582 q 200 546 281 582 q 175 556 175 535 l 175 585 q 113 596 147 596 q 50 585 79 596 l 50 9 q 113 1 79 1 q 175 9 146 1 l 176 488 q 312 541 195 541 q 350 534 346 541 q 355 493 355 530 "},"Ő":{"x_min":24,"x_max":516,"ha":540,"o":"m 347 -14 l 188 -14 q 24 76 24 -14 l 24 785 q 188 876 24 876 l 347 876 q 516 784 516 876 l 516 741 q 475 716 516 726 q 422 710 446 710 q 371 716 400 710 q 334 741 334 725 l 334 782 q 267 795 293 795 q 206 783 238 795 l 206 76 q 262 64 234 64 q 334 78 290 64 l 334 408 l 270 408 q 248 427 257 408 q 241 459 241 443 q 249 491 241 473 q 270 513 258 513 l 502 513 q 516 499 516 513 l 516 76 q 347 -14 516 -14 m 347 13 q 489 76 489 13 l 489 486 l 277 486 q 268 459 268 472 q 276 435 268 445 l 347 435 q 361 421 361 435 l 361 68 q 318 43 361 53 q 262 37 287 37 q 215 43 242 37 q 179 68 179 53 l 179 792 q 217 815 179 807 q 267 822 244 822 q 320 815 291 822 q 361 792 361 807 l 361 749 q 422 737 388 737 q 489 749 458 737 l 489 784 q 347 848 489 848 l 188 848 q 51 784 51 848 l 51 76 q 188 13 51 13 l 347 13 "},"Ž":{"x_min":23,"x_max":509,"ha":533,"o":"m 431 -43 q 330 -1 330 -43 l 330 514 q 293 518 308 518 q 205 478 243 518 l 205 -4 q 165 -28 205 -20 q 114 -35 138 -35 q 62 -28 89 -35 q 23 -4 23 -20 l 23 594 q 113 625 23 625 q 205 598 205 625 l 205 575 q 283 607 265 607 l 390 607 q 509 528 509 607 l 509 -2 q 431 -43 509 -43 m 482 -3 l 482 528 q 391 580 482 580 l 283 580 q 235 559 273 580 q 188 538 197 538 q 178 552 178 538 l 178 587 q 113 597 146 597 q 50 585 75 597 l 50 4 q 114 -8 79 -8 q 178 4 149 -8 l 178 484 q 181 493 179 490 q 293 545 229 545 q 357 526 357 545 l 357 0 q 431 -16 368 -16 q 482 -3 482 -16 "},"Á":{"x_min":51,"x_max":516,"ha":567,"o":"m 372 1066 q 370 1061 371 1063 l 303 937 q 261 917 292 918 l 202 914 q 180 929 180 914 q 181 934 180 932 l 249 1058 q 290 1080 260 1079 l 350 1081 q 372 1066 372 1081 m 516 0 q 440 -20 484 -20 q 361 0 398 -20 l 361 462 q 278 477 310 477 q 206 462 243 477 l 206 0 q 130 -18 141 -18 q 51 0 97 -18 l 51 783 q 202 862 51 862 l 360 862 q 516 783 516 862 l 516 0 m 361 549 l 361 793 q 276 806 307 806 q 206 793 242 806 l 206 549 q 278 535 243 535 q 361 549 311 535 "},"е":{"x_min":37,"x_max":524,"ha":562,"o":"m 410 -14 l 155 -14 q 37 75 37 -14 l 37 528 q 171 609 37 609 l 391 609 q 524 532 524 609 l 524 76 q 487 7 524 32 q 410 -14 455 -14 m 471 29 q 497 76 497 45 l 497 532 q 391 582 497 582 l 171 582 q 64 528 64 582 l 64 74 q 155 13 64 13 l 410 13 q 471 29 445 13 m 342 516 q 277 529 303 529 q 216 516 250 529 l 216 76 q 278 66 249 66 q 342 76 305 66 l 342 516 m 369 526 l 369 67 q 329 44 369 52 q 278 39 303 39 q 189 67 189 39 l 189 526 q 227 549 189 540 q 277 556 256 556 q 328 549 298 556 q 369 526 369 540 "},"Κ":{"x_min":24,"x_max":211.171875,"ha":235,"o":"m 208 824 q 177 794 204 806 q 134 781 155 788 q 133 780 133 780 q 125 748 125 762 l 145 748 q 196 692 196 745 q 123 608 196 608 l 73 608 q 24 662 24 608 q 31 707 24 669 q 47 796 31 710 q 84 848 49 837 q 179 876 167 876 q 211 845 211 876 q 208 824 211 836 m 184 848 l 91 822 q 74 794 74 817 l 75 792 l 51 662 q 74 635 51 635 l 124 635 q 169 693 169 635 q 145 721 169 721 l 114 721 q 98 748 98 721 q 120 806 98 800 q 182 830 153 815 q 184 848 185 846 "},"Î":{"x_min":51,"x_max":384.65625,"ha":435,"o":"m 384 931 q 349 909 381 909 q 269 931 319 909 l 219 990 l 169 927 q 99 908 128 908 q 51 927 69 908 l 152 1058 q 219 1082 181 1082 q 285 1058 257 1082 l 384 931 m 364 31 q 351 0 364 12 l 83 0 q 71 37 71 20 q 83 69 71 55 l 142 69 l 142 792 l 83 792 q 73 822 73 803 q 83 862 73 841 l 351 862 q 360 827 360 847 q 351 792 360 808 l 297 792 l 297 69 l 351 69 q 364 31 364 50 "},"e":{"x_min":37,"x_max":497,"ha":534,"o":"m 497 49 q 393 0 497 0 l 140 0 q 37 45 37 0 l 37 531 q 150 595 37 595 l 375 595 q 497 531 497 595 l 497 344 l 189 245 l 189 66 q 263 56 231 56 q 342 66 295 56 l 342 134 q 418 152 375 152 q 497 135 460 152 l 497 49 m 342 385 l 342 527 q 269 538 302 538 q 189 527 237 538 l 189 332 l 342 385 "},"ό":{"x_min":37,"x_max":529,"ha":567,"o":"m 414 896 q 366 904 397 896 q 324 922 331 912 l 286 969 q 240 916 274 948 q 164 896 197 896 q 127 904 147 896 q 102 928 102 914 q 105 935 102 932 l 209 1069 q 284 1096 242 1096 q 359 1069 327 1096 l 361 1066 l 460 939 q 462 929 462 931 q 414 896 460 896 m 414 923 q 435 927 430 923 l 341 1049 q 284 1069 316 1069 q 227 1049 253 1069 l 135 929 q 165 923 147 923 q 226 939 190 923 q 285 1004 279 1004 q 342 941 292 1004 q 414 923 388 923 m 440 -33 q 387 -25 417 -33 q 347 0 347 -15 l 347 452 q 278 464 304 464 q 219 453 249 464 l 219 0 q 208 -12 219 -10 q 129 -31 142 -31 q 76 -23 108 -31 q 37 0 37 -14 l 37 784 q 201 876 37 876 l 360 876 q 529 784 529 876 l 529 0 q 491 -25 529 -16 q 440 -33 461 -33 m 440 -6 q 502 8 475 -6 l 502 784 q 360 849 502 849 l 201 849 q 64 784 64 849 l 64 9 q 129 -4 101 -4 q 192 10 138 -4 l 192 462 q 229 485 192 477 q 278 491 254 491 q 374 462 374 491 l 374 8 q 440 -6 405 -6 m 347 783 q 275 793 302 793 q 219 784 248 793 l 219 559 q 278 549 249 549 q 347 559 305 549 l 347 783 m 374 794 l 374 550 q 278 523 374 523 q 192 550 192 523 l 192 794 q 275 820 192 820 q 374 794 374 820 "},"»":{"x_min":51,"x_max":532.5,"ha":584,"o":"m 532 293 l 316 75 q 293 106 305 79 q 282 145 282 131 q 305 194 282 169 l 379 301 l 295 406 q 277 458 277 436 q 291 495 277 469 q 316 526 306 521 l 532 293 m 306 293 l 89 75 q 67 106 79 79 q 57 145 57 131 q 78 194 57 169 l 153 301 l 68 406 q 51 458 51 436 q 65 495 51 469 q 89 526 79 521 l 306 293 "},"∆":{"x_min":13.75,"x_max":297,"ha":307,"o":"m 277 399 l 276 398 l 198 300 l 266 202 q 291 144 291 174 q 276 98 291 132 q 245 60 259 60 q 235 64 239 60 l 18 284 q 18 303 9 293 l 235 535 q 244 540 239 540 q 279 503 260 540 q 297 458 297 471 q 277 399 297 427 m 253 414 q 270 458 270 440 q 246 506 270 473 l 47 294 l 245 94 q 264 145 264 124 q 244 185 264 164 l 169 293 q 169 310 163 302 l 253 414 "},"ļ":{"x_min":24,"x_max":516,"ha":540,"o":"m 389 -14 l 192 -14 q 24 76 24 -14 l 24 120 q 61 149 24 137 q 111 158 90 158 q 165 149 134 158 q 206 120 206 137 l 206 77 q 272 65 248 65 q 334 77 298 65 l 334 471 l 100 471 q 76 517 76 471 q 100 566 76 566 l 334 566 l 334 782 q 262 795 289 795 q 206 784 235 795 l 206 741 q 160 715 206 725 q 103 708 127 708 q 57 715 82 708 q 24 741 24 725 l 24 784 q 192 876 24 876 l 379 876 q 516 797 516 876 l 516 575 q 465 522 516 551 q 515 472 505 503 l 516 468 l 516 64 q 389 -14 516 -14 m 390 13 q 489 63 489 13 l 489 466 q 424 507 479 493 q 411 520 411 510 q 423 533 411 529 q 489 580 465 545 l 489 797 q 379 849 489 849 l 192 849 q 51 784 51 849 l 51 747 q 103 735 70 735 q 179 750 139 735 l 179 792 q 215 815 179 807 q 262 822 240 822 q 317 815 285 822 q 361 792 361 807 l 361 552 q 347 539 361 539 l 107 539 q 103 517 103 528 q 107 498 103 506 l 347 498 q 361 484 361 498 l 361 67 q 322 44 361 53 q 272 37 293 37 q 219 44 250 37 q 179 67 179 53 l 179 113 q 111 130 148 130 q 51 113 76 130 l 51 76 q 192 13 51 13 l 390 13 "},"Ѓ":{"x_min":37,"x_max":529,"ha":567,"o":"m 359 -14 l 347 -14 l 347 -24 l 335 -10 q 457 -86 457 -12 l 457 -178 q 421 -247 457 -223 q 342 -269 389 -269 l 262 -269 q 203 -224 203 -269 q 213 -190 203 -207 q 239 -173 224 -173 q 251 -175 245 -173 q 304 -189 289 -189 q 338 -178 308 -187 l 338 -101 q 304 -92 318 -95 l 266 -92 q 253 -78 253 -92 l 253 -14 l 202 -14 q 37 76 37 -14 l 37 785 q 201 876 37 876 l 360 876 q 529 784 529 876 l 529 741 q 433 713 529 713 q 347 741 347 713 l 347 784 q 287 793 315 793 q 219 783 260 793 l 219 79 q 285 67 276 67 q 347 78 300 67 l 347 121 q 385 147 347 137 q 435 154 413 154 q 487 147 457 154 q 529 121 529 137 l 529 77 q 359 -14 529 -14 m 360 13 q 502 77 502 13 l 502 113 q 435 127 470 127 q 374 113 401 127 l 374 67 q 335 46 374 54 q 285 40 309 40 q 202 54 273 40 q 192 67 192 56 l 192 794 q 287 820 192 820 q 374 794 374 820 l 374 750 q 433 740 401 740 q 502 750 468 740 l 502 784 q 360 848 502 848 l 201 848 q 64 784 64 848 l 64 76 q 201 13 64 13 l 266 13 q 280 0 280 13 l 280 -65 l 308 -65 q 365 -92 365 -77 l 365 -187 q 322 -212 365 -200 l 312 -214 q 304 -216 307 -216 q 244 -202 284 -216 q 230 -224 230 -204 q 261 -242 230 -242 l 342 -242 q 430 -178 430 -242 l 430 -86 q 375 -43 430 -56 q 321 -24 321 -30 l 321 0 q 334 13 321 13 l 360 13 "},"ò":{"x_min":51,"x_max":511,"ha":562,"o":"m 375 690 q 354 677 375 676 l 293 677 q 252 697 263 677 l 184 822 l 183 827 q 205 842 183 842 l 265 840 q 306 819 295 839 l 373 695 q 375 690 375 692 m 511 76 q 478 17 511 38 q 410 0 451 0 l 156 0 q 51 75 51 0 l 51 527 q 172 595 51 595 l 392 595 q 511 531 511 595 l 511 76 m 356 66 l 356 526 q 277 543 309 543 q 203 526 245 543 l 203 66 q 279 52 243 52 q 356 66 311 52 "},"ţ":{"x_min":24,"x_max":516,"ha":540,"o":"m 347 -14 l 188 -14 q 24 76 24 -14 l 24 861 q 108 890 24 890 q 206 861 206 890 l 206 82 q 265 74 236 74 q 334 82 293 74 l 334 861 q 374 885 334 877 q 428 892 402 892 q 478 885 452 892 q 516 861 516 877 l 516 76 q 347 -14 516 -14 m 347 13 q 489 76 489 13 l 489 852 q 428 865 460 865 q 361 852 394 865 l 361 72 q 265 47 361 47 q 179 72 179 47 l 179 852 q 108 863 143 863 q 51 853 76 863 l 51 76 q 188 13 51 13 l 347 13 "},"^":{"x_min":37,"x_max":439.828125,"ha":477,"o":"m 439 653 q 405 631 437 631 q 324 653 375 631 l 236 756 l 156 652 q 85 633 114 633 q 37 653 55 633 l 167 825 q 234 849 197 849 q 301 825 272 849 l 439 653 "},"«":{"x_min":51,"x_max":532.5,"ha":584,"o":"m 532 458 q 515 406 532 436 l 430 301 l 504 194 q 527 145 527 169 q 516 106 527 131 q 494 75 504 79 l 277 293 l 494 526 q 518 495 504 521 q 532 458 532 469 m 306 458 q 289 406 306 436 l 204 301 l 278 194 q 300 145 300 169 q 289 106 300 131 q 268 75 278 79 l 51 293 l 268 526 q 292 495 278 521 q 306 458 306 469 "},"∙":{"x_min":51,"x_max":223,"ha":274,"o":"m 223 311 q 177 260 223 260 l 95 260 q 51 311 51 260 l 51 320 q 95 372 51 372 l 177 372 q 223 320 223 372 l 223 311 "},"к":{"x_min":37,"x_max":523,"ha":560,"o":"m 386 816 l 386 815 l 317 691 q 266 663 304 667 q 205 662 224 663 q 169 690 169 661 l 169 693 q 172 700 171 697 l 173 701 l 240 826 q 292 854 253 849 q 353 855 315 854 q 388 827 388 855 q 386 816 388 821 m 198 689 q 205 689 201 689 l 247 689 q 294 704 285 690 l 361 827 q 353 828 359 828 q 311 828 324 829 q 265 812 272 827 l 198 689 m 363 -288 l 73 -288 q 46 -235 46 -288 q 52 -198 46 -218 q 73 -172 60 -172 l 109 -172 q 148 -172 122 -172 q 187 -172 174 -172 q 342 -116 342 -172 l 342 18 q 262 -14 281 -14 l 155 -14 q 37 64 37 -14 l 37 595 q 114 636 37 636 q 216 594 216 636 l 216 77 q 252 75 236 75 q 342 114 303 75 l 342 598 q 380 622 342 613 q 431 629 410 629 q 483 622 455 629 q 523 598 523 614 l 523 -159 q 363 -288 523 -288 m 363 -261 q 496 -159 496 -261 l 496 589 q 431 602 467 602 q 369 589 396 602 l 369 109 q 364 99 367 102 q 252 48 317 48 q 189 67 189 48 l 189 593 q 114 609 177 609 q 64 596 64 609 l 64 63 q 155 13 64 13 l 262 13 q 310 33 272 13 q 358 54 348 54 q 369 41 369 54 l 369 -116 q 187 -199 369 -199 q 148 -199 174 -199 q 109 -199 122 -199 l 81 -199 q 72 -235 72 -218 q 79 -261 72 -251 l 363 -261 "},"í":{"x_min":51,"x_max":242.921875,"ha":294,"o":"m 242 827 q 242 822 242 824 l 174 697 q 132 677 163 677 l 72 677 q 51 691 51 676 q 52 696 51 694 l 120 819 q 160 840 131 839 l 221 842 q 242 827 242 842 m 223 595 l 220 0 q 148 -13 181 -13 q 71 0 115 -13 l 71 595 q 145 612 117 612 q 223 595 175 612 "},"ˆ":{"x_min":37,"x_max":439.828125,"ha":477,"o":"m 439 741 q 405 720 437 720 q 324 741 375 720 l 236 845 l 155 741 q 85 721 114 721 q 37 741 55 721 l 167 914 q 234 938 197 938 q 301 914 272 938 l 439 741 "},"ū":{"x_min":23,"x_max":408,"ha":432,"o":"m 52 -290 q 31 -272 40 -290 q 23 -244 23 -257 q 136 -176 23 -176 q 188 -178 144 -176 q 225 -179 212 -180 l 225 837 l 50 851 q 31 874 38 852 q 26 904 26 889 q 51 949 26 949 l 394 949 q 408 935 408 949 l 408 -276 q 394 -290 408 -290 l 52 -290 m 57 -263 l 381 -263 l 381 922 l 57 922 q 53 905 53 915 q 59 878 53 892 l 239 864 q 252 850 252 863 l 252 -191 q 239 -205 252 -203 l 58 -220 q 50 -244 50 -231 q 57 -263 50 -254 "},"ņ":{"x_min":23,"x_max":545.1875,"ha":557,"o":"m 530 326 q 518 321 526 321 l 54 321 q 32 335 41 321 q 23 362 23 349 q 32 394 23 375 q 54 414 42 414 l 518 414 q 543 367 543 414 q 530 326 543 344 m 511 348 q 516 367 516 356 q 511 387 516 378 l 60 387 q 50 362 50 371 q 58 348 50 354 l 511 348 m 529 182 q 518 177 525 177 l 54 177 q 31 193 41 177 q 23 221 23 208 q 33 252 23 234 q 54 270 43 270 l 518 270 q 538 251 530 270 q 545 223 545 236 q 529 182 545 202 m 511 204 q 518 223 518 213 q 511 243 518 232 l 60 243 q 50 221 50 229 q 58 204 50 212 l 511 204 "},"µ":{"x_min":51,"x_max":509,"ha":560,"o":"m 509 64 q 404 0 509 0 l 297 0 q 205 41 279 0 l 205 -246 q 128 -260 166 -260 q 51 -243 81 -260 l 51 598 q 128 615 85 615 q 205 598 171 615 l 205 109 q 307 62 249 62 q 357 67 328 62 l 357 594 q 395 617 357 609 q 444 623 421 623 q 509 596 509 623 l 509 64 "},"Ύ":{"x_min":24,"x_max":755,"ha":779,"o":"m 696 -20 l 614 -20 q 556 46 556 -20 l 556 54 q 614 121 556 121 l 696 121 q 755 54 755 121 l 755 46 q 696 -20 755 -20 m 696 7 q 728 46 728 7 l 728 54 q 696 94 728 94 l 614 94 q 583 54 583 94 l 583 46 q 614 7 583 7 l 696 7 m 427 -20 l 345 -20 q 287 46 287 -20 l 287 54 q 345 121 287 121 l 427 121 q 487 54 487 121 l 487 46 q 427 -20 487 -20 m 427 7 q 460 46 460 7 l 460 54 q 427 94 460 94 l 345 94 q 314 54 314 94 l 314 46 q 345 7 314 7 l 427 7 m 164 -20 l 82 -20 q 24 46 24 -20 l 24 54 q 82 121 24 121 l 164 121 q 223 54 223 121 l 223 46 q 164 -20 223 -20 m 164 7 q 197 46 197 7 l 197 54 q 164 94 197 94 l 82 94 q 51 54 51 94 l 51 46 q 82 7 51 7 l 164 7 "},"’":{"x_min":36.671875,"x_max":197.734375,"ha":235,"o":"m 197 821 q 196 810 197 818 l 190 778 q 189 776 189 776 l 173 689 q 173 683 174 686 l 170 669 q 146 648 167 654 l 53 623 q 40 626 44 620 q 37 642 35 633 l 39 656 q 63 676 42 670 l 109 690 q 123 735 123 714 q 121 750 123 742 l 89 750 q 53 790 53 750 q 54 801 53 796 l 56 810 q 110 863 64 863 l 161 863 q 197 821 197 863 "},"Ν":{"x_min":24,"x_max":396,"ha":420,"o":"m 387 773 l 371 688 q 334 635 374 647 q 285 618 327 633 q 238 608 255 608 q 208 640 208 608 q 210 659 208 648 q 241 689 213 678 q 284 702 262 696 q 293 737 293 721 l 273 737 q 224 790 224 739 q 295 876 224 876 l 345 876 q 396 821 396 876 q 393 807 396 818 l 387 773 m 234 635 l 327 661 q 344 687 346 667 l 343 691 l 359 777 q 360 781 359 777 l 366 813 q 369 821 369 817 q 345 849 369 849 l 295 849 q 251 790 251 849 q 273 764 251 764 l 305 764 q 320 736 320 764 q 297 677 320 683 q 236 653 264 668 q 234 635 234 637 m 203 772 l 187 688 q 150 635 191 647 q 102 618 147 634 q 53 608 70 608 q 24 640 24 608 q 26 659 24 650 q 57 689 30 678 q 99 702 78 696 q 109 737 109 721 l 89 737 q 40 790 40 738 q 110 876 40 876 l 160 876 q 211 821 211 876 q 210 806 211 818 l 203 772 m 50 635 l 142 661 q 159 686 162 667 l 160 691 l 182 813 q 184 821 184 817 q 161 849 184 849 l 110 849 q 67 790 67 849 q 89 764 67 764 l 121 764 q 136 736 136 764 q 113 677 136 683 q 53 653 80 669 q 50 635 49 637 "},"-":{"x_min":37,"x_max":426.953125,"ha":456,"o":"m 426 304 q 417 267 426 293 l 52 267 q 37 293 37 277 q 52 332 37 302 l 417 332 q 426 304 426 319 "},"Q":{"x_min":37,"x_max":502,"ha":540,"o":"m 502 77 q 347 0 502 0 l 312 0 l 312 -134 q 270 -147 274 -146 q 220 -133 264 -147 l 220 0 l 188 0 q 37 77 37 0 l 37 784 q 188 862 37 862 l 347 862 q 502 784 502 862 l 502 77 m 346 69 l 346 792 q 266 811 298 811 q 192 792 231 811 l 192 69 q 220 59 206 63 l 220 261 q 264 278 262 276 q 313 261 272 275 l 312 57 q 346 69 327 61 "},"Ш":{"x_min":37,"x_max":524,"ha":562,"o":"m 370 687 l 320 687 q 279 751 279 687 l 279 760 q 320 825 279 825 l 370 825 q 412 760 412 825 l 412 751 q 370 687 412 687 m 370 714 q 385 751 385 714 l 385 760 q 370 798 385 798 l 320 798 q 306 760 306 798 l 306 751 q 320 714 306 714 l 370 714 m 217 687 l 167 687 q 126 751 126 687 l 126 760 q 167 825 126 825 l 217 825 q 259 760 259 825 l 259 751 q 217 687 259 687 m 217 714 q 232 751 232 714 l 232 760 q 217 798 232 798 l 167 798 q 153 760 153 798 l 153 751 q 167 714 153 714 l 217 714 m 407 -14 l 153 -14 q 37 45 37 -14 l 37 532 q 163 609 37 609 l 389 609 q 524 532 524 609 l 524 345 q 514 332 524 335 l 216 235 l 216 77 q 277 70 250 70 q 342 78 303 70 l 342 134 q 380 158 342 149 q 431 165 409 165 q 484 158 453 165 q 524 134 524 149 l 524 49 q 407 -14 524 -14 m 407 13 q 496 49 496 13 l 496 125 q 431 138 466 138 q 369 125 396 138 l 369 67 q 277 43 369 43 q 188 67 188 43 l 188 246 q 198 258 188 255 l 496 356 l 496 532 q 388 582 496 582 l 163 582 q 64 532 64 582 l 64 44 q 153 13 64 13 l 407 13 m 342 516 q 282 524 309 524 q 216 516 256 524 l 216 352 l 342 395 l 342 516 m 369 526 l 369 385 q 359 373 369 376 q 202 320 205 320 q 188 332 188 320 l 188 526 q 282 551 188 551 q 369 526 369 551 "},"M":{"x_min":37,"x_max":811,"ha":848,"o":"m 811 0 q 743 -26 783 -26 q 656 0 702 -26 l 656 671 l 456 320 q 424 305 442 305 q 391 320 405 305 l 192 671 l 192 0 q 114 -24 158 -24 q 37 0 71 -24 l 37 864 q 113 899 73 899 q 203 864 155 899 l 423 457 l 644 863 q 733 890 687 890 q 811 863 775 890 l 811 0 "},"œ":{"x_min":51,"x_max":821,"ha":872,"o":"m 821 49 q 718 0 821 0 l 464 0 q 431 0 446 0 q 410 0 421 0 l 156 0 q 51 75 51 0 l 51 527 q 172 595 51 595 l 391 595 q 432 592 413 595 q 474 595 450 595 l 699 595 q 821 531 821 595 l 821 345 l 515 245 l 515 66 q 588 56 556 56 q 666 66 620 56 l 666 134 q 742 152 699 152 q 821 135 784 152 l 821 49 m 666 386 l 666 527 q 593 538 626 538 q 515 527 562 538 l 515 333 l 666 386 m 356 66 l 356 526 q 277 543 309 543 q 203 526 245 543 l 203 66 q 279 52 243 52 q 356 66 311 52 "},"ũ":{"x_min":23,"x_max":408,"ha":432,"o":"m 388 -286 q 379 -290 382 -289 l 36 -290 q 23 -276 23 -290 l 23 935 q 36 949 23 949 l 379 949 q 404 905 404 949 q 305 836 404 836 q 251 837 296 836 q 205 837 221 838 l 205 -179 l 380 -194 q 400 -214 391 -194 q 408 -244 408 -230 q 388 -286 408 -268 m 373 -263 q 381 -244 381 -254 q 372 -221 381 -231 l 190 -205 q 178 -191 178 -204 l 178 850 q 190 864 178 863 l 370 879 q 377 905 377 892 q 372 922 377 915 l 50 922 l 50 -263 l 373 -263 "},"ŭ":{"x_min":23,"x_max":576.390625,"ha":600,"o":"m 564 -241 q 553 -248 560 -248 l 47 -248 q 23 -203 23 -248 q 47 -153 23 -153 l 553 -153 q 576 -201 576 -153 q 564 -241 576 -222 m 545 -221 q 549 -201 549 -211 q 544 -180 549 -191 l 55 -180 q 50 -203 50 -190 q 54 -221 50 -214 l 545 -221 "},"{":{"x_min":37,"x_max":389,"ha":426,"o":"m 389 -229 q 378 -272 389 -248 l 312 -272 q 149 -188 152 -272 l 133 230 q 48 318 131 284 q 37 341 37 328 q 48 368 37 355 q 114 403 83 380 q 133 432 130 415 q 133 462 132 447 l 149 853 q 214 921 151 900 q 315 936 258 936 l 378 936 q 389 902 389 921 q 378 867 389 883 l 304 867 l 288 446 q 204 342 285 383 q 288 240 285 301 l 304 -203 l 378 -203 q 389 -229 389 -211 "},"¼":{"x_min":51,"x_max":892.609375,"ha":944,"o":"m 892 175 q 886 159 892 166 l 838 159 l 838 15 q 797 4 819 4 q 761 15 776 4 l 761 159 l 670 159 q 606 189 606 159 l 606 446 q 645 459 623 459 q 683 446 666 459 l 683 195 l 761 195 l 761 390 q 798 406 777 406 q 838 390 820 406 l 838 195 l 886 195 q 892 175 892 185 m 741 862 l 190 0 q 96 -28 139 -28 q 70 -21 78 -28 l 55 0 l 607 862 q 673 884 655 884 q 741 862 718 884 m 217 449 q 213 431 217 440 l 63 431 q 57 446 57 437 q 63 467 57 455 l 101 467 l 101 762 l 55 762 q 51 773 51 766 q 55 791 51 780 l 179 863 l 179 467 l 213 467 q 217 449 217 458 "},"#":{"x_min":37,"x_max":709.0625,"ha":747,"o":"m 709 556 q 681 471 709 528 l 556 471 l 537 373 l 662 373 q 666 335 666 347 q 638 250 666 307 l 512 250 l 487 126 q 428 113 447 113 q 365 126 408 113 l 389 250 l 292 250 l 267 126 q 207 113 226 113 q 144 126 187 113 l 168 250 l 43 250 q 37 297 37 288 q 67 375 37 319 l 191 375 l 210 471 l 85 471 q 79 518 79 509 q 110 597 79 540 l 233 597 l 258 721 q 323 738 309 738 q 385 721 340 738 l 359 596 l 456 597 l 479 721 q 544 738 530 738 q 605 721 561 738 l 580 594 l 705 594 q 709 556 709 568 m 431 472 q 382 484 402 484 q 335 472 361 484 q 311 398 311 428 q 316 374 311 385 q 360 366 334 366 q 412 374 386 366 q 431 472 435 430 "},"ι":{"x_min":37,"x_max":454,"ha":492,"o":"m 443 934 q 430 926 441 926 l 66 926 q 45 939 54 926 q 37 966 37 953 q 46 998 37 977 q 66 1019 56 1019 l 430 1019 q 454 977 454 1019 q 443 934 454 964 m 421 953 q 426 977 426 970 q 423 992 426 985 l 74 992 q 64 966 64 970 q 70 953 64 958 l 421 953 "},"Ĳ":{"x_min":23,"x_max":308,"ha":332,"o":"m 160 -290 l 56 -290 q 31 -271 42 -290 q 23 -238 23 -254 q 32 -200 23 -223 q 56 -174 43 -174 l 125 -174 l 125 832 l 56 832 q 33 854 42 832 q 26 888 26 871 q 33 923 26 905 q 56 949 43 949 l 134 949 q 242 930 195 949 q 308 852 308 905 l 308 -195 q 160 -290 308 -290 m 160 -263 q 281 -195 281 -263 l 281 852 q 224 909 281 890 q 134 922 184 922 l 63 922 q 53 888 53 906 q 62 859 53 871 l 138 859 q 152 845 152 859 l 152 -187 q 138 -201 152 -201 l 64 -201 q 50 -238 50 -221 q 61 -263 50 -254 l 160 -263 "},"Ê":{"x_min":51,"x_max":505,"ha":556,"o":"m 450 931 q 415 909 447 909 q 335 931 385 909 l 285 990 l 235 927 q 165 908 194 908 q 116 927 135 908 l 218 1058 q 284 1082 247 1082 q 351 1058 322 1082 l 450 931 m 505 34 q 494 0 505 15 l 171 0 q 51 58 51 0 l 51 805 q 165 862 51 862 l 495 862 q 503 823 503 842 q 495 792 503 806 l 206 792 l 206 551 l 432 551 q 443 516 443 532 q 432 484 443 499 l 206 484 l 206 69 l 494 69 q 505 34 505 54 "},"Џ":{"x_min":37,"x_max":529,"ha":567,"o":"m 349 901 l 289 901 q 236 930 249 906 l 168 1056 q 166 1066 166 1060 q 218 1096 166 1096 q 245 1094 228 1096 l 262 1093 q 315 1065 301 1089 l 382 941 q 385 929 385 935 q 349 901 385 900 m 193 1066 l 260 943 q 307 928 268 928 q 328 928 320 928 q 349 928 357 928 q 357 927 353 928 l 290 1052 q 244 1068 282 1067 q 222 1068 230 1068 q 193 1066 211 1068 m 360 -14 l 201 -14 q 37 76 37 -14 l 37 785 q 201 876 37 876 l 360 876 q 529 785 529 876 l 529 76 q 360 -14 529 -14 m 360 13 q 502 76 502 13 l 502 785 q 360 849 502 849 l 201 849 q 64 785 64 849 l 64 76 q 201 13 64 13 l 360 13 m 347 783 q 280 798 306 798 q 219 783 251 798 l 219 77 q 281 65 253 65 q 347 78 308 65 l 347 783 m 374 792 l 374 69 q 333 45 374 54 q 281 38 302 38 q 231 44 259 38 q 192 69 192 54 l 192 792 q 230 817 192 807 q 280 825 259 825 q 333 816 300 825 q 374 792 374 806 "},")":{"x_min":37,"x_max":295,"ha":332,"o":"m 295 -195 q 161 -277 295 -277 l 57 -277 q 37 -238 37 -263 q 57 -187 37 -214 l 140 -187 l 140 846 l 57 846 q 40 889 40 863 q 57 936 40 915 l 135 936 q 233 920 190 936 q 295 853 295 898 l 295 -195 "},"ε":{"x_min":36.578125,"x_max":546,"ha":584,"o":"m 526 399 l 525 398 l 447 300 l 515 202 q 540 144 540 174 q 525 98 540 130 q 493 60 508 60 q 484 65 489 60 l 267 284 q 266 303 258 293 l 484 535 q 493 540 488 540 q 529 503 509 540 q 546 458 546 471 q 526 399 546 428 m 503 414 q 519 458 519 440 q 495 506 519 473 l 296 294 l 494 93 q 513 144 513 124 q 493 185 513 163 l 418 293 q 418 309 412 301 l 503 414 m 300 399 l 299 397 l 221 300 l 288 202 q 314 145 314 174 q 299 98 314 130 q 267 60 282 60 q 258 64 262 60 l 40 284 q 41 303 32 293 l 257 535 q 266 540 262 540 q 302 503 282 540 q 320 458 320 470 q 300 399 320 427 m 277 414 q 293 458 293 440 q 268 506 293 473 l 70 294 l 267 93 q 287 145 287 124 q 267 185 287 164 l 192 293 q 192 309 186 302 l 277 414 "},"Å":{"x_min":51,"x_max":516,"ha":567,"o":"m 427 934 q 326 858 427 858 l 246 858 q 141 933 141 858 l 141 1022 q 262 1090 141 1090 l 308 1090 q 427 1026 427 1090 l 427 934 m 516 0 q 440 -20 484 -20 q 361 0 398 -20 l 361 462 q 278 477 310 477 q 206 462 243 477 l 206 0 q 130 -18 141 -18 q 51 0 97 -18 l 51 783 q 202 862 51 862 l 360 862 q 516 783 516 862 l 516 0 m 335 924 l 335 1020 q 286 1037 290 1036 q 230 1020 272 1037 l 230 924 q 288 910 269 910 q 335 924 297 912 m 361 549 l 361 793 q 276 806 307 806 q 206 793 242 806 l 206 549 q 278 535 243 535 q 361 549 311 535 "},"Я":{"x_min":37,"x_max":524,"ha":562,"o":"m 353 662 q 292 662 334 662 q 240 691 252 667 l 169 827 q 220 857 169 857 q 243 855 228 857 q 265 854 258 854 q 317 826 302 853 l 385 701 q 388 690 388 697 q 353 662 388 660 m 197 829 l 197 828 l 263 704 q 310 689 271 690 q 352 689 323 688 q 359 688 356 688 l 293 812 q 246 829 285 827 q 204 829 233 829 q 197 829 199 829 m 410 -14 l 155 -14 q 37 75 37 -14 l 37 528 q 171 609 37 609 l 391 609 q 524 532 524 609 l 524 76 q 487 7 524 32 q 410 -14 455 -14 m 471 29 q 497 76 497 45 l 497 532 q 391 582 497 582 l 171 582 q 64 528 64 582 l 64 74 q 155 13 64 13 l 410 13 q 471 29 445 13 m 342 516 q 277 529 303 529 q 216 516 250 529 l 216 75 q 278 65 249 65 q 342 75 305 65 l 342 516 m 369 526 l 369 67 q 329 44 369 52 q 278 38 303 38 q 189 67 189 38 l 189 526 q 227 549 189 540 q 277 556 256 556 q 328 549 298 556 q 369 526 369 540 "},"¸":{"x_min":51,"x_max":278,"ha":328,"o":"m 278 -178 q 177 -255 278 -255 l 96 -255 q 51 -224 51 -255 q 81 -187 51 -189 q 138 -203 121 -203 q 186 -188 142 -203 l 186 -92 q 140 -79 159 -83 l 101 -79 l 101 21 l 169 21 l 169 -24 q 278 -86 278 -26 l 278 -178 "},"a":{"x_min":37,"x_max":495,"ha":532,"o":"m 495 0 q 417 -13 458 -13 q 342 0 376 -13 l 342 41 q 248 0 266 0 l 142 0 q 37 64 37 0 l 37 538 q 158 595 37 595 l 230 595 q 336 558 264 595 q 342 556 338 558 l 342 594 q 417 609 375 609 q 495 594 458 609 l 495 0 m 342 109 l 342 483 q 217 528 325 528 q 189 526 201 528 l 189 67 q 238 62 217 62 q 342 109 297 62 "},"=":{"x_min":37,"x_max":532.0625,"ha":557,"o":"m 530 367 q 519 334 530 348 l 54 334 q 37 361 37 345 q 54 400 37 377 l 519 400 q 530 367 530 385 m 532 223 q 519 191 532 206 l 54 191 q 37 222 37 205 q 54 257 37 236 l 519 257 q 532 223 532 239 "},"Ћ":{"x_min":37,"x_max":358,"ha":395,"o":"m 298 930 l 247 930 q 207 994 207 930 l 207 1003 q 247 1068 207 1068 l 298 1068 q 340 1003 340 1068 l 340 994 q 298 930 340 930 m 298 957 q 313 994 313 957 l 313 1003 q 298 1041 313 1041 l 247 1041 q 234 1003 234 1041 l 234 994 q 247 957 234 957 l 298 957 m 145 930 l 95 930 q 55 994 55 930 l 55 1003 q 95 1068 55 1068 l 145 1068 q 187 1003 187 1068 l 187 994 q 145 930 187 930 m 145 957 q 160 994 160 957 l 160 1003 q 145 1041 160 1041 l 95 1041 q 82 1003 82 1041 l 82 994 q 95 957 82 957 l 145 957 m 340 -9 q 331 -14 338 -12 l 63 -14 q 43 6 51 -14 q 37 37 37 23 q 43 65 37 51 q 63 83 51 83 l 108 83 l 108 779 l 63 779 q 39 823 39 779 q 63 876 39 876 l 331 876 q 353 827 353 876 q 331 779 353 779 l 290 779 l 290 83 l 331 83 q 351 62 343 83 q 358 31 358 46 q 340 -9 358 7 m 324 13 q 330 31 330 20 q 323 56 330 42 l 277 56 q 263 69 263 56 l 263 792 q 277 806 263 806 l 322 806 q 325 827 325 816 q 322 849 325 839 l 71 849 q 66 823 66 835 q 70 806 66 812 l 121 806 q 135 792 135 806 l 135 69 q 121 56 135 56 l 69 56 q 64 37 64 47 q 70 13 64 26 l 324 13 "},"ρ":{"x_min":37,"x_max":236,"ha":274,"o":"m 177 246 l 95 246 q 37 311 37 246 l 37 320 q 95 386 37 386 l 177 386 q 236 320 236 386 l 236 311 q 177 246 236 246 m 177 273 q 209 311 209 273 l 209 320 q 177 359 209 359 l 95 359 q 64 320 64 359 l 64 311 q 95 273 64 273 l 177 273 "},"˚":{"x_min":24,"x_max":537.375,"ha":562,"o":"m 521 -7 q 510 -14 517 -14 l 99 -14 q 30 36 30 -14 q 42 79 30 54 l 42 80 l 325 513 l 48 513 q 24 558 24 513 q 48 609 24 609 l 462 608 q 521 532 515 602 q 518 523 519 526 l 234 83 l 510 83 q 537 37 537 83 q 521 -7 537 16 m 502 13 q 510 37 510 26 q 504 56 510 47 l 208 56 q 197 77 183 56 l 492 535 q 486 566 490 558 q 460 581 480 578 l 56 581 q 51 558 51 569 q 55 540 51 547 l 351 540 q 362 518 376 540 l 66 65 q 57 36 57 48 q 99 13 57 13 l 502 13 "},"ú":{"x_min":51,"x_max":509,"ha":560,"o":"m 375 827 q 374 822 375 824 l 306 697 q 265 677 295 677 l 205 677 q 183 691 183 676 l 185 696 l 252 819 q 293 840 263 839 l 354 842 q 375 827 375 842 m 509 -1 q 431 -18 478 -18 q 354 -5 392 -18 l 355 41 q 262 0 280 0 l 156 0 q 51 64 51 0 l 51 596 q 115 623 51 623 q 165 617 139 623 q 203 594 203 609 l 203 67 q 252 62 231 62 q 355 109 311 62 l 355 598 q 431 615 388 615 q 509 598 474 615 l 509 -1 "},"д":{"x_min":37,"x_max":500.875,"ha":539,"o":"m 309 385 l 227 385 q 169 450 169 385 l 169 459 q 227 525 169 525 l 309 525 q 368 459 368 525 l 368 450 q 309 385 368 385 m 309 412 q 341 450 341 412 l 341 459 q 309 498 341 498 l 227 498 q 196 459 196 498 l 196 450 q 227 412 196 412 l 309 412 m 491 261 q 478 253 488 253 l 66 253 q 45 266 54 253 q 37 293 37 280 q 46 325 37 304 q 66 346 56 346 l 478 346 q 500 304 500 346 q 491 261 500 291 m 469 280 q 473 304 473 297 q 471 319 473 312 l 74 319 q 64 293 64 297 q 70 280 64 285 l 469 280 m 309 90 l 227 90 q 169 155 169 90 l 169 164 q 227 230 169 230 l 309 230 q 368 164 368 230 l 368 155 q 309 90 368 90 m 309 117 q 341 155 341 117 l 341 163 q 309 202 341 202 l 227 202 q 196 163 196 202 l 196 155 q 227 117 196 117 l 309 117 "},"¯":{"x_min":51,"x_max":441,"ha":492,"o":"m 441 978 q 431 940 441 966 l 66 940 q 51 966 51 950 q 66 1006 51 976 l 431 1006 q 441 978 441 993 "},"Z":{"x_min":37,"x_max":570.71875,"ha":608,"o":"m 570 37 q 563 0 570 20 l 125 0 q 113 0 119 0 q 60 61 60 0 q 63 81 60 71 l 393 792 l 49 792 q 37 820 37 802 q 49 862 37 839 l 501 863 q 559 817 559 856 q 555 789 559 806 l 228 69 l 563 69 q 570 37 570 55 "},"u":{"x_min":37,"x_max":495,"ha":533,"o":"m 495 -1 q 417 -18 464 -18 q 340 -5 377 -18 l 340 41 q 247 0 265 0 l 141 0 q 37 64 37 0 l 37 596 q 101 623 37 623 q 151 617 125 623 q 189 594 189 609 l 189 67 q 237 62 217 62 q 340 109 296 62 l 340 598 q 416 615 373 615 q 495 598 460 615 l 495 -1 "},"k":{"x_min":37,"x_max":495,"ha":532,"o":"m 495 0 q 418 -14 455 -14 q 342 1 378 -14 l 342 316 q 320 319 331 319 q 237 296 279 319 q 189 232 189 270 l 189 0 q 111 -13 153 -13 q 37 0 68 -13 l 37 863 q 110 877 70 877 q 189 863 153 877 l 189 342 l 213 363 q 282 384 246 385 q 324 438 315 389 l 324 588 q 406 605 367 605 q 455 597 435 605 q 478 589 460 595 l 478 438 q 432 380 478 395 q 495 319 495 370 l 495 0 "},"Ù":{"x_min":51,"x_max":516,"ha":567,"o":"m 372 929 q 350 914 372 914 l 290 917 q 250 937 261 917 l 182 1061 q 180 1066 180 1063 q 202 1081 180 1081 l 261 1080 q 303 1058 292 1079 l 370 934 q 372 929 372 931 m 516 76 q 361 0 516 0 l 202 0 q 51 76 51 0 l 51 862 q 122 877 81 877 q 206 862 163 877 l 206 71 q 278 60 243 60 q 360 71 311 60 l 360 862 q 441 879 400 879 q 516 862 481 879 l 516 76 "},"З":{"x_min":37,"x_max":529,"ha":567,"o":"m 383 1056 l 382 1055 l 315 930 q 262 903 302 907 l 201 903 q 166 929 166 902 q 169 941 166 935 l 237 1065 q 289 1093 249 1088 l 349 1095 q 385 1066 385 1095 q 383 1056 385 1060 m 194 928 q 244 928 205 927 q 290 943 282 928 l 359 1066 q 329 1068 356 1067 q 308 1068 321 1068 q 261 1052 269 1067 l 194 928 m 360 -14 l 201 -14 q 37 76 37 -14 l 37 861 q 121 890 37 890 q 219 861 219 890 l 219 82 q 278 74 249 74 q 347 82 306 74 l 347 861 q 387 885 347 877 q 441 892 415 892 q 491 885 465 892 q 529 861 529 877 l 529 76 q 360 -14 529 -14 m 360 13 q 502 76 502 13 l 502 852 q 441 865 473 865 q 374 852 407 865 l 374 72 q 278 47 374 47 q 192 72 192 47 l 192 852 q 121 863 156 863 q 64 853 89 863 l 64 76 q 201 13 64 13 l 360 13 "},"Α":{"x_min":23,"x_max":452.953125,"ha":477,"o":"m 404 706 q 356 714 387 706 q 314 732 322 723 l 236 824 q 203 771 225 806 q 160 729 182 739 q 84 708 116 708 q 48 717 70 708 q 23 741 23 728 q 25 749 23 745 l 159 924 q 233 951 192 951 q 309 924 276 951 l 311 922 l 450 750 q 450 748 450 749 q 452 739 452 746 q 404 706 449 706 m 405 733 q 424 738 420 733 l 291 904 q 233 924 266 924 q 177 904 202 924 l 54 743 q 84 735 67 735 q 146 752 109 735 l 204 832 q 235 858 223 858 q 267 832 246 858 l 332 752 q 405 733 378 733 "},"Ů":{"x_min":24,"x_max":274.25,"ha":298,"o":"m 238 621 l 177 621 q 125 650 137 626 l 26 837 q 24 848 24 843 q 75 878 24 878 q 102 876 91 878 l 119 874 q 172 846 158 873 l 270 660 q 274 648 274 654 q 238 621 274 620 m 246 647 l 147 833 q 51 849 136 856 l 149 662 q 195 648 157 648 l 246 647 "},"¢":{"x_min":51,"x_max":511,"ha":562,"o":"m 511 67 q 378 0 511 0 l 330 0 l 330 -60 q 319 -69 324 -63 q 309 -74 317 -74 q 300 -69 303 -74 q 295 -60 296 -62 l 295 0 l 275 0 l 275 -60 q 266 -68 272 -62 q 254 -74 260 -74 q 240 -60 251 -71 l 240 0 l 181 0 q 51 64 51 0 l 51 531 q 175 595 51 595 l 240 595 l 240 660 q 245 672 244 665 q 253 677 246 677 q 264 672 262 677 q 275 660 269 664 l 275 595 l 295 595 l 295 660 q 299 672 298 665 q 308 677 300 677 q 319 672 316 677 q 330 660 324 664 l 330 595 l 395 595 q 511 540 511 595 l 511 455 q 429 438 460 438 q 356 454 393 438 l 356 526 q 330 533 342 531 l 330 61 q 356 67 342 63 l 356 134 q 429 149 389 149 q 511 134 472 149 l 511 67 m 295 57 l 295 540 q 277 540 284 540 l 275 540 l 275 57 l 279 56 q 295 57 285 56 m 240 59 l 240 537 q 203 526 222 533 l 203 67 q 240 59 223 62 "},"Ş":{"x_min":24,"x_max":521.28125,"ha":545,"o":"m 424 481 l 433 476 q 458 427 451 467 l 521 2 q 486 -23 523 -14 q 437 -31 458 -31 q 384 -24 417 -31 q 339 -1 341 -15 l 272 457 q 235 464 249 464 q 206 459 221 464 l 206 0 q 114 -26 206 -26 q 24 0 24 -26 l 24 862 q 37 876 24 876 l 383 876 q 516 804 516 876 l 516 580 q 485 517 516 547 l 453 493 q 424 481 442 486 m 437 -4 q 493 7 469 -4 l 430 423 q 419 452 426 448 q 383 469 407 458 q 354 493 354 484 q 371 505 354 508 q 390 504 380 504 q 439 516 418 504 l 467 537 q 489 580 489 558 l 489 804 q 383 849 489 849 l 51 849 l 51 10 q 114 1 84 1 q 179 10 146 1 l 179 468 q 235 491 179 491 q 297 470 294 491 l 364 10 q 437 -4 402 -4 m 334 782 q 272 791 298 791 q 206 782 245 791 l 206 562 q 264 556 237 556 q 334 563 291 556 l 334 782 m 361 792 l 361 552 q 264 529 361 529 q 179 552 179 529 l 179 792 q 272 818 179 818 q 361 792 361 818 "},"é":{"x_min":51,"x_max":511,"ha":562,"o":"m 375 827 q 374 822 375 824 l 306 697 q 265 677 295 677 l 205 677 q 183 691 183 676 l 185 696 l 252 819 q 293 840 263 839 l 354 842 q 375 827 375 842 m 511 49 q 407 0 511 0 l 154 0 q 51 45 51 0 l 51 531 q 164 595 51 595 l 389 595 q 511 531 511 595 l 511 345 l 203 245 l 203 66 q 277 56 245 56 q 356 66 309 56 l 356 134 q 432 152 389 152 q 511 135 474 152 l 511 49 m 356 386 l 356 527 q 283 538 316 538 q 203 527 251 538 l 203 333 l 356 386 "},"B":{"x_min":37,"x_max":502,"ha":540,"o":"m 502 76 q 367 0 502 0 l 37 0 l 37 862 l 330 862 q 502 777 502 862 l 502 580 q 475 543 502 557 l 426 518 l 477 490 q 502 452 502 476 l 502 76 m 347 557 l 347 791 q 264 806 297 806 q 192 791 229 806 l 192 557 q 271 547 238 547 q 347 557 304 547 m 347 68 l 347 478 q 276 493 310 493 q 192 478 244 493 l 192 68 q 264 54 228 54 q 347 68 297 54 "},"…":{"x_min":37,"x_max":741,"ha":779,"o":"m 741 46 q 695 -6 741 -6 l 613 -6 q 569 46 569 -6 l 569 54 q 613 107 569 107 l 695 107 q 741 54 741 107 l 741 46 m 472 46 q 426 -6 472 -6 l 344 -6 q 300 46 300 -6 l 300 54 q 344 107 300 107 l 426 107 q 472 54 472 107 l 472 46 m 209 46 q 163 -6 209 -6 l 81 -6 q 37 46 37 -6 l 37 54 q 81 107 37 107 l 163 107 q 209 54 209 107 l 209 46 "},"В":{"x_min":37,"x_max":529.359375,"ha":567,"o":"m 212 997 q 211 1003 211 1000 l 211 1013 q 262 1079 211 1057 q 352 1095 299 1095 l 377 1095 q 509 1018 509 1095 l 509 950 q 479 927 509 937 q 438 919 454 919 q 402 927 421 919 q 379 950 379 936 l 379 1002 q 359 1013 366 1007 q 343 1003 352 1008 q 342 996 344 1000 l 342 982 q 209 905 342 905 l 185 905 q 50 986 50 905 l 50 1054 q 76 1075 50 1067 q 113 1081 94 1081 q 149 1074 129 1081 q 176 1054 176 1066 l 176 996 q 193 986 187 992 q 212 997 200 992 m 238 1010 q 239 1003 239 1006 l 239 988 q 227 974 239 981 q 209 965 218 969 q 193 957 200 957 q 175 965 186 957 q 158 975 160 975 q 148 1007 147 980 q 150 1045 148 1023 q 113 1054 129 1054 q 77 1046 95 1054 l 77 986 q 185 932 77 932 l 209 932 q 315 982 315 932 l 315 1003 q 315 1008 315 1006 q 342 1036 315 1016 q 360 1042 350 1042 q 380 1033 366 1042 q 397 1024 393 1025 q 406 1011 406 1021 l 406 956 q 437 946 420 946 q 481 958 458 946 l 481 1018 q 376 1068 481 1068 l 351 1068 q 238 1013 238 1068 l 238 1010 m 360 -14 l 201 -14 q 37 76 37 -14 l 37 785 q 201 876 37 876 l 360 876 q 529 785 529 876 l 529 76 q 360 -14 529 -14 m 360 13 q 502 76 502 13 l 502 785 q 360 849 502 849 l 201 849 q 64 785 64 849 l 64 76 q 201 13 64 13 l 360 13 m 346 783 q 280 798 306 798 q 219 783 251 798 l 219 77 q 281 65 253 65 q 346 78 308 65 l 346 783 m 374 792 l 374 69 q 334 45 374 54 q 281 37 302 37 q 231 44 260 37 q 192 69 192 54 l 192 792 q 230 817 192 807 q 280 825 259 825 q 333 816 300 825 q 374 792 374 806 "},"І":{"x_min":37,"x_max":519,"ha":556,"o":"m 414 896 q 366 904 397 896 q 324 922 331 912 l 286 969 q 240 916 274 948 q 164 896 197 896 q 127 904 147 896 q 102 928 102 914 q 105 935 102 932 l 209 1069 q 284 1096 242 1096 q 359 1069 327 1096 l 361 1066 l 460 939 q 462 929 462 931 q 414 896 460 896 m 414 923 q 435 927 430 923 l 341 1049 q 284 1069 316 1069 q 227 1049 253 1069 l 135 929 q 165 923 147 923 q 226 939 190 923 q 285 1004 279 1004 q 342 941 292 1004 q 414 923 388 923 m 506 -7 q 495 -14 502 -14 l 171 -14 q 37 57 37 -14 l 37 805 q 165 876 37 876 l 494 876 q 516 824 516 876 q 494 779 516 779 l 219 779 l 219 566 l 431 566 q 456 517 456 566 q 431 471 456 471 l 219 471 l 219 82 l 495 82 q 519 34 519 82 q 506 -7 519 10 m 487 13 q 492 34 492 22 q 487 55 492 45 l 205 55 q 192 69 192 55 l 192 484 q 205 498 192 498 l 424 498 q 428 516 428 507 q 423 538 428 527 l 205 538 q 192 552 192 538 l 192 792 q 205 806 192 806 l 485 806 q 489 824 489 814 q 485 848 489 836 l 165 848 q 64 804 64 848 l 64 57 q 171 13 64 13 l 487 13 "},"H":{"x_min":37,"x_max":502,"ha":540,"o":"m 502 0 q 424 -22 468 -22 q 347 0 380 -22 l 347 486 l 192 486 l 192 0 q 116 -18 144 -18 q 37 0 85 -18 l 37 862 q 116 877 78 877 q 192 862 154 877 l 192 557 l 347 557 l 347 862 q 424 879 384 879 q 502 862 468 879 l 502 0 "},"ν":{"x_min":37,"x_max":296,"ha":334,"o":"m 226 418 l 127 418 q 37 469 37 418 l 37 491 q 87 517 37 517 q 141 491 141 517 l 141 475 q 167 471 158 471 q 192 475 178 471 l 192 661 l 82 661 q 63 690 63 661 q 82 721 63 721 l 192 721 l 192 817 q 163 822 174 822 q 141 818 152 822 l 141 802 q 83 779 141 779 q 37 802 37 779 l 37 824 q 127 876 37 876 l 221 876 q 296 829 296 876 l 296 719 q 277 692 296 708 q 296 669 291 683 l 296 463 q 226 418 296 418 m 226 445 q 269 463 269 445 l 269 663 q 242 678 264 673 q 229 691 229 681 q 241 704 229 700 q 269 723 259 709 l 269 829 q 221 849 269 849 l 127 849 q 64 824 64 849 l 64 810 q 83 806 71 806 q 114 812 98 806 l 114 828 q 163 849 114 849 q 219 828 219 849 l 219 707 q 205 693 219 693 l 90 693 q 89 690 89 691 l 89 688 l 205 688 q 219 674 219 688 l 219 465 q 167 444 219 444 q 114 465 114 444 l 114 484 q 87 490 101 490 q 64 484 74 490 l 64 469 q 127 445 64 445 l 226 445 "},"î":{"x_min":51,"x_max":383.984375,"ha":435,"o":"m 383 695 q 349 674 381 674 q 268 695 318 674 l 219 755 l 168 692 q 99 672 128 672 q 51 692 68 672 l 152 823 q 218 847 181 847 q 285 823 256 847 l 383 695 m 293 595 l 291 0 q 219 -13 252 -13 q 142 0 186 -13 l 142 595 q 216 612 189 612 q 293 595 245 612 "},"β":{"x_min":37,"x_max":323,"ha":360,"o":"m 281 736 l 231 736 q 190 801 190 736 l 190 810 q 231 875 190 875 l 281 875 q 323 810 323 875 l 323 801 q 281 736 323 736 m 281 763 q 296 801 296 763 l 296 810 q 281 848 296 848 l 231 848 q 217 810 217 848 l 217 801 q 231 763 217 763 l 281 763 m 128 736 l 77 736 q 37 801 37 736 l 37 810 q 77 875 37 875 l 128 875 q 170 810 170 875 l 170 801 q 128 736 170 736 m 128 763 q 143 801 143 763 l 143 810 q 128 848 143 848 l 77 848 q 64 810 64 848 l 64 801 q 77 763 64 763 l 128 763 "},"Ό":{"x_min":24,"x_max":396,"ha":420,"o":"m 387 25 l 371 -59 q 334 -112 374 -99 q 238 -140 249 -140 q 208 -108 208 -140 q 241 -58 208 -72 q 284 -46 262 -52 q 293 -12 293 -27 l 273 -12 q 224 42 224 -12 q 295 128 224 128 l 345 128 q 396 73 396 128 q 393 59 396 71 l 387 25 m 234 -111 l 327 -86 q 344 -60 346 -80 l 344 -55 l 359 29 q 360 33 360 31 l 366 65 q 369 73 369 69 q 345 101 369 101 l 295 101 q 251 42 251 101 q 273 15 251 15 l 305 15 q 320 -12 320 15 q 297 -70 320 -64 q 236 -93 264 -79 q 234 -111 234 -109 m 203 24 l 187 -59 q 150 -112 191 -98 q 53 -140 66 -140 q 24 -108 24 -140 q 57 -58 24 -72 q 99 -46 78 -52 q 109 -12 109 -27 l 89 -12 q 40 42 40 -12 q 110 128 40 128 l 160 128 q 211 73 211 128 q 210 59 211 71 l 203 24 m 50 -111 l 142 -86 q 159 -60 162 -80 l 160 -55 l 182 65 q 184 73 184 69 q 161 101 184 101 l 110 101 q 67 42 67 101 q 89 15 67 15 l 121 15 q 136 -12 136 15 q 113 -70 136 -64 q 53 -93 80 -78 q 50 -111 49 -109 "},"−":{"x_min":51,"x_max":440.953125,"ha":492,"o":"m 440 304 q 431 267 440 293 l 66 267 q 51 293 51 277 q 66 332 51 302 l 431 332 q 440 304 440 319 "},"¥":{"x_min":51,"x_max":547,"ha":597,"o":"m 547 223 q 534 191 547 206 l 380 191 l 380 0 q 302 -18 342 -18 q 224 0 260 -18 l 224 191 l 69 191 q 51 222 51 205 q 69 257 51 236 l 224 257 l 224 334 l 69 334 q 51 361 51 345 q 69 400 51 377 l 224 400 l 224 427 q 68 504 68 427 l 68 862 q 153 877 111 877 q 224 862 193 877 l 224 505 q 301 483 266 483 q 380 505 335 483 l 380 862 q 451 875 409 875 q 535 862 493 875 l 535 504 q 380 427 535 428 l 380 400 l 533 400 q 544 367 544 385 q 533 334 544 348 l 380 334 l 380 257 l 534 257 q 547 223 547 239 "},"U":{"x_min":37,"x_max":502,"ha":540,"o":"m 502 76 q 347 0 502 0 l 188 0 q 37 76 37 0 l 37 862 q 108 877 67 877 q 192 862 149 877 l 192 71 q 264 60 229 60 q 346 71 297 60 l 346 862 q 427 879 386 879 q 502 862 467 879 l 502 76 "},"Ñ":{"x_min":51,"x_max":537,"ha":588,"o":"m 495 950 q 438 932 464 932 q 393 950 412 932 l 393 1011 q 360 1028 388 1013 q 345 1021 357 1028 l 329 1011 l 329 1003 l 329 1003 l 329 982 q 210 918 329 918 l 186 918 q 64 986 64 918 l 64 1054 q 114 1067 88 1067 q 164 1054 134 1067 l 164 988 q 179 979 167 987 q 194 971 192 971 q 227 988 208 979 l 227 1003 l 224 1003 l 224 1013 q 273 1068 224 1050 q 352 1081 308 1081 l 377 1081 q 495 1017 495 1081 l 495 950 m 537 0 q 468 -24 506 -24 q 381 0 433 -24 l 381 0 l 206 596 l 206 0 q 136 -24 176 -24 q 51 0 99 -24 l 51 862 q 128 884 85 884 q 205 861 171 884 l 205 860 l 381 265 l 381 862 q 464 879 421 879 q 537 862 506 879 l 537 0 "},"F":{"x_min":37,"x_max":493,"ha":496,"o":"m 493 828 q 480 792 493 809 l 192 792 l 192 552 l 418 552 q 429 520 429 538 q 418 485 429 501 l 192 485 l 192 0 q 118 -18 157 -18 q 37 0 83 -18 l 37 810 q 148 862 37 862 l 480 862 q 493 828 493 848 "},"ĵ":{"x_min":23,"x_max":224,"ha":248,"o":"m 194 -119 q 156 -134 183 -123 q 102 -147 124 -147 q 68 -113 68 -147 l 68 -98 q 93 -67 68 -79 q 134 -54 113 -60 q 136 -33 136 -42 q 135 -20 136 -26 l 81 -20 q 23 46 23 -20 l 23 54 q 81 121 23 121 l 164 121 q 224 55 224 121 l 224 -63 q 224 -72 224 -68 l 224 -86 q 194 -119 224 -109 m 95 -120 l 97 -120 l 186 -93 q 197 -86 197 -90 l 197 -72 q 197 -69 197 -71 l 197 -65 l 197 55 q 164 94 197 94 l 81 94 q 50 54 50 94 l 50 46 q 81 7 50 7 l 145 7 q 164 -33 164 7 q 149 -77 164 -67 q 105 -91 136 -81 q 95 -99 95 -94 l 95 -113 q 95 -120 95 -116 "},"*":{"x_min":37,"x_max":378,"ha":416,"o":"m 378 592 q 373 572 378 581 l 370 566 q 343 547 360 547 q 337 549 340 547 l 242 604 l 242 494 q 211 474 242 474 l 203 474 q 173 494 173 474 l 173 603 l 78 549 q 72 547 75 547 q 45 566 58 547 l 41 572 q 37 592 37 579 q 43 608 37 604 l 139 664 l 43 719 q 37 735 37 723 q 41 755 37 748 l 45 761 q 72 779 58 779 q 78 777 75 779 l 173 723 l 173 833 q 203 853 173 853 l 211 853 q 242 833 242 853 l 242 723 l 337 777 q 343 779 340 779 q 370 761 360 779 l 373 755 q 378 734 378 746 q 372 718 378 722 l 277 663 l 372 608 q 378 592 378 604 m 239 662 l 224 687 l 193 687 l 178 662 l 193 637 l 224 637 l 239 662 "},"†":{"x_min":37,"x_max":426.953125,"ha":465,"o":"m 426 569 q 417 531 426 557 l 322 531 l 321 526 l 321 526 l 321 -116 q 236 -146 308 -146 q 165 -113 165 -146 l 165 531 l 52 531 q 37 558 37 541 q 52 597 37 567 l 165 597 l 165 750 q 247 769 205 769 q 321 750 287 769 l 321 597 l 417 597 q 426 569 426 585 "},"Ќ":{"x_min":37,"x_max":585,"ha":623,"o":"m 437 -14 l 106 -14 q 93 0 93 -14 l 93 489 l 70 489 q 48 502 59 489 q 37 528 37 516 q 46 560 37 539 q 66 581 56 581 l 93 581 l 93 862 q 106 876 93 876 l 400 876 q 585 778 585 876 l 585 76 q 437 -14 585 -14 m 437 13 q 558 76 558 13 l 558 778 q 400 849 558 849 l 120 849 l 120 567 q 106 554 120 554 l 74 554 q 64 528 64 532 q 74 516 66 524 l 106 516 q 120 502 120 516 l 120 13 l 437 13 m 403 751 q 363 779 386 779 l 275 779 l 275 581 l 352 581 q 375 540 375 581 q 352 489 375 489 l 275 489 l 275 83 l 363 83 q 403 116 396 83 l 403 751 m 430 754 l 430 112 q 363 56 424 56 l 261 56 q 248 69 248 56 l 248 502 q 311 518 248 522 q 342 516 320 517 q 347 540 347 532 q 344 554 347 547 l 261 554 q 248 567 248 554 l 248 792 q 261 806 248 806 l 363 806 q 406 791 385 806 q 430 754 430 774 "},"°":{"x_min":51,"x_max":363,"ha":414,"o":"m 363 580 q 262 505 363 505 l 156 505 q 51 580 51 505 l 51 795 q 172 863 51 863 l 244 863 q 363 799 363 863 l 363 580 m 271 571 l 271 794 q 206 811 224 811 q 140 794 181 811 l 140 571 q 208 557 179 557 q 271 571 227 557 "},"Ξ":{"x_min":28,"x_max":296,"ha":323,"o":"m 219 199 l 103 199 q 28 305 28 199 l 28 320 q 103 428 28 428 l 219 428 q 296 320 296 428 l 296 305 q 219 199 296 199 m 219 226 q 269 305 269 226 l 269 320 q 219 401 269 401 l 103 401 q 55 320 55 401 l 55 305 q 103 226 55 226 l 219 226 "},"å":{"x_min":51,"x_max":509,"ha":559,"o":"m 400 730 q 299 654 400 654 l 218 654 q 114 729 114 654 l 114 818 q 235 886 114 886 l 281 886 q 400 822 400 886 l 400 730 m 509 0 q 431 -13 472 -13 q 356 0 390 -13 l 356 41 q 262 0 280 0 l 156 0 q 51 64 51 0 l 51 538 q 172 595 51 595 l 244 595 q 350 558 278 595 q 356 556 352 558 l 356 594 q 431 609 389 609 q 509 594 472 609 l 509 0 m 308 720 l 308 816 q 259 833 263 832 q 203 816 244 833 l 203 720 q 260 706 243 706 q 308 720 264 706 m 356 109 l 356 483 q 231 528 339 528 q 203 526 215 528 l 203 67 q 252 62 231 62 q 356 109 311 62 "},"Ϋ":{"x_min":37,"x_max":236,"ha":274,"o":"m 177 600 l 95 600 q 37 665 37 600 l 37 673 q 95 739 37 739 l 177 739 q 236 673 236 739 l 236 665 q 177 600 236 600 m 177 627 q 209 665 209 627 l 209 673 q 177 712 209 712 l 95 712 q 64 673 64 712 l 64 665 q 95 627 64 627 l 177 627 m 137 -151 q 47 -124 46 -151 l 68 525 q 139 549 68 549 q 204 525 204 549 l 226 -124 q 137 -151 226 -151 m 137 -124 q 199 -114 171 -124 l 178 515 q 139 522 154 522 q 94 514 122 522 l 74 -114 q 137 -124 103 -124 "},"0":{"x_min":37,"x_max":569,"ha":607,"o":"m 569 76 q 433 0 569 0 l 188 0 q 37 77 37 0 l 37 784 q 188 862 37 862 l 427 862 q 569 788 569 862 l 569 76 m 414 718 l 414 783 q 296 815 342 815 q 192 783 246 815 l 192 227 l 325 696 q 367 716 331 715 l 414 718 m 414 78 l 414 637 l 278 165 q 237 144 273 145 l 192 143 l 192 78 q 304 52 276 52 q 414 78 318 52 "},"ō":{"x_min":24,"x_max":516,"ha":540,"o":"m 368 -14 l 37 -14 q 24 0 24 -14 l 24 862 q 37 876 24 876 l 330 876 q 516 778 516 876 l 516 76 q 368 -14 516 -14 m 368 13 q 489 76 489 13 l 489 778 q 331 849 489 849 l 51 849 l 51 13 l 368 13 m 333 751 q 293 779 316 779 l 206 779 l 206 83 l 293 83 q 333 116 326 83 l 333 751 m 360 754 l 360 112 q 294 56 360 56 l 192 56 q 179 69 179 56 l 179 792 q 192 806 179 806 l 293 806 q 336 791 315 806 q 360 754 360 774 "},"”":{"x_min":36.671875,"x_max":382.1875,"ha":420,"o":"m 382 821 q 380 810 382 816 l 374 778 q 374 776 374 776 l 357 689 q 357 682 358 685 l 354 668 q 330 648 351 653 l 237 623 q 223 626 228 620 q 221 642 219 633 l 224 656 q 247 676 226 670 l 294 690 q 306 735 306 714 q 305 750 306 742 l 273 750 q 237 790 237 750 q 238 801 237 796 l 240 810 q 295 863 252 863 l 345 863 q 382 821 382 863 m 197 821 q 196 810 197 818 l 190 778 q 189 776 189 776 l 173 689 q 173 683 174 686 l 170 669 q 146 648 167 654 l 53 623 q 40 626 44 620 q 37 642 35 633 l 39 656 q 63 676 42 670 l 109 690 q 123 735 123 714 q 121 750 123 742 l 89 750 q 53 790 53 750 q 54 801 53 796 l 56 810 q 110 863 64 863 l 161 863 q 197 821 197 863 "},"΄":{"x_min":24,"x_max":402,"ha":426,"o":"m 385 308 l 382 306 q 306 229 308 275 l 291 -189 q 114 -286 287 -286 l 48 -286 q 24 -229 24 -286 q 48 -189 24 -189 l 109 -189 l 124 240 q 194 342 126 299 q 124 446 126 384 l 109 853 l 48 853 q 24 902 24 853 q 47 949 24 949 l 109 949 q 222 931 174 949 q 290 854 288 906 q 301 677 292 822 q 307 500 307 566 q 307 433 307 465 q 345 397 310 413 l 387 377 q 402 341 402 360 q 385 308 402 321 m 369 330 q 375 341 375 334 q 369 356 375 348 q 280 430 285 387 l 280 432 q 280 467 280 444 q 280 501 280 489 q 274 677 280 559 l 264 853 q 109 922 259 922 l 54 922 q 51 902 51 913 q 56 880 51 890 l 122 880 q 136 867 135 880 l 151 446 q 238 340 152 402 q 228 330 238 335 q 151 239 153 293 l 136 -203 q 122 -216 135 -216 l 53 -216 q 51 -229 51 -220 q 57 -259 51 -242 l 114 -259 q 264 -189 261 -259 l 280 230 q 369 330 282 292 "},"ŵ":{"x_min":23,"x_max":509,"ha":533,"o":"m 328 577 l 328 598 q 366 622 328 613 q 417 629 396 629 q 469 622 441 629 q 509 598 509 614 l 509 -159 q 349 -288 509 -288 l 59 -288 q 32 -235 32 -288 q 38 -198 32 -218 q 59 -172 46 -172 l 95 -172 q 134 -172 108 -172 q 173 -172 160 -172 q 328 -116 328 -172 l 328 18 q 248 -14 267 -14 l 141 -14 q 23 64 23 -14 l 23 538 q 158 609 23 609 l 230 609 q 328 577 254 609 m 349 -261 q 482 -159 482 -261 l 482 589 q 417 602 453 602 q 355 589 382 602 l 355 556 q 331 546 355 536 q 230 582 251 582 l 158 582 q 50 538 50 582 l 50 63 q 141 13 50 13 l 248 13 q 296 33 258 13 q 344 54 334 54 q 355 40 355 54 l 355 -117 q 173 -199 355 -199 q 134 -199 160 -199 q 95 -199 108 -199 l 67 -199 q 58 -235 58 -218 q 65 -261 58 -251 l 349 -261 m 328 481 q 216 514 311 514 q 202 513 209 514 l 202 77 q 238 75 222 75 q 328 114 289 75 l 328 481 m 355 484 l 355 109 q 350 99 353 102 q 238 48 303 48 q 175 67 175 48 l 175 526 q 217 541 175 541 q 353 489 333 541 l 355 484 "},"Ķ":{"x_min":23,"x_max":440.078125,"ha":456,"o":"m 429 261 q 417 253 427 253 l 52 253 q 31 266 40 253 q 23 293 23 280 q 32 325 23 304 q 52 346 42 346 l 417 346 q 440 304 440 346 q 429 261 440 291 m 407 280 q 412 304 412 297 q 409 319 412 312 l 60 319 q 50 293 50 297 q 56 280 50 285 l 407 280 "},"ö":{"x_min":51,"x_max":511,"ha":562,"o":"m 399 752 q 370 701 399 701 l 320 701 q 293 752 293 701 l 293 761 q 320 812 293 812 l 370 812 q 399 761 399 812 l 399 752 m 246 752 q 218 701 246 701 l 167 701 q 140 752 140 701 l 140 761 q 167 812 140 812 l 218 812 q 246 761 246 812 l 246 752 m 511 76 q 478 17 511 38 q 410 0 451 0 l 156 0 q 51 75 51 0 l 51 527 q 172 595 51 595 l 392 595 q 511 531 511 595 l 511 76 m 356 66 l 356 526 q 277 543 309 543 q 203 526 245 543 l 203 66 q 279 52 243 52 q 356 66 311 52 "},"Β":{"x_min":23.734375,"x_max":1509.609375,"ha":1528,"o":"m 1395 -16 q 1509 71 1509 -16 l 1509 354 q 1378 430 1509 430 l 1215 430 q 1080 348 1080 430 l 1080 70 q 1199 -16 1080 -16 l 1395 -16 m 1395 9 l 1199 9 q 1108 70 1108 9 l 1108 348 q 1215 404 1108 404 l 1378 404 q 1481 354 1481 404 l 1481 71 q 1395 9 1481 9 m 943 -16 q 1057 71 1057 -16 l 1057 354 q 925 430 1057 430 l 763 430 q 627 348 627 430 l 627 70 q 747 -16 627 -16 l 943 -16 m 943 9 l 747 9 q 655 70 655 9 l 655 348 q 763 404 655 404 l 925 404 q 1030 354 1030 404 l 1030 71 q 943 9 1030 9 m 354 -5 l 905 855 q 902 872 912 866 q 825 897 874 897 q 771 890 807 897 q 722 869 727 882 l 170 6 q 167 0 167 3 q 170 -6 167 -3 q 248 -40 197 -40 q 305 -30 270 -40 q 354 -5 348 -18 m 333 9 q 248 -12 288 -12 q 198 1 216 -12 l 743 851 q 825 869 784 869 q 876 859 858 869 l 333 9 m 339 427 q 453 518 453 427 l 453 798 q 320 876 453 876 l 158 876 q 23 794 23 876 l 23 516 q 143 427 23 427 l 339 427 m 339 455 l 143 455 q 51 516 51 455 l 51 794 q 158 848 51 848 l 320 848 q 425 798 425 848 l 425 518 q 339 455 425 455 m 1291 351 q 1327 339 1304 347 l 1327 71 l 1294 61 q 1260 71 1288 62 l 1260 339 q 1291 351 1284 348 m 1354 347 q 1295 377 1354 362 l 1293 377 q 1258 368 1280 377 q 1233 347 1233 357 l 1233 62 q 1259 42 1233 51 q 1294 34 1280 34 q 1302 35 1298 34 l 1310 38 q 1354 62 1354 52 l 1354 347 m 838 351 q 874 339 851 347 l 874 71 l 841 61 q 808 71 834 62 l 808 339 q 838 351 829 345 m 901 347 q 842 377 901 362 l 838 377 q 805 368 826 377 q 780 347 780 356 l 780 62 q 806 42 780 51 q 841 34 828 34 q 848 35 845 34 l 858 38 q 901 62 901 50 l 901 347 m 234 796 q 269 783 248 791 l 269 518 q 236 507 255 514 q 202 518 229 508 l 202 783 q 234 796 225 792 m 297 792 q 238 823 297 808 l 234 823 q 201 812 225 823 q 174 792 174 800 l 174 508 q 200 488 174 499 q 236 479 224 479 q 244 482 238 480 l 254 484 q 297 508 297 496 l 297 792 "},"ǽ":{"x_min":23,"x_max":358,"ha":346,"o":"m 348 522 q 336 514 345 514 l 206 514 l 206 -1 q 109 -39 189 -39 q 23 6 23 -39 l 23 750 q 65 776 23 766 q 118 783 94 783 q 167 776 139 783 q 206 750 206 766 l 206 606 l 336 606 q 358 562 358 606 q 348 522 358 546 m 326 541 q 330 562 330 553 q 328 579 330 571 l 192 579 q 179 592 179 579 l 179 742 q 118 756 151 756 q 50 741 83 756 l 50 6 q 108 -12 50 -12 q 179 7 167 -12 l 179 527 q 192 541 179 541 l 326 541 "},"Ļ":{"x_min":23,"x_max":528,"ha":552,"o":"m 511 -9 q 502 -14 505 -13 l 38 -14 q 25 0 25 -14 l 25 420 q 63 476 25 457 q 134 497 77 482 l 333 547 l 333 784 q 270 798 298 798 q 205 783 243 798 l 205 741 q 164 714 205 725 q 112 706 133 706 q 62 714 91 706 q 23 741 23 725 l 23 784 q 191 876 23 876 l 350 876 q 515 785 515 876 l 515 502 q 478 461 515 470 q 205 392 372 434 l 205 81 l 502 81 q 528 30 528 81 q 511 -9 528 5 m 496 13 q 501 30 501 19 q 494 54 501 43 l 191 54 q 178 67 178 54 l 178 403 q 188 416 178 414 l 471 488 q 488 503 488 492 l 488 785 q 350 849 488 849 l 191 849 q 50 784 50 849 l 50 748 q 113 733 77 733 q 178 749 148 733 l 178 792 q 218 817 178 807 q 270 825 249 825 q 320 817 290 825 q 360 792 360 807 l 360 535 q 349 522 360 525 l 86 456 q 52 419 52 443 l 52 13 l 496 13 "},"Õ":{"x_min":51,"x_max":516,"ha":567,"o":"m 495 950 q 438 932 464 932 q 393 950 412 932 l 393 1011 q 360 1028 388 1013 q 345 1021 357 1028 l 329 1011 l 329 1003 l 329 1003 l 329 982 q 210 918 329 918 l 186 918 q 64 986 64 918 l 64 1054 q 114 1067 88 1067 q 164 1054 134 1067 l 164 988 q 179 979 167 987 q 194 971 192 971 q 227 988 208 979 l 227 1003 l 224 1003 l 224 1013 q 273 1068 224 1050 q 352 1081 308 1081 l 377 1081 q 495 1017 495 1081 l 495 950 m 516 77 q 361 0 516 0 l 202 0 q 51 77 51 0 l 51 784 q 202 862 51 862 l 361 862 q 516 784 516 862 l 516 77 m 360 69 l 360 792 q 280 811 312 811 q 206 792 245 811 l 206 69 q 282 52 247 52 q 360 69 314 52 "},"þ":{"x_min":51,"x_max":540,"ha":591,"o":"m 540 88 q 508 21 540 46 q 435 -2 479 -2 l 313 -2 q 206 38 279 -2 l 206 -126 q 123 -139 165 -139 q 53 -126 83 -139 l 53 -2 l 51 -1 l 51 593 l 53 593 l 53 731 q 122 749 80 749 q 206 732 163 749 l 206 554 q 265 578 218 564 q 330 592 313 592 l 418 592 q 498 573 462 592 q 540 509 540 550 l 540 88 m 388 64 l 388 523 q 360 526 375 526 q 206 484 224 526 l 206 106 q 323 60 249 60 q 388 64 359 60 "},"]":{"x_min":37,"x_max":394,"ha":432,"o":"m 394 -277 l 52 -277 q 37 -245 37 -263 q 52 -208 37 -224 l 239 -192 l 239 851 l 52 866 q 40 905 40 886 q 52 936 40 923 l 394 936 l 394 -277 "},"А":{"x_min":37,"x_max":529,"ha":567,"o":"m 383 1056 l 382 1055 l 315 930 q 262 903 302 907 l 201 903 q 166 929 166 902 q 169 941 166 935 l 237 1065 q 289 1093 249 1088 l 349 1095 q 385 1066 385 1095 q 383 1056 385 1060 m 194 928 q 244 928 205 927 q 290 943 282 928 l 359 1066 q 329 1068 356 1067 q 308 1068 321 1068 q 261 1052 269 1067 l 194 928 m 360 -14 l 201 -14 q 37 76 37 -14 l 37 785 q 201 876 37 876 l 360 876 q 529 785 529 876 l 529 76 q 360 -14 529 -14 m 360 13 q 502 76 502 13 l 502 785 q 360 849 502 849 l 201 849 q 64 785 64 849 l 64 76 q 201 13 64 13 l 360 13 m 347 783 q 280 798 306 798 q 219 783 251 798 l 219 77 q 281 65 253 65 q 347 78 308 65 l 347 783 m 374 792 l 374 69 q 333 45 374 54 q 281 38 302 38 q 231 44 259 38 q 192 69 192 54 l 192 792 q 230 817 192 807 q 280 825 259 825 q 333 816 300 825 q 374 792 374 806 "},"Ы":{"x_min":37,"x_max":397.109375,"ha":435,"o":"m 349 661 q 300 669 331 661 q 257 687 265 677 l 220 734 q 175 681 207 712 q 98 661 131 661 q 61 669 81 661 q 37 692 37 679 q 39 700 37 697 l 143 834 q 218 861 176 861 q 293 834 260 861 l 295 831 l 394 703 q 397 694 396 697 q 349 661 393 661 m 348 688 q 368 692 364 688 l 274 813 q 218 834 250 834 q 161 813 186 834 l 69 694 q 98 688 81 688 q 159 704 123 688 q 218 769 212 769 q 276 706 225 769 q 348 688 322 688 m 304 0 q 219 -26 304 -26 q 128 0 128 -26 l 128 594 q 165 618 128 608 q 216 625 193 625 q 267 618 239 625 q 306 594 306 608 l 304 0 m 277 9 l 279 585 q 216 598 239 598 q 155 585 193 598 l 155 10 q 219 1 191 1 q 277 9 245 1 "},"χ":{"x_min":37,"x_max":821.640625,"ha":859,"o":"m 810 -10 q 800 -14 804 -13 l 570 -14 q 557 0 557 -14 l 557 209 q 615 255 557 240 l 710 278 l 710 387 q 686 391 698 391 q 660 386 673 391 l 660 371 q 607 347 660 347 q 557 371 557 347 l 557 392 q 647 445 557 445 l 725 445 q 814 392 814 445 l 814 251 q 792 224 814 231 l 790 223 q 660 191 756 215 l 660 47 l 800 47 q 821 15 821 47 q 810 -10 821 0 m 794 13 l 794 15 q 793 20 794 17 l 646 20 q 633 33 633 20 l 633 202 q 642 215 633 213 q 783 250 670 222 q 787 252 786 251 l 787 392 q 725 418 787 418 l 647 418 q 584 392 584 418 l 584 378 q 607 374 594 374 q 633 379 621 374 l 633 396 q 686 417 633 417 q 737 396 737 417 l 737 268 q 726 255 737 258 l 622 229 q 584 210 584 219 l 584 13 l 794 13 m 201 -7 q 153 -31 193 -20 q 97 -41 118 -41 q 62 -30 72 -41 l 60 -28 q 44 1 44 -4 q 43 7 44 4 l 596 870 q 632 887 601 877 q 673 897 660 897 q 751 872 723 897 q 753 855 759 864 l 201 -7 m 181 10 l 723 859 q 673 870 704 870 q 616 851 658 870 l 72 0 l 80 -11 q 96 -14 84 -14 q 181 10 134 -14 m 225 426 q 213 418 222 418 l 63 418 q 44 447 44 418 q 63 480 44 480 l 87 480 l 87 749 l 55 749 q 37 773 37 749 q 98 842 37 811 q 171 873 99 842 q 183 878 178 878 q 192 862 192 878 l 192 480 l 213 480 q 231 449 231 480 q 225 426 231 438 m 64 776 l 100 776 q 114 762 114 776 l 114 467 q 100 453 114 453 l 72 453 q 70 447 70 450 q 71 445 70 445 l 203 445 l 203 453 l 178 453 q 164 467 164 453 l 164 838 l 66 781 q 64 776 64 778 "},"ĭ":{"x_min":23.734375,"x_max":516.765625,"ha":541,"o":"m 269 870 q 259 876 265 876 l 227 876 q 213 862 213 876 l 213 828 l 189 828 q 23 737 23 828 l 23 544 q 67 501 23 515 q 136 482 90 495 q 213 457 155 477 l 213 119 l 205 119 l 205 158 q 193 172 205 172 l 37 172 q 23 158 23 172 l 23 113 q 193 23 23 23 l 213 23 l 213 0 q 227 -13 213 -13 l 259 -13 q 269 -8 265 -13 q 280 -13 273 -13 l 312 -13 q 324 0 324 -13 l 324 23 l 351 23 q 516 113 516 23 l 516 440 q 480 491 516 479 l 324 545 l 324 731 l 333 731 l 333 694 q 347 680 333 680 l 502 680 q 516 694 516 680 l 516 737 q 347 828 516 828 l 324 828 l 324 862 q 312 876 324 876 l 280 876 q 269 870 273 876 m 351 50 l 312 50 q 298 35 298 50 l 298 12 l 292 12 l 292 35 q 280 50 292 50 l 259 50 q 245 35 245 50 l 245 12 l 240 12 l 240 35 q 227 50 240 50 l 193 50 q 51 113 51 50 l 51 144 l 179 144 l 179 105 q 193 91 179 91 l 227 91 q 240 105 240 91 l 240 465 q 231 479 240 474 l 145 509 q 89 523 141 511 q 51 544 51 532 l 51 737 q 189 801 51 801 l 227 801 q 240 813 240 801 l 240 848 l 245 848 l 245 813 q 259 801 245 801 l 280 801 q 292 813 292 801 l 292 848 l 298 848 l 298 813 q 312 801 298 801 l 347 801 q 488 737 488 801 l 488 706 l 360 706 l 360 745 q 347 758 360 758 l 312 758 q 298 745 298 758 l 298 536 q 308 522 298 523 l 470 466 q 488 440 488 460 l 488 113 q 351 50 488 50 m 266 731 l 266 547 l 284 559 l 273 563 l 273 745 l 259 731 l 266 731 m 292 745 q 280 758 292 758 l 259 758 q 245 745 245 758 l 245 554 q 257 539 245 545 q 279 533 269 533 q 292 547 292 533 l 292 745 m 213 731 l 213 584 l 205 587 l 205 731 l 213 731 m 240 745 q 227 758 240 758 l 193 758 q 179 745 179 758 l 179 577 q 197 559 179 567 q 225 552 212 552 q 240 566 240 552 l 240 745 m 333 413 l 333 119 l 324 119 l 324 416 l 333 413 m 360 423 q 343 441 360 433 q 315 450 326 450 q 298 436 298 450 l 298 105 q 312 91 298 91 l 347 91 q 360 105 360 91 l 360 423 m 266 437 l 266 105 l 280 119 l 273 119 l 273 454 l 255 441 l 266 437 m 292 446 q 261 467 292 467 q 245 454 245 467 l 245 105 q 259 91 245 91 l 280 91 q 292 105 292 91 l 292 446 "},"8":{"x_min":37,"x_max":502,"ha":540,"o":"m 502 75 q 350 0 502 0 l 192 0 q 37 76 37 0 l 37 440 q 116 512 53 496 q 37 572 37 526 l 37 779 q 188 862 37 862 l 347 862 q 502 784 502 862 l 502 572 q 420 512 490 521 q 502 440 476 502 l 502 75 m 346 582 l 346 788 q 268 812 297 812 q 192 789 237 812 l 192 582 l 268 522 l 346 582 m 346 74 l 346 414 l 267 461 l 193 414 l 191 74 q 268 49 233 49 q 346 74 301 49 "},"ί":{"x_min":37,"x_max":559,"ha":597,"o":"m 543 182 q 532 177 539 177 l 392 177 l 392 0 q 352 -24 392 -14 q 301 -31 324 -31 q 249 -24 280 -31 q 210 0 210 -15 l 210 177 l 68 177 q 45 193 56 177 q 37 221 37 208 q 47 252 37 234 q 68 270 57 270 l 210 270 l 210 321 l 68 321 q 46 335 56 321 q 37 362 37 349 q 46 394 37 375 q 68 414 56 414 l 210 414 q 55 504 55 417 l 55 861 q 153 890 55 890 q 237 861 237 890 l 237 513 q 300 497 272 497 q 365 513 327 497 l 365 861 q 450 888 365 888 q 548 861 548 888 l 548 504 q 392 414 548 418 l 532 414 q 557 367 557 414 q 532 321 557 321 l 392 321 l 392 270 l 532 270 q 552 251 544 270 q 559 223 559 236 q 543 182 559 202 m 525 204 q 532 223 532 213 q 525 242 532 231 l 378 242 q 365 256 365 242 l 365 334 q 378 348 365 348 l 525 348 q 530 367 530 356 q 525 386 530 377 l 378 386 q 365 400 365 386 l 365 427 q 405 446 365 441 q 480 456 466 451 q 521 504 521 469 l 521 851 q 450 861 485 861 q 392 852 416 861 l 392 505 q 352 478 392 490 q 300 469 321 469 q 249 478 279 469 q 210 505 210 490 l 210 853 q 153 863 184 863 q 82 851 117 863 l 82 504 q 223 441 82 441 q 237 427 237 441 l 237 400 q 223 386 237 386 l 74 386 q 64 362 64 371 q 72 348 64 354 l 223 348 q 237 334 237 348 l 237 256 q 223 242 237 242 l 74 242 q 64 221 64 229 q 72 204 64 212 l 223 204 q 237 190 237 204 l 237 8 q 301 -4 267 -4 q 365 8 334 -4 l 365 190 q 378 204 365 204 l 525 204 "},"R":{"x_min":37,"x_max":506.96875,"ha":545,"o":"m 506 0 q 436 -18 477 -18 q 351 0 395 -18 l 282 468 q 234 477 253 477 q 192 468 215 477 l 192 0 q 114 -13 152 -13 q 37 0 77 -13 l 37 862 l 383 862 q 502 803 502 862 l 502 580 q 475 527 502 552 l 445 505 q 390 491 422 491 q 368 493 380 491 q 426 465 384 487 q 443 425 439 458 l 506 0 m 347 552 l 347 791 q 271 804 304 804 q 192 791 239 804 l 192 552 q 264 542 231 542 q 347 552 295 542 "},"ť":{"x_min":23,"x_max":816,"ha":840,"o":"m 683 78 q 568 -12 594 3 q 554 -11 560 -16 q 417 112 522 13 q 263 -12 299 9 q 248 -11 255 -16 q 119 101 208 19 q 23 201 23 189 l 23 856 q 111 886 23 886 q 202 856 202 886 l 202 251 q 261 182 223 203 q 328 252 297 208 l 328 856 q 370 881 328 871 q 424 888 401 888 q 473 881 445 888 q 511 856 511 872 l 511 246 q 567 182 532 202 q 633 252 603 208 l 633 856 q 675 881 633 872 q 730 888 708 888 q 779 881 751 888 q 816 856 816 872 l 816 203 q 683 78 816 189 m 666 100 q 789 209 755 175 l 789 848 q 730 861 763 861 q 660 847 695 861 l 660 248 q 624 197 660 238 q 567 154 585 154 q 563 154 564 154 q 513 192 538 166 q 484 243 484 222 l 484 848 q 424 861 457 861 q 355 847 390 861 l 355 248 q 315 194 355 234 q 261 154 276 154 q 257 154 259 154 q 206 194 233 165 q 175 248 175 226 l 175 847 q 111 858 145 858 q 50 847 77 858 l 50 207 q 257 16 200 64 q 409 141 294 42 q 427 141 419 149 q 563 17 524 49 q 666 100 588 34 "},"Ľ":{"x_min":23,"x_max":625,"ha":637,"o":"m 608 279 q 598 275 605 276 l 514 275 l 514 0 q 472 -26 514 -16 q 419 -35 441 -35 q 370 -26 399 -35 q 333 0 333 -16 l 333 275 l 165 275 q 23 347 23 275 l 23 862 q 63 891 23 879 q 116 902 96 902 q 166 891 135 902 q 205 861 205 879 l 205 372 l 333 372 l 333 751 q 370 783 333 768 q 421 796 400 796 q 474 784 444 796 q 514 751 514 769 l 514 372 l 598 372 q 618 351 610 372 q 625 320 625 335 q 608 279 625 296 m 592 302 q 598 320 598 310 q 590 345 598 332 l 500 345 q 487 358 487 345 l 487 745 q 421 769 457 769 q 360 745 387 769 l 360 358 q 346 345 360 345 l 191 345 q 178 358 178 345 l 178 855 q 116 875 152 875 q 50 854 79 875 l 50 347 q 165 302 50 302 l 346 302 q 360 288 360 302 l 360 7 q 419 -8 385 -8 q 487 8 455 -8 l 487 288 q 500 302 487 302 l 592 302 "},"Ż":{"x_min":24,"x_max":203,"ha":227,"o":"m 108 -26 q 24 0 24 -26 l 24 857 q 59 881 24 873 q 106 888 83 888 q 160 881 131 888 q 203 857 203 873 l 203 0 q 108 -26 203 -26 m 108 1 q 176 10 142 1 l 176 848 q 106 861 141 861 q 51 850 74 861 l 51 9 q 108 1 76 1 "},"o":{"x_min":37,"x_max":497,"ha":534,"o":"m 497 76 q 464 17 497 38 q 396 0 437 0 l 142 0 q 37 75 37 0 l 37 527 q 158 595 37 595 l 378 595 q 497 531 497 595 l 497 76 m 342 66 l 342 526 q 263 543 295 543 q 189 526 231 543 l 189 66 q 265 52 229 52 q 342 66 297 52 "},"5":{"x_min":37,"x_max":512.40625,"ha":550,"o":"m 512 827 q 502 793 512 808 l 192 793 l 192 573 l 381 552 q 502 482 502 538 l 502 64 q 379 0 502 0 l 192 0 q 37 76 37 0 l 37 120 q 109 144 68 144 q 192 120 151 144 l 192 68 q 266 50 235 50 q 347 68 298 50 l 347 463 l 37 505 l 37 862 l 502 862 q 512 827 512 846 "},"Ѕ":{"x_min":37,"x_max":519,"ha":556,"o":"m 383 1056 l 382 1055 l 315 930 q 262 903 302 907 l 201 903 q 166 929 166 902 q 169 941 166 935 l 237 1065 q 289 1093 249 1088 l 349 1095 q 385 1066 385 1095 q 383 1056 385 1060 m 194 928 q 244 928 205 927 q 290 943 282 928 l 359 1066 q 329 1068 356 1067 q 308 1068 321 1068 q 261 1052 269 1067 l 194 928 m 506 -7 q 495 -14 502 -14 l 171 -14 q 37 57 37 -14 l 37 805 q 165 876 37 876 l 494 876 q 516 824 516 876 q 494 779 516 779 l 219 779 l 219 566 l 431 566 q 456 517 456 566 q 431 471 456 471 l 219 471 l 219 82 l 495 82 q 519 34 519 82 q 506 -7 519 10 m 487 13 q 492 34 492 22 q 487 55 492 45 l 205 55 q 192 69 192 55 l 192 484 q 205 498 192 498 l 424 498 q 428 516 428 507 q 423 538 428 527 l 205 538 q 192 552 192 538 l 192 792 q 205 806 192 806 l 485 806 q 489 824 489 814 q 485 848 489 836 l 165 848 q 64 804 64 848 l 64 57 q 171 13 64 13 l 487 13 "},"õ":{"x_min":51,"x_max":511,"ha":562,"o":"m 492 714 q 434 696 461 696 q 390 714 408 696 l 390 775 q 357 792 385 776 q 342 783 354 792 q 326 775 329 775 l 326 766 l 326 766 l 326 745 q 207 682 326 682 l 182 682 q 60 750 60 682 l 60 818 q 109 831 84 831 q 160 818 131 831 l 160 751 q 190 734 185 734 q 223 751 204 741 l 223 766 l 223 766 l 223 776 q 270 831 223 814 q 349 844 305 844 l 374 844 q 492 780 492 844 l 492 714 m 511 76 q 478 17 511 38 q 410 0 451 0 l 156 0 q 51 75 51 0 l 51 527 q 172 595 51 595 l 392 595 q 511 531 511 595 l 511 76 m 356 66 l 356 526 q 277 543 309 543 q 203 526 245 543 l 203 66 q 279 52 243 52 q 356 66 311 52 "},",":{"x_min":38,"x_max":210,"ha":248,"o":"m 210 -86 q 189 -107 210 -101 l 102 -133 q 82 -113 82 -139 l 82 -99 q 103 -78 82 -85 l 146 -64 q 152 -33 152 -48 q 146 -6 152 -18 l 82 -6 q 38 46 38 -6 l 38 54 q 82 107 38 107 l 164 107 q 210 54 210 107 l 210 -65 q 210 -72 210 -69 l 210 -86 "},"d":{"x_min":37,"x_max":495,"ha":532,"o":"m 495 0 q 419 -11 450 -11 q 342 0 388 -11 l 342 38 q 336 35 340 37 q 230 0 253 0 l 158 0 q 37 56 37 0 l 37 530 q 142 595 37 595 l 248 595 q 342 553 266 595 l 342 863 q 424 876 393 876 q 495 863 458 876 l 495 0 m 342 111 l 342 486 q 238 533 297 533 q 189 528 217 533 l 189 69 q 217 67 201 67 q 342 111 325 67 "},"\"":{"x_min":37,"x_max":342,"ha":380,"o":"m 342 655 q 311 635 342 635 l 251 635 q 221 655 221 635 l 221 841 q 251 862 221 862 l 311 862 q 342 841 342 862 l 342 655 m 158 655 q 127 635 158 635 l 67 635 q 37 655 37 635 l 37 841 q 67 862 37 862 l 127 862 q 158 841 158 862 l 158 655 "},"˙":{"x_min":23,"x_max":509,"ha":533,"o":"m 349 -288 l 59 -288 q 32 -235 32 -288 q 38 -198 32 -218 q 59 -172 46 -172 l 95 -172 q 134 -172 108 -172 q 173 -172 160 -172 q 328 -116 328 -172 l 328 18 q 248 -14 267 -14 l 141 -14 q 23 64 23 -14 l 23 595 q 100 636 23 636 q 202 594 202 636 l 202 77 q 238 75 222 75 q 328 114 289 75 l 328 598 q 366 622 328 613 q 417 629 396 629 q 469 622 441 629 q 509 598 509 614 l 509 -159 q 349 -288 509 -288 m 349 -261 q 482 -159 482 -261 l 482 589 q 417 602 453 602 q 355 589 382 602 l 355 109 q 350 99 353 102 q 238 48 303 48 q 175 67 175 48 l 175 593 q 100 609 163 609 q 50 596 50 609 l 50 63 q 141 13 50 13 l 248 13 q 296 33 258 13 q 344 54 334 54 q 355 40 355 54 l 355 -117 q 173 -199 355 -199 q 134 -199 160 -199 q 95 -199 108 -199 l 67 -199 q 58 -235 58 -218 q 65 -261 58 -251 l 349 -261 "},"ê":{"x_min":51,"x_max":511,"ha":562,"o":"m 446 695 q 411 674 444 674 q 331 695 381 674 l 282 754 l 231 692 q 160 672 190 672 q 113 692 131 672 l 215 823 q 280 847 244 847 q 348 823 318 847 l 446 695 m 511 49 q 407 0 511 0 l 154 0 q 51 45 51 0 l 51 531 q 164 595 51 595 l 389 595 q 511 531 511 595 l 511 345 l 203 245 l 203 66 q 277 56 245 56 q 356 66 309 56 l 356 134 q 432 152 389 152 q 511 135 474 152 l 511 49 m 356 386 l 356 527 q 283 538 316 538 q 203 527 251 538 l 203 333 l 356 386 "},"„":{"x_min":36.359375,"x_max":382.1875,"ha":420,"o":"m 382 74 q 380 62 382 68 l 374 30 q 374 28 374 29 l 357 -58 q 357 -64 358 -62 l 354 -78 q 330 -99 351 -92 l 237 -125 q 223 -120 228 -127 q 221 -104 219 -114 l 224 -90 q 247 -71 226 -77 l 293 -57 q 306 -11 306 -32 q 305 2 306 -4 l 273 2 q 237 42 237 2 q 238 54 237 48 l 240 62 q 295 115 253 115 l 345 115 q 382 74 382 115 m 197 74 q 196 62 197 70 l 190 30 q 189 28 189 29 l 173 -57 q 173 -63 174 -61 l 170 -78 q 146 -98 167 -92 l 53 -125 q 39 -120 43 -127 q 37 -104 34 -113 l 39 -90 q 63 -71 42 -77 l 109 -57 q 123 -11 123 -32 q 121 2 123 -4 l 89 2 q 53 42 53 2 q 54 54 53 46 l 56 62 q 110 115 64 115 l 161 115 q 197 74 197 115 "},"ľ":{"x_min":23,"x_max":526,"ha":550,"o":"m 513 785 q 502 779 509 779 l 205 779 l 205 584 l 382 565 q 515 482 515 550 l 515 64 q 378 -14 515 -14 l 191 -14 q 23 76 23 -14 l 23 120 q 60 149 23 137 q 108 158 88 158 q 163 149 131 158 q 205 120 205 137 l 205 77 q 266 63 240 63 q 333 77 292 63 l 333 451 l 34 491 q 23 504 23 492 l 23 862 q 36 876 23 876 l 502 876 q 526 827 526 876 q 513 785 526 804 m 494 806 q 499 827 499 816 q 494 849 499 839 l 50 849 l 50 517 l 347 476 q 360 463 360 475 l 360 67 q 319 43 360 53 q 266 36 289 36 q 216 43 245 36 q 178 67 178 53 l 178 112 q 108 131 144 131 q 50 113 75 131 l 50 76 q 191 13 50 13 l 378 13 q 488 63 488 13 l 488 482 q 407 534 488 519 q 258 548 397 536 q 178 573 178 554 l 178 792 q 191 806 178 806 l 494 806 "},"δ":{"x_min":37,"x_max":411,"ha":449,"o":"m 279 666 l 279 684 q 292 698 279 698 l 397 698 q 411 684 411 698 l 411 358 q 397 345 411 345 l 292 345 q 279 358 279 345 l 279 377 q 199 345 217 345 l 155 345 q 37 422 37 345 l 37 627 q 172 698 37 698 l 181 698 q 279 666 204 698 m 306 372 l 384 372 l 384 671 l 306 671 l 306 645 q 295 632 306 632 q 282 636 290 632 q 181 671 201 671 l 172 671 q 64 627 64 671 l 64 422 q 155 372 64 372 l 199 372 q 247 392 209 372 q 295 413 285 413 q 306 399 306 413 l 306 372 m 279 570 q 167 604 263 604 q 153 603 159 604 l 153 435 q 189 433 173 433 q 279 472 239 433 l 279 570 m 306 573 l 306 467 q 301 457 304 460 q 189 406 254 406 q 126 425 126 406 l 126 616 q 167 631 126 631 q 304 577 289 631 l 306 573 "},"Â":{"x_min":51,"x_max":516,"ha":567,"o":"m 450 931 q 415 909 447 909 q 335 931 385 909 l 285 990 l 235 927 q 165 908 194 908 q 116 927 135 908 l 218 1058 q 284 1082 247 1082 q 351 1058 322 1082 l 450 931 m 516 0 q 440 -20 484 -20 q 361 0 398 -20 l 361 462 q 278 477 310 477 q 206 462 243 477 l 206 0 q 130 -18 141 -18 q 51 0 97 -18 l 51 783 q 202 862 51 862 l 360 862 q 516 783 516 862 l 516 0 m 361 549 l 361 793 q 276 806 307 806 q 206 793 242 806 l 206 549 q 278 535 243 535 q 361 549 311 535 "},"Į":{"x_min":23.734375,"x_max":1057.265625,"ha":1080,"o":"m 943 -16 q 1057 71 1057 -16 l 1057 354 q 925 430 1057 430 l 763 430 q 627 348 627 430 l 627 70 q 747 -16 627 -16 l 943 -16 m 943 9 l 747 9 q 655 70 655 9 l 655 348 q 763 404 655 404 l 925 404 q 1030 354 1030 404 l 1030 71 q 943 9 1030 9 m 354 -5 l 905 855 q 902 872 912 866 q 825 897 874 897 q 771 890 807 897 q 722 869 727 882 l 170 6 q 167 0 167 3 q 170 -6 167 -3 q 248 -40 197 -40 q 305 -30 270 -40 q 354 -5 348 -18 m 333 9 q 248 -12 288 -12 q 198 1 216 -12 l 743 851 q 825 869 784 869 q 876 859 858 869 l 333 9 m 339 427 q 453 518 453 427 l 453 798 q 320 876 453 876 l 158 876 q 23 794 23 876 l 23 516 q 143 427 23 427 l 339 427 m 339 455 l 143 455 q 51 516 51 455 l 51 794 q 158 848 51 848 l 320 848 q 425 798 425 848 l 425 518 q 339 455 425 455 m 838 351 q 874 339 851 347 l 874 71 l 841 61 q 808 71 834 62 l 808 339 q 838 351 829 345 m 901 347 q 842 377 901 362 l 838 377 q 805 368 826 377 q 780 347 780 356 l 780 62 q 806 42 780 51 q 841 34 828 34 q 848 35 845 34 l 858 38 q 901 62 901 50 l 901 347 m 234 796 q 269 783 248 791 l 269 518 q 236 507 255 514 q 202 518 229 508 l 202 783 q 234 796 225 792 m 297 792 q 238 823 297 808 l 234 823 q 201 812 225 823 q 174 792 174 800 l 174 508 q 200 488 174 499 q 236 479 224 479 q 244 482 238 480 l 254 484 q 297 508 297 496 l 297 792 "},"ω":{"x_min":37,"x_max":528,"ha":566,"o":"m 390 604 l 309 604 q 251 669 251 604 l 251 678 q 309 744 251 744 l 390 744 q 449 678 449 744 l 449 669 q 390 604 449 604 m 390 631 q 422 669 422 631 l 422 678 q 390 717 422 717 l 309 717 q 278 678 278 717 l 278 669 q 309 631 278 631 l 390 631 m 462 -136 q 360 -147 429 -147 l 200 -147 q 37 -56 37 -147 l 37 224 q 163 292 37 292 q 174 292 168 292 q 261 321 220 292 l 261 533 q 348 560 261 560 q 438 533 438 560 l 438 318 q 399 218 438 258 q 301 178 361 178 l 281 178 q 281 178 275 178 q 219 160 231 178 l 219 -54 q 283 -67 253 -67 q 347 -54 311 -67 l 347 -13 q 438 15 347 15 q 528 -13 528 15 l 528 -56 q 462 -136 528 -116 m 454 -111 q 501 -56 501 -97 l 501 -22 q 438 -12 473 -12 q 374 -22 403 -12 l 374 -64 q 334 -87 374 -79 q 283 -94 307 -94 q 231 -87 259 -94 q 192 -64 192 -79 l 192 164 q 281 205 192 205 q 301 205 291 205 q 379 238 348 206 q 411 318 411 271 l 411 524 q 348 533 381 533 q 288 524 315 533 l 288 314 q 237 277 288 293 q 172 264 197 264 q 163 265 167 265 q 64 225 64 265 l 64 -56 q 200 -120 64 -120 l 360 -120 q 454 -111 425 -120 "},"Ţ":{"x_min":23,"x_max":727,"ha":751,"o":"m 713 784 q 702 779 709 779 l 467 779 l 467 0 q 370 -28 467 -28 q 283 0 283 -28 l 283 779 l 47 779 q 23 827 23 779 q 47 876 23 876 l 702 876 q 727 825 727 876 q 713 784 727 802 m 695 806 q 700 825 700 814 q 694 849 700 838 l 54 849 q 50 827 50 839 q 55 806 50 816 l 296 806 q 310 792 310 806 l 310 9 q 370 -1 336 -1 q 440 9 406 -1 l 440 792 q 453 806 440 806 l 695 806 "},"Í":{"x_min":51,"x_max":345,"ha":395,"o":"m 293 1066 q 292 1061 293 1063 l 224 937 q 183 917 213 918 l 123 914 q 101 929 101 914 q 103 934 101 932 l 170 1058 q 211 1080 181 1079 l 271 1081 q 293 1066 293 1081 m 345 31 q 331 0 345 12 l 63 0 q 51 37 51 20 q 64 69 51 55 l 123 69 l 123 792 l 63 792 q 53 822 53 803 q 63 862 53 841 l 331 862 q 340 827 340 847 q 331 792 340 808 l 278 792 l 278 69 l 331 69 q 345 31 345 50 "},"´":{"x_min":51,"x_max":274.125,"ha":325,"o":"m 274 848 q 271 843 273 845 l 173 656 q 132 636 163 637 l 72 634 q 51 648 51 633 q 52 653 51 651 l 151 840 q 192 860 161 859 l 252 863 q 274 848 274 863 "},"Ú":{"x_min":51,"x_max":516,"ha":567,"o":"m 372 1066 q 370 1061 371 1063 l 303 937 q 261 917 292 918 l 202 914 q 180 929 180 914 q 181 934 180 932 l 249 1058 q 290 1080 260 1079 l 350 1081 q 372 1066 372 1081 m 516 76 q 361 0 516 0 l 202 0 q 51 76 51 0 l 51 862 q 122 877 81 877 q 206 862 163 877 l 206 71 q 278 60 243 60 q 360 71 311 60 l 360 862 q 441 879 400 879 q 516 862 481 879 l 516 76 "},"Ŷ":{"x_min":23,"x_max":508,"ha":532,"o":"m 416 -26 q 328 1 328 -26 l 328 517 q 291 520 307 520 q 202 481 241 520 l 202 1 q 107 -24 202 -24 q 23 1 23 -24 l 23 863 q 113 890 23 890 q 202 863 202 890 l 202 575 q 282 609 263 609 l 388 609 q 508 531 508 609 l 508 1 q 416 -26 508 -26 m 416 0 q 481 10 439 0 l 481 531 q 388 582 481 582 l 282 582 q 234 560 272 582 q 186 539 196 539 q 175 553 175 539 l 175 854 q 113 863 147 863 q 50 854 78 863 l 50 10 q 107 2 75 2 q 175 10 141 2 l 175 486 q 179 495 176 492 q 291 547 226 547 q 355 528 355 547 l 355 10 q 416 0 383 0 "},"ŝ":{"x_min":24,"x_max":516,"ha":540,"o":"m 347 -14 l 326 -14 l 326 -134 q 272 -160 326 -157 l 270 -161 q 232 -154 255 -161 q 206 -133 206 -145 l 206 -14 l 187 -14 q 24 76 24 -14 l 24 785 q 188 876 24 876 l 347 876 q 516 785 516 876 l 516 76 q 347 -14 516 -14 m 347 13 q 489 76 489 13 l 489 785 q 347 849 489 849 l 188 849 q 51 785 51 849 l 51 76 q 187 13 51 13 l 219 13 q 233 0 233 13 l 233 -123 q 269 -132 262 -132 q 299 -124 276 -131 l 296 -95 q 294 -46 294 -57 q 312 13 294 13 l 347 13 m 258 278 l 268 290 q 304 280 286 285 q 327 261 327 271 l 326 75 l 334 78 l 334 783 q 267 798 293 798 q 206 783 238 798 l 206 261 q 225 278 206 271 q 256 288 234 282 q 258 278 259 283 m 265 263 l 257 260 q 233 251 251 258 l 233 59 q 217 46 233 46 q 193 53 208 46 q 179 69 179 60 l 179 792 q 217 817 179 807 q 267 825 246 825 q 320 816 287 825 q 361 792 361 806 l 361 69 q 316 44 361 55 q 303 46 308 42 q 299 58 299 50 l 300 251 l 265 263 "},"Ý":{"x_min":51,"x_max":517,"ha":568,"o":"m 372 1066 q 370 1061 371 1063 l 303 937 q 261 917 292 918 l 202 914 q 180 929 180 914 q 181 934 180 932 l 249 1058 q 290 1080 260 1079 l 350 1081 q 372 1066 372 1081 m 517 504 q 362 427 517 428 l 362 0 q 285 -18 325 -18 q 206 0 242 -18 l 206 427 q 51 504 51 427 l 51 862 q 135 877 94 877 q 206 862 175 877 l 206 505 q 283 483 248 483 q 362 505 317 483 l 362 862 q 433 875 391 875 q 517 862 475 875 l 517 504 "},"И":{"x_min":37,"x_max":529,"ha":567,"o":"m 414 896 q 366 904 397 896 q 324 922 331 912 l 286 969 q 240 916 274 948 q 164 896 197 896 q 127 904 147 896 q 102 928 102 914 q 105 935 102 932 l 209 1069 q 284 1096 242 1096 q 359 1069 327 1096 l 361 1066 l 460 939 q 462 929 462 931 q 414 896 460 896 m 414 923 q 435 927 430 923 l 341 1049 q 284 1069 316 1069 q 227 1049 253 1069 l 135 929 q 165 923 147 923 q 226 939 190 923 q 285 1004 279 1004 q 342 941 292 1004 q 414 923 388 923 m 360 -14 l 201 -14 q 37 76 37 -14 l 37 861 q 121 890 37 890 q 219 861 219 890 l 219 82 q 278 74 249 74 q 347 82 306 74 l 347 861 q 387 885 347 877 q 441 892 415 892 q 491 885 465 892 q 529 861 529 877 l 529 76 q 360 -14 529 -14 m 360 13 q 502 76 502 13 l 502 852 q 441 865 473 865 q 374 852 407 865 l 374 72 q 278 47 374 47 q 192 72 192 47 l 192 852 q 121 863 156 863 q 64 853 89 863 l 64 76 q 201 13 64 13 l 360 13 "},"Љ":{"x_min":37,"x_max":358,"ha":395,"o":"m 304 1056 l 304 1054 l 236 930 q 184 903 223 907 l 123 903 q 87 929 87 902 l 87 932 q 89 939 88 936 l 90 941 l 158 1065 q 209 1093 171 1088 l 270 1095 q 306 1066 306 1095 q 304 1056 306 1060 m 115 928 q 165 928 126 927 q 211 943 203 928 l 279 1066 q 250 1068 277 1067 q 229 1068 242 1068 q 183 1052 191 1067 l 115 928 m 340 -9 q 331 -14 338 -12 l 63 -14 q 43 6 51 -14 q 37 37 37 23 q 43 65 37 51 q 63 83 51 83 l 108 83 l 108 779 l 63 779 q 39 823 39 779 q 63 876 39 876 l 331 876 q 353 827 353 876 q 331 779 353 779 l 291 779 l 291 83 l 331 83 q 351 62 343 83 q 358 31 358 46 q 340 -9 358 7 m 324 13 q 330 31 330 20 q 323 56 330 42 l 277 56 q 264 69 264 56 l 264 792 q 277 806 264 806 l 322 806 q 326 827 326 816 q 322 849 326 839 l 71 849 q 66 823 66 835 q 70 806 66 812 l 121 806 q 135 792 135 806 l 135 69 q 121 56 135 56 l 69 56 q 64 37 64 47 q 70 13 64 26 l 324 13 "},"Ω":{"x_min":37,"x_max":530,"ha":568,"o":"m 386 930 l 335 930 q 295 994 295 930 l 295 1003 q 335 1068 295 1068 l 386 1068 q 428 1003 428 1068 l 428 994 q 386 930 428 930 m 386 957 q 401 994 401 957 l 401 1003 q 386 1041 401 1041 l 335 1041 q 322 1003 322 1041 l 322 994 q 335 957 322 957 l 386 957 m 233 930 l 182 930 q 142 994 142 930 l 142 1003 q 182 1068 142 1068 l 233 1068 q 275 1003 275 1068 l 275 994 q 233 930 275 930 m 233 957 q 248 994 248 957 l 248 1003 q 233 1041 248 1041 l 182 1041 q 169 1003 169 1041 l 169 994 q 182 957 169 957 l 233 957 m 374 414 l 374 0 q 335 -24 374 -14 q 284 -31 307 -31 q 231 -24 262 -31 q 192 0 192 -15 l 192 414 q 37 504 37 417 l 37 861 q 135 890 37 890 q 219 861 219 890 l 219 513 q 282 497 254 497 q 347 513 310 497 l 347 861 q 432 888 347 888 q 530 861 530 888 l 530 504 q 374 414 530 418 m 361 441 q 502 504 502 442 l 502 851 q 431 861 467 861 q 374 852 399 861 l 374 505 q 334 478 374 490 q 282 470 304 470 q 231 478 261 470 q 192 505 192 490 l 192 853 q 135 863 166 863 q 64 851 100 863 l 64 504 q 205 440 64 440 q 219 427 219 440 l 219 8 q 284 -4 249 -4 q 347 8 316 -4 l 347 427 q 361 441 347 441 "},"П":{"x_min":37,"x_max":522,"ha":559,"o":"m 411 661 q 363 669 393 661 q 320 687 328 677 l 281 733 q 237 681 270 712 q 160 661 192 661 q 123 670 146 661 q 98 692 98 680 q 102 700 98 696 l 205 834 q 280 861 239 861 q 356 834 323 861 l 358 831 l 456 703 q 459 694 459 697 q 411 661 456 661 m 410 688 q 430 692 426 688 l 338 813 q 280 834 312 834 q 224 813 249 834 l 131 694 q 160 688 143 688 q 222 704 186 688 q 281 769 275 769 q 338 706 287 769 q 410 688 384 688 m 342 577 l 342 594 q 430 623 342 623 q 522 594 522 623 l 522 0 q 430 -26 522 -26 q 342 0 342 -26 l 342 18 q 262 -14 280 -14 l 155 -14 q 37 64 37 -14 l 37 538 q 171 609 37 609 l 244 609 q 342 577 267 609 m 430 1 q 495 10 465 1 l 495 585 q 430 596 465 596 q 369 585 396 596 l 369 556 q 344 546 369 536 q 244 582 262 582 l 171 582 q 64 538 64 582 l 64 63 q 155 13 64 13 l 261 13 q 310 33 272 13 q 358 54 347 54 q 369 41 369 54 l 369 9 q 430 1 397 1 m 342 480 q 230 514 326 514 q 216 513 223 514 l 216 77 q 252 75 236 75 q 342 114 303 75 l 342 480 m 369 483 l 369 109 q 364 99 367 102 q 252 48 317 48 q 189 67 189 48 l 189 526 q 231 541 189 541 q 368 488 348 541 l 369 483 "},"Ö":{"x_min":51,"x_max":516,"ha":567,"o":"m 415 995 q 387 944 415 944 l 336 944 q 309 995 309 944 l 309 1004 q 336 1055 309 1055 l 387 1055 q 415 1004 415 1055 l 415 995 m 262 995 q 234 944 262 944 l 183 944 q 156 995 156 944 l 156 1004 q 183 1055 156 1055 l 234 1055 q 262 1004 262 1055 l 262 995 m 516 77 q 361 0 516 0 l 202 0 q 51 77 51 0 l 51 784 q 202 862 51 862 l 361 862 q 516 784 516 862 l 516 77 m 360 69 l 360 792 q 280 811 312 811 q 206 792 245 811 l 206 69 q 282 52 247 52 q 360 69 314 52 "},"z":{"x_min":38,"x_max":524.25,"ha":562,"o":"m 524 37 q 510 0 524 20 l 100 0 q 44 36 44 0 q 54 73 44 52 l 351 527 l 48 527 q 38 558 38 539 q 48 595 38 576 l 461 594 q 508 530 503 589 l 209 69 l 510 69 q 524 37 524 55 "},"™":{"x_min":51,"x_max":802,"ha":853,"o":"m 802 505 q 761 491 783 491 q 712 504 740 491 l 712 758 l 632 635 q 611 626 623 626 q 590 635 599 626 l 509 759 l 509 504 q 464 491 487 491 q 420 503 441 491 l 420 865 q 464 884 442 884 q 512 867 486 884 l 610 711 l 708 869 q 756 880 732 880 q 802 865 779 880 l 802 505 m 386 846 q 376 825 386 835 l 263 825 l 263 503 q 216 495 237 495 q 174 503 195 495 l 174 825 l 60 825 q 51 847 51 836 q 60 869 51 858 l 377 869 q 386 846 386 856 "},"Ř":{"x_min":23,"x_max":528,"ha":552,"o":"m 512 -9 q 502 -14 509 -12 l 157 -14 q 67 13 105 -14 q 23 92 23 43 l 23 861 q 61 887 23 877 q 110 895 89 895 q 163 887 133 895 q 205 861 205 877 l 205 83 l 502 83 q 528 34 528 83 q 512 -9 528 9 m 494 13 q 501 34 501 22 q 495 56 501 46 l 191 56 q 178 69 178 56 l 178 853 q 110 868 144 868 q 50 853 78 868 l 50 92 q 86 32 50 55 q 157 13 117 13 l 494 13 "},"ã":{"x_min":51,"x_max":509,"ha":559,"o":"m 492 714 q 434 696 461 696 q 390 714 408 696 l 390 775 q 357 792 385 776 q 342 783 354 792 q 326 775 329 775 l 326 766 l 326 766 l 326 745 q 207 682 326 682 l 182 682 q 60 750 60 682 l 60 818 q 109 831 84 831 q 160 818 131 831 l 160 751 q 190 734 185 734 q 223 751 204 741 l 223 766 l 223 766 l 223 776 q 270 831 223 814 q 349 844 305 844 l 374 844 q 492 780 492 844 l 492 714 m 509 0 q 431 -13 472 -13 q 356 0 390 -13 l 356 41 q 262 0 280 0 l 156 0 q 51 64 51 0 l 51 538 q 172 595 51 595 l 244 595 q 350 558 278 595 q 356 556 352 558 l 356 594 q 431 609 389 609 q 509 594 472 609 l 509 0 m 356 109 l 356 483 q 231 528 339 528 q 203 526 215 528 l 203 67 q 252 62 231 62 q 356 109 311 62 "},"Ň":{"x_min":23,"x_max":454.3125,"ha":477,"o":"m 64 99 q 56 98 60 98 q 33 114 44 98 q 23 145 23 131 q 112 244 23 206 q 230 286 126 250 l 51 394 q 28 458 28 408 q 63 502 28 502 q 231 423 107 502 l 445 289 q 454 277 454 284 q 444 265 453 269 l 64 99 m 59 127 l 408 279 l 59 473 q 55 458 55 468 q 69 417 55 441 l 266 297 q 277 285 277 290 q 265 273 277 279 l 66 183 q 50 145 50 163 q 59 127 50 133 "},"æ":{"x_min":51,"x_max":816,"ha":867,"o":"m 816 49 q 714 0 816 0 l 510 0 q 431 -13 473 -13 q 356 0 390 -13 l 356 41 q 262 0 280 0 l 156 0 q 51 64 51 0 l 51 538 q 172 595 51 595 l 244 595 q 350 558 278 595 q 356 556 352 558 l 356 594 q 431 609 389 609 q 510 595 473 609 l 695 595 q 816 531 816 595 l 816 345 l 508 245 l 508 66 q 582 56 550 56 q 661 66 614 56 l 661 134 q 737 152 694 152 q 816 135 780 152 l 816 49 m 661 386 l 661 526 q 588 537 621 537 q 508 526 556 537 l 508 333 l 661 386 m 356 109 l 356 483 q 231 528 339 528 q 203 526 215 528 l 203 67 q 252 62 231 62 q 356 109 311 62 "},"É":{"x_min":51,"x_max":505,"ha":556,"o":"m 372 1066 q 370 1061 371 1063 l 303 937 q 261 917 292 918 l 202 914 q 180 929 180 914 q 181 934 180 932 l 249 1058 q 290 1080 260 1079 l 350 1081 q 372 1066 372 1081 m 505 34 q 494 0 505 15 l 171 0 q 51 58 51 0 l 51 805 q 165 862 51 862 l 495 862 q 503 823 503 842 q 495 792 503 806 l 206 792 l 206 551 l 432 551 q 443 516 443 532 q 432 484 443 499 l 206 484 l 206 69 l 494 69 q 505 34 505 54 "},"и":{"x_min":37,"x_max":523,"ha":560,"o":"m 411 661 q 363 669 393 661 q 320 687 328 677 l 281 733 q 237 681 270 712 q 160 661 192 661 q 123 670 146 661 q 98 692 98 680 q 102 700 98 696 l 205 834 q 280 861 239 861 q 356 834 323 861 l 358 831 l 456 703 q 459 694 459 697 q 411 661 456 661 m 410 688 q 430 692 426 688 l 338 813 q 280 834 312 834 q 224 813 249 834 l 131 694 q 160 688 143 688 q 222 704 186 688 q 281 769 275 769 q 338 706 287 769 q 410 688 384 688 m 432 -31 q 341 -4 340 -31 l 341 18 q 262 -14 281 -14 l 155 -14 q 37 64 37 -14 l 37 595 q 114 636 37 636 q 216 594 216 636 l 216 77 q 251 75 236 75 q 341 114 302 75 l 341 598 q 379 622 341 613 q 430 629 409 629 q 483 622 455 629 q 523 598 523 614 l 523 -1 q 485 -24 523 -16 q 432 -31 458 -31 m 432 -4 q 496 7 470 -4 l 496 589 q 430 602 467 602 q 368 589 396 602 l 368 109 q 363 99 366 102 q 251 48 316 48 q 189 67 189 48 l 189 593 q 114 609 177 609 q 64 596 64 609 l 64 63 q 155 13 64 13 l 261 13 q 309 33 271 13 q 357 54 347 54 q 368 40 368 54 l 368 4 q 432 -4 399 -4 "},"ŀ":{"x_min":23,"x_max":708,"ha":732,"o":"m 492 777 l 54 777 q 31 793 40 777 q 23 823 23 808 q 31 854 23 836 q 54 876 41 876 l 659 876 q 708 840 708 876 q 671 736 708 816 l 330 -5 q 270 -32 324 -18 q 200 -45 224 -45 q 157 -31 181 -45 q 129 0 129 -16 q 130 6 129 3 l 482 753 q 492 777 484 759 m 646 748 q 681 840 681 822 q 659 849 681 849 l 60 849 q 50 823 50 836 q 58 804 50 810 l 493 804 q 520 780 520 804 q 505 740 520 765 l 158 1 q 199 -18 176 -18 q 306 10 238 -18 l 646 748 "},"~":{"x_min":37,"x_max":574,"ha":612,"o":"m 574 548 q 516 530 543 530 q 472 548 490 530 l 472 651 q 412 669 424 669 q 355 652 397 669 l 355 602 l 355 601 l 355 580 q 236 517 355 517 l 159 517 q 37 584 37 517 l 37 695 q 87 708 62 708 q 137 695 108 708 l 137 586 q 193 569 178 569 q 253 585 205 569 l 253 601 l 250 601 l 250 653 q 299 708 250 690 q 378 721 334 721 l 455 721 q 574 657 574 721 l 574 548 "},"³":{"x_min":51,"x_max":283,"ha":334,"o":"m 283 463 q 227 432 283 432 l 128 432 q 51 470 51 432 l 51 491 q 88 504 66 504 q 128 491 110 504 l 128 465 q 168 458 154 458 q 206 465 184 458 l 206 674 l 82 674 q 76 690 76 680 q 82 707 76 698 l 206 707 l 206 828 q 163 836 180 836 q 128 828 146 836 l 128 802 q 84 792 105 792 q 51 802 63 792 l 51 824 q 128 863 51 863 l 221 863 q 283 830 283 863 l 283 719 q 245 691 270 698 q 283 666 278 683 l 283 463 "},"¡":{"x_min":51,"x_max":223,"ha":274,"o":"m 223 665 q 178 613 223 613 l 96 613 q 51 665 51 613 l 51 673 q 96 726 51 726 l 178 726 q 223 673 223 726 l 223 665 m 213 -124 q 138 -138 180 -138 q 61 -124 95 -138 l 82 525 q 139 535 118 535 q 191 525 160 535 l 213 -124 "},"[":{"x_min":37,"x_max":394,"ha":432,"o":"m 394 -245 q 379 -277 394 -263 l 37 -277 l 37 936 l 379 936 q 391 905 391 923 q 379 866 391 885 l 192 850 l 192 -192 l 379 -209 q 394 -245 394 -225 "},"ζ":{"x_min":37,"x_max":454,"ha":492,"o":"m 454 169 q 447 158 454 162 q 385 140 420 140 q 315 158 350 140 q 308 170 308 162 l 308 253 l 66 253 q 45 266 54 253 q 37 293 37 280 q 46 325 37 304 q 66 346 56 346 l 399 346 q 435 335 416 348 q 454 304 454 322 l 454 169 m 427 177 l 427 304 q 401 319 416 319 l 74 319 q 64 293 64 297 q 70 280 64 285 l 321 280 q 335 266 335 280 l 335 179 q 385 167 362 167 q 427 177 407 167 "},"К":{"x_min":37,"x_max":530,"ha":568,"o":"m 383 1056 l 382 1055 l 315 930 q 262 903 302 907 l 201 903 q 166 929 166 902 q 169 941 166 935 l 237 1065 q 289 1093 249 1088 l 349 1095 q 385 1066 385 1095 q 383 1056 385 1060 m 194 928 q 244 928 205 927 q 290 943 282 928 l 359 1066 q 329 1068 356 1067 q 308 1068 321 1068 q 261 1052 269 1067 l 194 928 m 375 414 l 375 0 q 336 -24 375 -14 q 284 -31 308 -31 q 232 -24 262 -31 q 192 0 192 -15 l 192 414 q 37 504 37 417 l 37 861 q 135 890 37 890 q 219 861 219 890 l 219 513 q 283 497 254 497 q 348 513 310 497 l 348 861 q 432 888 348 888 q 530 861 530 888 l 530 504 q 375 414 530 418 m 361 441 q 503 504 503 442 l 503 851 q 432 861 467 861 q 375 852 400 861 l 375 505 q 335 478 375 490 q 283 470 304 470 q 231 478 262 470 q 192 505 192 490 l 192 853 q 135 863 166 863 q 64 851 100 863 l 64 504 q 205 440 64 440 q 219 427 219 440 l 219 8 q 284 -4 249 -4 q 348 8 317 -4 l 348 427 q 361 441 348 441 "},"Γ":{"x_min":24,"x_max":516,"ha":540,"o":"m 347 921 q 271 895 314 895 q 195 921 229 895 l 193 923 l 92 1054 q 89 1063 89 1057 q 114 1087 89 1076 q 151 1096 135 1096 q 232 1071 211 1096 l 272 1022 q 316 1072 284 1043 q 401 1096 369 1096 q 449 1061 447 1096 q 447 1051 449 1054 l 347 921 m 328 941 l 422 1062 q 401 1069 418 1069 q 329 1049 375 1069 q 272 986 279 986 q 213 1052 266 986 q 151 1069 176 1069 q 122 1061 133 1069 l 214 941 q 271 922 240 922 q 328 941 303 922 m 351 -14 l 192 -14 q 24 77 24 -14 l 24 121 q 64 145 24 137 q 117 152 93 152 q 167 145 140 152 q 206 121 206 137 l 206 79 q 276 68 249 68 q 334 78 304 68 l 334 429 q 61 520 234 467 q 24 560 24 531 l 24 785 q 188 876 24 876 l 347 876 q 516 784 516 876 l 516 741 q 476 716 516 726 q 425 710 448 710 q 373 716 403 710 q 334 741 334 725 l 334 782 q 267 795 293 795 q 206 783 238 795 l 206 603 l 480 509 q 516 456 516 492 l 516 77 q 351 -14 516 -14 m 351 13 q 489 76 489 13 l 489 456 q 470 483 489 474 l 188 580 q 179 593 179 584 l 179 792 q 217 815 179 807 q 267 822 244 822 q 320 815 291 822 q 361 792 361 807 l 361 749 q 425 737 390 737 q 489 749 458 737 l 489 784 q 347 849 489 849 l 188 849 q 51 785 51 849 l 51 560 q 91 539 51 549 q 145 526 103 536 l 351 452 q 361 439 361 448 l 361 69 q 324 47 361 55 q 276 41 297 41 q 179 69 179 41 l 179 112 q 117 125 149 125 q 51 112 82 125 l 51 77 q 192 13 51 13 l 351 13 "},"ѳ":{"x_min":37,"x_max":687,"ha":725,"o":"m 518 65 l 201 65 q 37 156 37 65 l 37 705 q 201 796 37 796 l 518 796 q 687 705 687 796 l 687 156 q 518 65 687 65 m 518 92 q 660 156 660 92 l 660 705 q 518 769 660 769 l 201 769 q 64 705 64 769 l 64 156 q 201 92 64 92 l 518 92 m 531 703 q 359 718 482 718 q 193 703 235 718 l 193 156 q 360 144 237 144 q 531 157 483 144 l 531 703 m 558 713 l 558 147 q 549 134 558 138 q 360 117 501 117 q 174 135 219 117 q 166 147 166 138 l 166 713 q 174 725 166 721 q 359 745 215 745 q 549 726 500 745 q 558 713 558 722 m 454 450 q 464 425 462 440 l 496 212 q 447 188 499 188 q 391 208 394 188 l 358 434 q 346 436 351 436 q 339 435 342 436 l 339 210 q 286 191 339 191 q 233 210 233 191 l 233 641 q 247 655 233 655 l 420 655 q 494 613 494 655 l 494 501 q 475 464 494 481 l 458 452 l 454 450 m 435 431 q 398 457 398 452 q 415 470 398 474 q 424 469 418 469 q 443 474 435 469 l 457 485 q 466 501 466 493 l 466 613 q 420 627 466 627 l 261 627 l 261 221 q 285 218 273 218 q 311 221 298 218 l 311 445 q 346 463 311 463 q 383 447 381 463 l 416 221 q 447 215 432 215 q 467 219 458 215 l 458 327 q 435 431 450 396 m 388 596 q 364 599 374 599 q 339 596 353 599 l 339 498 q 360 496 350 496 q 388 498 372 496 l 388 596 m 415 606 l 415 486 q 360 468 415 468 q 311 486 311 468 l 311 606 q 364 626 311 626 q 415 606 415 626 "},"%":{"x_min":37,"x_max":1043,"ha":1081,"o":"m 1043 71 q 941 -4 1043 -4 l 746 -4 q 641 71 641 -4 l 641 349 q 763 417 641 417 l 924 417 q 1043 353 1043 417 l 1043 71 m 893 862 l 342 0 q 248 -28 291 -28 q 181 0 203 -28 l 733 862 q 824 884 781 884 q 893 862 870 884 m 438 517 q 337 442 438 442 l 141 442 q 37 517 37 442 l 37 795 q 158 863 37 863 l 320 863 q 438 799 438 863 l 438 517 m 888 62 l 888 347 l 839 364 q 794 347 835 364 l 794 62 q 841 48 833 48 q 888 62 850 50 m 283 507 l 283 793 l 234 810 q 189 793 230 810 l 189 507 q 236 493 228 493 q 283 507 239 493 "},"P":{"x_min":37,"x_max":502,"ha":540,"o":"m 502 501 q 469 462 502 477 q 387 446 459 457 q 192 414 196 446 l 192 0 q 116 -24 158 -24 q 37 0 75 -24 l 37 862 l 383 862 q 502 803 502 862 l 502 501 m 347 516 l 347 791 q 278 813 313 813 q 192 791 245 813 l 192 516 q 270 499 236 499 q 347 516 306 499 "},"_":{"x_min":37,"x_max":563.265625,"ha":600,"o":"m 563 -201 q 553 -234 563 -218 l 47 -234 q 37 -202 37 -222 q 47 -166 37 -183 l 553 -166 q 563 -201 563 -184 "},"ñ":{"x_min":51,"x_max":509,"ha":560,"o":"m 492 714 q 434 696 461 696 q 390 714 408 696 l 390 775 q 357 792 385 776 q 342 783 354 792 q 326 775 329 775 l 326 766 l 326 766 l 326 745 q 207 682 326 682 l 182 682 q 60 750 60 682 l 60 818 q 109 831 84 831 q 160 818 131 831 l 160 751 q 190 734 185 734 q 223 751 204 741 l 223 766 l 223 766 l 223 776 q 270 831 223 814 q 349 844 305 844 l 374 844 q 492 780 492 844 l 492 714 m 509 -2 q 445 -29 509 -29 q 395 -23 421 -29 q 358 -2 358 -15 l 358 525 q 307 531 328 531 q 205 483 249 531 l 205 -5 q 128 -22 171 -22 q 51 -5 85 -22 l 51 594 q 127 611 80 611 q 205 598 167 611 l 205 552 q 297 593 279 593 l 404 593 q 509 528 509 593 l 509 -2 "},"‚":{"x_min":36.359375,"x_max":197.734375,"ha":235,"o":"m 197 74 q 196 62 197 70 l 190 30 q 189 28 189 29 l 173 -57 q 173 -63 174 -61 l 170 -78 q 146 -98 167 -92 l 53 -125 q 39 -120 43 -127 q 37 -104 34 -113 l 39 -90 q 63 -71 42 -77 l 109 -57 q 123 -11 123 -32 q 121 2 123 -4 l 89 2 q 53 42 53 2 q 54 54 53 46 l 56 62 q 110 115 64 115 l 161 115 q 197 74 197 115 "},"Ρ":{"x_min":37,"x_max":496,"ha":534,"o":"m 198 854 q 198 860 198 857 l 198 869 q 249 935 198 913 q 339 951 286 951 l 363 951 q 496 874 496 951 l 496 807 q 465 784 496 794 q 424 776 441 776 q 390 784 410 776 q 366 807 366 794 l 366 859 q 346 870 352 864 q 331 860 339 865 q 329 853 331 856 l 329 838 q 197 762 329 762 l 172 762 q 37 843 37 762 l 37 911 q 64 932 37 925 q 100 938 83 938 q 136 931 116 938 q 164 911 164 923 l 164 853 q 179 842 173 848 q 198 854 186 849 m 225 866 q 225 860 225 863 l 225 844 q 213 831 225 836 q 196 822 198 823 q 180 814 187 814 q 154 826 172 814 q 137 845 137 837 l 137 902 q 100 911 116 911 q 64 902 82 911 l 64 843 q 172 789 64 789 l 197 789 q 302 838 302 789 l 302 860 q 303 864 302 863 q 329 891 302 878 q 347 899 337 899 q 366 890 352 899 q 384 881 380 882 q 393 868 393 878 l 393 813 q 424 803 407 803 q 469 815 445 803 l 469 874 q 363 924 469 924 l 339 924 q 225 869 225 924 l 225 866 "},"Æ":{"x_min":51,"x_max":779,"ha":830,"o":"m 779 34 q 768 0 779 15 l 481 0 q 361 58 361 0 l 361 62 l 361 63 l 361 463 q 278 478 310 478 q 206 463 243 478 l 206 0 q 130 -18 141 -18 q 51 0 97 -18 l 51 783 q 202 862 51 862 l 360 862 q 436 859 410 862 q 476 862 453 862 l 768 862 q 777 823 777 842 q 768 792 777 806 l 517 792 l 517 552 l 706 552 q 716 517 716 533 q 706 485 716 500 l 517 485 l 517 69 l 768 69 q 779 34 779 54 m 361 550 l 361 793 q 276 806 307 806 q 206 793 242 806 l 206 550 q 278 536 243 536 q 361 550 311 536 "},"Ū":{"x_min":23.859375,"x_max":764.375,"ha":787,"o":"m 683 -41 q 627 -31 660 -41 q 577 -7 585 -20 l 26 855 q 29 872 20 864 q 106 897 57 897 q 161 890 129 897 q 209 869 201 881 l 761 7 q 761 -8 767 -1 q 683 -41 734 -41 m 683 -14 q 732 0 714 -14 l 188 851 q 106 870 145 870 q 56 859 75 870 l 599 10 q 683 -14 645 -14 "},"ª":{"x_min":51,"x_max":398,"ha":449,"o":"m 398 358 l 292 358 l 292 399 q 199 358 216 358 l 155 358 q 51 422 51 358 l 51 627 q 172 684 51 684 l 181 684 q 287 648 204 684 q 292 645 289 647 l 292 684 l 398 684 l 398 358 m 292 467 l 292 573 q 167 617 275 617 q 140 615 152 617 l 140 425 q 189 420 168 420 q 292 467 247 420 "},"΅":{"x_min":23,"x_max":588,"ha":612,"o":"m 237 595 q 237 601 237 598 l 237 652 q 288 718 237 696 q 378 734 325 734 l 455 734 q 588 657 588 734 l 588 548 q 558 525 588 535 q 516 517 533 517 q 481 525 500 517 q 458 548 458 534 l 458 642 q 412 655 420 655 q 368 642 401 655 q 368 594 369 598 l 368 580 q 235 503 368 503 l 158 503 q 23 584 23 503 l 23 694 q 50 715 23 708 q 86 721 69 721 q 122 714 102 721 q 150 694 150 706 l 150 595 q 192 582 181 582 q 237 595 201 582 m 264 607 q 265 601 265 604 l 265 585 q 235 564 265 574 q 193 555 208 555 q 152 564 178 555 q 123 585 123 574 l 123 685 q 86 694 102 694 q 50 686 68 694 l 50 584 q 158 530 50 530 l 235 530 q 341 580 341 530 l 341 601 q 342 606 341 604 q 349 664 341 661 q 412 682 394 682 q 454 673 427 682 q 485 651 485 663 l 485 554 q 516 544 498 544 q 560 556 536 544 l 560 657 q 455 707 560 707 l 377 707 q 264 652 264 707 l 264 607 "},"Œ":{"x_min":37,"x_max":801.984375,"ha":840,"o":"m 801 34 q 791 0 801 15 l 468 0 q 411 4 435 0 q 347 0 383 0 l 188 0 q 37 77 37 0 l 37 784 q 188 862 37 862 l 347 862 q 409 857 382 862 q 462 862 431 862 l 791 862 q 799 823 799 842 q 791 792 799 806 l 503 792 l 503 552 l 729 552 q 740 517 740 533 q 729 485 740 500 l 503 485 l 503 69 l 791 69 q 801 34 801 54 m 346 69 l 346 792 q 266 811 298 811 q 192 792 231 811 l 192 69 q 268 52 233 52 q 346 69 300 52 "},"T":{"x_min":37,"x_max":713,"ha":751,"o":"m 713 825 q 702 792 713 806 l 453 792 l 453 0 q 370 -14 412 -14 q 297 0 328 -14 l 297 792 l 47 792 q 37 827 37 808 q 47 862 37 846 l 702 862 q 713 825 713 845 "},"Њ":{"x_min":37,"x_max":397.109375,"ha":435,"o":"m 348 896 q 300 904 332 896 q 258 922 265 912 l 219 969 q 174 916 207 947 q 98 896 131 896 q 61 904 81 896 q 37 928 37 914 q 39 935 37 932 l 143 1069 q 218 1096 176 1096 q 294 1069 261 1096 l 296 1066 l 394 939 q 397 929 397 931 q 348 896 394 896 m 348 923 q 369 927 365 923 l 275 1049 q 218 1069 250 1069 q 161 1049 187 1069 l 70 929 q 99 923 81 923 q 160 939 124 923 q 219 1004 213 1004 q 277 941 225 1004 q 348 923 322 923 m 360 -9 q 350 -14 357 -12 l 83 -14 q 63 6 70 -14 q 57 37 57 22 q 64 65 57 50 q 83 83 72 83 l 128 83 l 128 779 l 82 779 q 59 823 59 779 q 82 876 59 876 l 350 876 q 373 827 373 876 q 350 779 373 779 l 310 779 l 310 83 l 350 83 q 370 62 362 83 q 377 31 377 45 q 360 -9 377 7 m 344 13 q 350 31 350 20 q 343 56 350 42 l 296 56 q 283 69 283 56 l 283 792 q 296 806 283 806 l 341 806 q 346 827 346 816 q 341 849 346 839 l 91 849 q 86 823 86 835 q 89 806 86 812 l 141 806 q 155 792 155 806 l 155 69 q 141 56 155 56 l 89 56 q 84 37 84 47 q 91 13 84 26 l 344 13 "},"š":{"x_min":51,"x_max":492,"ha":544,"o":"m 445 821 l 346 692 q 279 668 317 668 q 212 692 242 668 l 111 823 q 159 843 129 843 q 230 823 189 843 l 280 760 l 329 821 q 410 843 379 843 q 445 821 442 843 m 492 58 q 389 0 492 0 l 149 0 q 51 41 51 0 l 51 125 q 128 144 85 144 q 203 125 170 144 l 203 66 q 277 52 248 52 q 338 66 308 52 l 338 233 l 137 307 q 74 328 114 315 q 51 363 51 339 l 51 552 q 143 595 51 595 l 398 595 q 492 555 492 595 l 492 463 q 422 446 461 446 q 338 463 381 446 l 338 526 q 270 542 299 542 q 203 526 242 542 l 203 389 l 384 321 q 464 296 392 318 q 492 260 492 287 l 492 58 "},"Þ":{"x_min":51,"x_max":542,"ha":593,"o":"m 542 284 q 509 225 542 246 q 441 208 481 208 l 206 208 l 206 0 q 124 -13 165 -13 q 54 0 84 -13 l 54 261 q 51 283 51 271 l 51 630 q 54 648 51 640 l 54 858 q 123 875 81 875 q 206 858 164 875 l 206 698 l 424 698 q 542 634 542 698 l 542 284 m 387 274 l 387 629 q 293 646 340 646 q 206 630 246 646 l 206 273 q 294 260 244 260 q 387 274 343 260 "},"j":{"x_min":-82,"x_max":212,"ha":250,"o":"m 212 718 q 167 666 212 666 l 84 666 q 40 718 40 666 l 40 726 q 84 779 40 779 l 167 779 q 212 726 212 779 l 212 718 m 204 -183 q 153 -258 204 -233 q 58 -277 114 -277 l -68 -277 q -82 -238 -82 -262 q -68 -187 -82 -213 l -32 -187 q 50 -140 50 -187 l 50 595 q 126 612 83 612 q 204 595 169 612 l 204 -183 "},"Σ":{"x_min":37,"x_max":816,"ha":853,"o":"m 762 477 q 726 483 747 477 q 699 504 699 492 l 699 712 l 641 625 q 610 613 628 613 q 579 625 592 613 l 577 627 l 523 710 l 523 504 q 499 483 523 491 q 465 477 480 477 q 431 483 451 477 q 407 504 407 490 l 407 866 q 429 889 407 878 q 464 898 449 898 q 556 836 521 898 q 610 736 562 826 l 698 875 q 757 895 710 895 q 791 888 771 895 q 816 867 816 879 l 816 504 q 794 484 816 492 q 762 477 776 477 m 762 504 q 789 512 776 504 l 789 859 q 757 868 773 868 q 719 857 738 868 l 622 703 q 599 703 610 685 l 502 858 q 464 871 481 871 q 434 860 449 871 l 434 513 q 465 505 448 505 q 496 513 481 505 l 496 758 q 507 773 496 773 q 520 765 515 773 l 599 644 q 610 640 604 640 q 621 644 616 640 l 701 765 q 714 773 706 773 q 726 758 726 773 l 726 513 q 762 504 746 504 m 387 816 q 376 812 384 814 l 276 812 l 276 504 q 215 482 276 482 q 160 504 160 482 l 160 812 l 59 812 q 37 847 37 812 q 60 883 37 883 l 377 883 q 399 847 399 883 q 387 816 399 831 m 369 839 q 372 847 372 843 q 369 856 372 851 l 66 856 q 64 847 64 851 q 66 839 64 843 l 173 839 q 187 825 187 839 l 187 513 q 215 509 200 509 q 249 513 232 509 l 249 825 q 262 839 249 839 l 369 839 "},"1":{"x_min":37,"x_max":372,"ha":401,"o":"m 372 36 q 363 0 372 18 l 63 0 q 53 31 53 12 q 63 71 53 50 l 138 71 l 138 663 l 47 663 q 37 684 37 671 q 47 719 37 695 l 293 862 l 293 71 l 363 71 q 372 36 372 54 "},"›":{"x_min":51,"x_max":306.671875,"ha":357,"o":"m 306 293 l 89 75 q 67 106 79 79 q 57 145 57 131 q 78 194 57 169 l 153 301 l 68 406 q 51 458 51 436 q 65 495 51 469 q 89 526 79 521 l 306 293 "},"<":{"x_min":37,"x_max":439.15625,"ha":455,"o":"m 439 145 q 417 112 439 122 l 37 278 l 38 280 l 417 489 q 434 458 434 481 q 417 406 434 436 l 215 285 l 417 193 q 439 145 439 169 "},"Ц":{"x_min":37,"x_max":524,"ha":562,"o":"m 386 816 l 386 815 l 317 691 q 266 663 304 667 q 205 662 224 663 q 169 690 169 661 l 169 693 q 172 700 171 697 l 173 701 l 240 826 q 292 854 253 849 q 353 855 315 854 q 388 827 388 855 q 386 816 388 821 m 198 689 q 205 689 201 689 l 247 689 q 294 704 285 690 l 361 827 q 353 828 359 828 q 311 828 324 829 q 265 812 272 827 l 198 689 m 407 -14 l 153 -14 q 37 45 37 -14 l 37 532 q 163 609 37 609 l 389 609 q 524 532 524 609 l 524 345 q 514 332 524 335 l 216 235 l 216 77 q 277 70 250 70 q 342 78 303 70 l 342 134 q 380 158 342 149 q 431 165 409 165 q 484 158 453 165 q 524 134 524 149 l 524 49 q 407 -14 524 -14 m 407 13 q 497 49 497 13 l 497 125 q 431 138 466 138 q 369 125 396 138 l 369 67 q 277 43 369 43 q 189 67 189 43 l 189 246 q 198 258 189 255 l 497 356 l 497 532 q 389 582 497 582 l 163 582 q 64 532 64 582 l 64 44 q 153 13 64 13 l 407 13 m 342 516 q 282 524 309 524 q 216 516 256 524 l 216 352 l 342 395 l 342 516 m 369 526 l 369 385 q 359 373 369 376 q 202 320 205 320 q 189 332 189 320 l 189 526 q 282 551 189 551 q 369 526 369 551 "},"t":{"x_min":37,"x_max":345,"ha":346,"o":"m 345 562 q 336 527 345 548 l 193 527 l 193 4 q 108 -25 180 -25 q 37 6 37 -25 l 37 750 q 119 769 77 769 q 193 750 160 769 l 193 593 l 336 593 q 345 562 345 578 "},"¬":{"x_min":51,"x_max":441,"ha":492,"o":"m 441 170 q 386 154 417 154 q 322 170 353 154 l 322 266 l 66 266 q 51 292 51 276 q 66 332 51 302 l 400 332 q 426 324 411 333 q 441 304 441 315 l 441 170 "},"ù":{"x_min":51,"x_max":509,"ha":560,"o":"m 375 690 q 354 677 375 676 l 293 677 q 252 697 263 677 l 184 822 l 183 827 q 205 842 183 842 l 265 840 q 306 819 295 839 l 373 695 q 375 690 375 692 m 509 -1 q 431 -18 478 -18 q 354 -5 392 -18 l 355 41 q 262 0 280 0 l 156 0 q 51 64 51 0 l 51 596 q 115 623 51 623 q 165 617 139 623 q 203 594 203 609 l 203 67 q 252 62 231 62 q 355 109 311 62 l 355 598 q 431 615 388 615 q 509 598 474 615 l 509 -1 "},"Ф":{"x_min":37,"x_max":524,"ha":562,"o":"m 315 -14 q 398 -86 398 -26 l 398 -178 q 361 -247 398 -223 q 283 -269 330 -269 l 202 -269 q 144 -224 144 -269 q 154 -190 144 -207 q 180 -173 165 -173 q 191 -175 186 -173 q 245 -189 229 -189 q 279 -178 249 -187 l 279 -101 q 245 -92 259 -95 l 207 -92 q 194 -78 194 -92 l 194 -14 l 181 -14 q 37 64 37 -14 l 37 531 q 175 609 37 609 l 395 609 q 524 539 524 609 l 524 455 q 482 431 524 440 q 429 425 450 425 q 379 431 408 425 q 342 455 342 440 l 342 516 q 277 527 303 527 q 216 516 250 527 l 216 77 q 279 69 253 69 q 342 77 305 69 l 342 134 q 429 162 342 162 q 524 134 524 162 l 524 66 q 378 -14 524 -14 l 315 -14 m 378 13 q 497 66 497 13 l 497 124 q 429 135 464 135 q 369 125 396 135 l 369 67 q 279 42 369 42 q 189 67 189 42 l 189 526 q 277 554 189 554 q 369 526 369 554 l 369 464 q 429 452 400 452 q 497 464 455 452 l 497 539 q 395 581 497 581 l 175 581 q 64 530 64 581 l 64 63 q 180 13 64 13 l 207 13 q 221 0 221 13 l 221 -65 l 248 -65 q 306 -92 306 -77 l 306 -187 q 262 -212 306 -200 l 252 -214 q 245 -216 248 -216 q 185 -202 225 -216 q 171 -224 171 -204 q 202 -242 171 -242 l 283 -242 q 371 -178 371 -242 l 371 -86 q 316 -43 371 -56 q 262 -24 262 -30 l 262 0 q 275 13 262 13 l 378 13 "},"ï":{"x_min":51,"x_max":309,"ha":360,"o":"m 309 752 q 280 701 309 701 l 230 701 q 203 752 203 701 l 203 761 q 230 812 203 812 l 280 812 q 309 761 309 812 l 309 752 m 156 752 q 128 701 156 701 l 78 701 q 51 752 51 701 l 51 761 q 78 812 51 812 l 128 812 q 156 761 156 812 l 156 752 m 256 595 l 254 0 q 182 -13 215 -13 q 105 0 149 -13 l 105 595 q 179 612 151 612 q 256 595 207 612 "},"ī":{"x_min":24,"x_max":356,"ha":380,"o":"m 312 622 l 252 622 q 209 655 209 622 l 209 842 q 252 876 209 876 l 312 876 q 356 842 356 876 l 356 655 q 312 622 356 622 m 327 651 q 329 655 329 653 l 329 842 q 312 849 329 849 l 252 849 q 236 842 236 849 l 236 655 q 252 649 236 649 l 312 649 q 327 651 323 649 m 128 622 l 67 622 q 24 655 24 622 l 24 842 q 67 876 24 876 l 128 876 q 172 842 172 876 l 172 655 q 128 622 172 622 m 145 655 l 145 842 q 128 849 145 849 l 67 849 q 51 842 51 849 l 51 655 q 67 649 51 649 l 128 649 q 145 655 145 649 "},"Ò":{"x_min":51,"x_max":516,"ha":567,"o":"m 372 929 q 350 914 372 914 l 290 917 q 250 937 261 917 l 182 1061 q 180 1066 180 1063 q 202 1081 180 1081 l 261 1080 q 303 1058 292 1079 l 370 934 q 372 929 372 931 m 516 77 q 361 0 516 0 l 202 0 q 51 77 51 0 l 51 784 q 202 862 51 862 l 361 862 q 516 784 516 862 l 516 77 m 360 69 l 360 792 q 280 811 312 811 q 206 792 245 811 l 206 69 q 282 52 247 52 q 360 69 314 52 "},"О":{"x_min":37,"x_max":522,"ha":559,"o":"m 386 816 l 386 815 l 317 691 q 266 663 304 667 q 205 662 224 663 q 169 690 169 661 l 169 693 q 172 700 171 697 l 173 701 l 240 826 q 292 854 253 849 q 353 855 315 854 q 388 827 388 855 q 386 816 388 821 m 198 689 q 205 689 201 689 l 247 689 q 294 704 285 690 l 361 827 q 353 828 359 828 q 311 828 324 829 q 265 812 272 827 l 198 689 m 342 577 l 342 594 q 430 623 342 623 q 522 594 522 623 l 522 0 q 430 -26 522 -26 q 342 0 342 -26 l 342 18 q 262 -14 280 -14 l 155 -14 q 37 64 37 -14 l 37 538 q 171 609 37 609 l 244 609 q 342 577 267 609 m 430 1 q 495 10 465 1 l 495 585 q 430 596 465 596 q 369 585 396 596 l 369 556 q 344 546 369 536 q 244 582 262 582 l 171 582 q 64 538 64 582 l 64 63 q 155 13 64 13 l 261 13 q 310 33 272 13 q 358 54 347 54 q 369 41 369 54 l 369 9 q 430 1 397 1 m 342 480 q 230 514 326 514 q 216 513 223 514 l 216 77 q 252 75 236 75 q 342 114 303 75 l 342 480 m 369 483 l 369 109 q 364 99 367 102 q 252 48 317 48 q 189 67 189 48 l 189 526 q 231 541 189 541 q 368 488 348 541 l 369 483 "},"ξ":{"x_min":37,"x_max":287.25,"ha":325,"o":"m 283 837 l 185 650 q 133 622 172 626 q 72 621 110 622 q 37 648 37 620 q 39 660 37 655 l 138 846 q 190 874 151 869 l 251 876 q 287 848 287 876 q 283 837 287 843 m 65 648 q 72 648 68 648 l 114 648 q 161 662 153 648 l 261 847 q 231 849 258 849 q 210 849 223 849 q 163 833 171 849 l 65 648 "},"&":{"x_min":37,"x_max":543,"ha":581,"o":"m 543 318 q 531 260 543 285 l 502 260 l 502 76 q 347 0 502 0 l 148 0 q 37 64 37 0 l 37 468 q 112 520 47 505 q 37 575 63 534 l 37 796 q 159 862 37 862 l 321 862 q 476 784 476 862 l 476 741 q 409 722 451 722 q 320 741 366 722 l 320 792 q 262 808 284 808 q 192 792 245 808 l 192 552 l 344 552 q 355 517 355 535 q 344 485 355 498 l 192 485 l 192 68 q 266 52 235 52 q 346 68 295 52 l 347 260 l 250 260 q 238 309 238 271 q 250 363 238 345 l 531 363 q 543 318 543 347 "},"˝":{"x_min":24,"x_max":204,"ha":228,"o":"m 116 -313 q 64 -304 95 -313 q 24 -277 24 -294 l 24 871 q 62 896 24 886 q 114 903 90 903 q 165 896 136 903 q 204 871 204 887 l 204 -277 q 166 -304 204 -294 q 116 -313 137 -313 m 116 -286 q 177 -270 151 -286 l 177 863 q 114 876 149 876 q 51 863 80 876 l 51 -269 q 116 -286 81 -286 "},"I":{"x_min":37,"x_max":331,"ha":368,"o":"m 331 31 q 317 0 331 12 l 49 0 q 37 37 37 20 q 50 69 37 55 l 109 69 l 109 792 l 49 792 q 39 822 39 803 q 49 862 39 841 l 317 862 q 326 827 326 847 q 317 792 326 808 l 264 792 l 264 69 l 317 69 q 331 31 331 50 "},"G":{"x_min":37,"x_max":502,"ha":540,"o":"m 502 77 q 347 0 502 0 l 188 0 q 37 77 37 0 l 37 784 q 188 862 37 862 l 347 862 q 502 784 502 862 l 502 741 q 422 724 466 724 q 346 741 379 724 l 346 791 q 266 808 298 808 q 192 791 231 808 l 192 67 q 261 50 226 50 q 346 67 295 50 l 347 421 l 270 421 q 254 459 254 436 q 270 500 254 479 l 502 500 l 502 77 "},"ΰ":{"x_min":37,"x_max":216,"ha":254,"o":"m 121 438 q 37 463 37 438 l 37 937 q 72 961 37 952 q 119 968 99 968 q 173 961 144 968 q 216 937 216 953 l 216 463 q 121 438 216 438 m 121 465 q 189 473 155 465 l 189 928 q 119 941 154 941 q 64 929 87 941 l 64 473 q 121 465 89 465 m 121 -142 q 37 -116 37 -142 l 37 357 q 72 381 37 372 q 119 388 99 388 q 173 381 144 388 q 216 357 216 373 l 216 -116 q 121 -142 216 -142 m 121 -115 q 189 -106 155 -115 l 189 348 q 119 361 154 361 q 64 349 87 361 l 64 -106 q 121 -115 89 -115 "},"`":{"x_min":37,"x_max":260.125,"ha":298,"o":"m 260 648 q 238 634 260 633 l 178 636 q 137 656 147 637 l 38 842 q 37 848 37 845 q 58 863 37 863 l 118 860 q 159 840 149 859 l 257 653 q 260 648 259 650 "},"·":{"x_min":51,"x_max":223,"ha":274,"o":"m 223 311 q 177 260 223 260 l 95 260 q 51 311 51 260 l 51 320 q 95 372 51 372 l 177 372 q 223 320 223 372 l 223 311 "},"ŏ":{"x_min":23,"x_max":507,"ha":496,"o":"m 492 785 q 481 779 487 779 l 205 779 l 205 566 l 417 566 q 442 520 442 566 q 417 471 442 471 l 205 471 l 205 0 q 167 -24 205 -14 q 118 -31 140 -31 q 64 -24 95 -31 q 23 0 23 -14 l 23 810 q 148 876 23 876 l 481 876 q 507 829 507 876 q 492 785 507 806 m 473 806 q 480 829 480 817 q 474 849 480 840 l 148 849 q 50 811 50 849 l 50 9 q 118 -4 88 -4 q 178 8 149 -4 l 178 484 q 191 498 178 498 l 409 498 q 415 520 415 508 q 410 539 415 530 l 191 539 q 178 552 178 539 l 178 792 q 191 806 178 806 l 473 806 "},"¿":{"x_min":51,"x_max":515,"ha":566,"o":"m 436 669 q 391 617 436 617 l 308 617 q 264 669 264 617 l 264 677 q 308 730 264 730 l 391 730 q 436 677 436 730 l 436 669 m 515 -56 q 458 -124 515 -107 q 361 -134 427 -134 l 200 -134 q 51 -56 51 -134 l 51 224 q 154 278 51 278 l 164 278 q 173 278 167 278 q 275 314 229 278 l 275 533 q 348 546 308 546 q 425 533 389 546 l 425 318 q 398 240 425 276 q 301 191 364 193 q 281 192 291 192 q 205 165 218 192 l 205 -64 q 283 -81 247 -81 q 360 -64 316 -81 l 360 -12 q 438 2 396 2 q 515 -12 482 2 l 515 -56 "},"ý":{"x_min":51,"x_max":509,"ha":560,"o":"m 375 827 q 374 822 375 824 l 306 697 q 265 677 295 677 l 205 677 q 183 691 183 676 l 185 696 l 252 819 q 293 840 263 839 l 354 842 q 375 827 375 842 m 509 -158 q 363 -274 509 -274 l 72 -274 q 59 -234 59 -258 q 72 -184 59 -211 l 109 -184 q 147 -184 122 -184 q 186 -184 173 -184 q 355 -115 355 -184 l 355 41 q 262 0 280 0 l 155 0 q 51 64 51 0 l 51 596 q 115 623 51 623 q 165 617 139 623 q 203 594 203 609 l 203 67 q 252 62 231 62 q 355 109 311 62 l 355 598 q 430 615 388 615 q 509 598 474 615 l 509 -158 "},"Ђ":{"x_min":37,"x_max":792,"ha":830,"o":"m 779 -7 q 767 -14 775 -14 l 482 -14 q 348 58 348 -14 l 348 62 l 355 50 q 346 452 346 63 q 278 464 304 464 q 219 453 249 464 l 219 0 q 208 -12 219 -9 q 129 -31 142 -31 q 76 -23 108 -31 q 37 0 37 -14 l 37 784 q 201 876 37 876 l 360 876 q 435 873 409 876 q 475 876 453 876 l 768 876 q 790 824 790 876 q 768 779 790 779 l 530 779 l 530 566 l 705 566 q 729 517 729 566 q 705 471 729 471 l 530 471 l 530 82 l 767 82 q 792 34 792 82 q 779 -7 792 10 m 368 74 q 375 61 375 69 l 375 57 q 481 13 375 13 l 760 13 q 765 34 765 22 q 760 55 765 45 l 516 55 q 503 69 503 55 l 503 484 q 516 498 503 498 l 698 498 q 702 516 702 507 q 697 538 702 527 l 516 538 q 503 552 503 538 l 503 792 q 516 806 503 806 l 759 806 q 763 824 763 814 q 759 848 763 836 l 475 848 q 437 846 454 848 l 434 846 q 397 847 422 846 q 360 848 372 848 l 201 848 q 64 783 64 848 l 64 9 q 129 -4 101 -4 q 192 10 138 -4 l 192 462 q 229 485 192 477 q 278 491 254 491 q 375 462 375 491 q 368 74 375 78 m 348 783 q 275 792 303 792 q 219 783 248 792 l 219 559 q 278 549 249 549 q 348 559 306 549 l 348 783 m 375 794 l 375 550 q 278 522 375 522 q 192 550 192 522 l 192 794 q 275 819 192 819 q 375 794 375 819 "},"ſ":{"x_min":23,"x_max":508,"ha":532,"o":"m 202 577 q 299 609 277 609 l 372 609 q 508 538 508 609 l 508 64 q 388 -14 508 -14 l 282 -14 q 202 18 263 -14 l 202 -268 q 161 -290 202 -282 q 108 -297 130 -297 q 59 -290 86 -297 q 23 -268 23 -282 l 23 594 q 61 617 23 609 q 112 624 88 624 q 163 617 134 624 q 202 594 202 609 l 202 577 m 388 13 q 481 63 481 13 l 481 538 q 372 582 481 582 l 299 582 q 200 546 281 582 q 175 556 175 535 l 175 585 q 112 597 141 597 q 50 585 86 597 l 50 -259 q 108 -270 83 -270 q 175 -258 132 -270 l 175 41 q 186 54 175 54 q 234 33 196 54 q 282 13 272 13 l 388 13 m 328 513 q 313 514 321 514 q 202 480 217 514 l 202 114 q 291 75 241 75 q 328 77 307 75 l 328 513 m 355 526 l 355 66 q 291 48 355 48 q 179 99 227 48 q 175 109 175 104 l 176 488 q 312 541 195 541 q 355 526 355 541 "},"º":{"x_min":51,"x_max":326,"ha":377,"o":"m 326 580 q 225 505 326 505 l 155 505 q 51 580 51 505 l 51 795 q 172 863 51 863 l 207 863 q 326 799 326 863 l 326 580 m 234 571 l 234 793 l 185 810 q 140 793 181 810 l 140 571 q 187 556 179 556 q 234 571 190 556 "},"ź":{"x_min":23,"x_max":508,"ha":532,"o":"m 417 -28 q 328 1 328 -28 l 328 306 l 319 306 q 246 287 285 306 q 202 233 202 264 l 202 0 q 111 -26 202 -26 q 23 0 23 -26 l 23 863 q 110 890 23 890 q 202 863 202 890 l 202 373 l 204 374 l 205 375 q 280 398 235 399 q 310 439 303 402 l 310 588 q 351 611 310 603 q 405 618 381 618 q 452 611 426 618 q 491 588 491 603 l 491 437 q 467 383 491 404 q 508 319 508 364 l 508 0 q 417 -28 508 -28 m 417 -1 q 481 9 448 -1 l 481 319 q 429 367 481 358 q 416 380 416 370 q 427 393 416 389 q 464 437 464 404 l 464 579 q 405 591 433 591 q 337 578 373 591 l 337 435 q 284 371 326 378 l 281 371 q 221 353 248 371 q 183 328 193 328 q 175 342 175 328 l 175 853 q 110 863 145 863 q 50 853 77 863 l 50 9 q 110 0 76 0 q 175 9 145 0 l 175 233 q 227 307 175 277 q 319 333 272 333 q 355 317 355 333 l 355 9 q 417 -1 385 -1 "},"ű":{"x_min":23,"x_max":510,"ha":534,"o":"m 364 -14 l 166 -14 q 23 64 23 -14 l 23 531 q 161 609 23 609 l 381 609 q 510 539 510 609 l 510 455 q 468 431 510 440 q 415 425 436 425 q 365 431 394 425 q 328 455 328 440 l 328 516 q 263 527 289 527 q 202 516 236 527 l 202 78 q 265 70 239 70 q 328 78 291 70 l 328 135 q 415 163 328 163 q 510 135 510 163 l 510 67 q 364 -14 510 -14 m 364 13 q 483 66 483 13 l 483 125 q 415 136 450 136 q 355 125 382 136 l 355 67 q 265 43 355 43 q 175 67 175 43 l 175 526 q 263 554 175 554 q 355 526 355 554 l 355 464 q 415 452 386 452 q 483 464 441 452 l 483 539 q 381 581 483 581 l 161 581 q 50 530 50 581 l 50 63 q 166 13 50 13 l 364 13 "},"Ё":{"x_min":37,"x_max":529,"ha":567,"o":"m 325 844 l 245 844 q 127 932 127 844 l 127 1022 q 261 1103 127 1103 l 307 1103 q 440 1026 440 1103 l 440 934 q 325 844 440 844 m 325 871 q 413 934 413 871 l 413 1026 q 307 1076 413 1076 l 261 1076 q 154 1022 154 1076 l 154 932 q 245 871 154 871 l 325 871 m 440 -33 q 387 -25 417 -33 q 347 0 347 -15 l 347 452 q 278 464 304 464 q 219 453 249 464 l 219 0 q 208 -12 219 -10 q 129 -31 142 -31 q 76 -23 108 -31 q 37 0 37 -14 l 37 784 q 201 876 37 876 l 360 876 q 529 784 529 876 l 529 0 q 491 -25 529 -16 q 440 -33 461 -33 m 440 -6 q 502 8 475 -6 l 502 784 q 360 849 502 849 l 201 849 q 64 784 64 849 l 64 9 q 129 -4 101 -4 q 192 10 138 -4 l 192 462 q 229 485 192 477 q 278 491 254 491 q 374 462 374 491 l 374 8 q 440 -6 405 -6 m 321 1011 l 285 1024 q 243 1011 274 1024 l 243 934 q 287 923 274 923 q 321 934 291 925 l 321 1011 m 347 1020 l 347 925 q 303 901 347 916 l 294 897 q 286 896 290 896 q 245 904 271 896 q 215 925 215 912 l 215 1020 q 245 1043 215 1032 q 284 1051 269 1051 q 293 1049 288 1051 l 302 1046 q 347 1020 347 1030 m 347 782 q 275 792 302 792 q 219 783 248 792 l 219 559 q 278 549 249 549 q 347 559 305 549 l 347 782 m 374 794 l 374 550 q 278 522 374 522 q 192 550 192 522 l 192 794 q 275 819 192 819 q 374 794 374 819 "},"φ":{"x_min":37,"x_max":906,"ha":944,"o":"m 896 149 q 886 145 893 147 l 851 145 l 851 15 q 796 -10 851 -10 q 747 15 747 -10 l 747 145 l 670 145 q 592 189 592 145 l 592 446 q 645 473 592 473 q 696 446 696 473 l 696 208 l 747 208 l 747 390 q 767 412 747 403 q 798 420 783 420 q 830 412 813 420 q 851 390 851 403 l 851 208 l 886 208 q 906 175 906 208 q 896 149 906 160 m 878 172 l 878 175 q 877 181 878 178 l 837 181 q 824 194 824 181 l 824 384 q 798 393 812 393 q 774 384 784 393 l 774 194 q 760 181 774 181 l 682 181 q 669 194 669 181 l 669 439 q 645 446 658 446 q 619 439 630 446 l 619 189 q 669 172 619 172 l 760 172 q 774 158 774 172 l 774 22 q 796 17 784 17 q 824 23 811 17 l 824 158 q 837 172 824 172 l 878 172 m 201 -7 q 153 -31 193 -20 q 97 -41 118 -41 q 62 -30 72 -41 l 60 -28 q 44 1 44 -4 q 43 7 44 4 l 596 869 q 632 887 601 877 q 673 897 660 897 q 751 871 723 897 q 753 854 759 864 l 201 -7 m 181 10 l 724 859 q 673 870 705 870 q 617 851 659 870 l 72 0 l 80 -11 q 97 -14 84 -14 q 181 10 134 -14 m 225 426 q 213 418 222 418 l 63 418 q 44 447 44 418 q 63 480 44 480 l 87 480 l 87 750 l 55 750 q 37 773 37 750 q 98 842 37 811 q 171 873 99 842 q 183 878 178 878 q 192 862 192 878 l 192 480 l 213 480 q 231 449 231 480 q 225 426 231 438 m 64 777 l 100 777 q 114 763 114 777 l 114 467 q 100 453 114 453 l 72 453 q 70 447 70 450 q 71 445 70 445 l 203 445 l 203 453 l 178 453 q 164 467 164 453 l 164 838 l 66 782 q 64 777 64 779 "},"Ǽ":{"x_min":24,"x_max":493,"ha":517,"o":"m 376 -14 l 135 -14 q 24 41 24 -14 l 24 125 q 62 150 24 141 q 114 158 92 158 q 164 150 135 158 q 203 125 203 140 l 203 76 q 264 66 240 66 q 312 75 288 66 l 312 224 q 55 316 224 255 q 24 363 24 328 l 24 552 q 129 609 24 609 l 385 609 q 493 555 493 609 l 493 464 q 457 439 493 449 q 409 433 432 433 q 354 439 387 433 q 312 464 312 448 l 312 516 q 257 528 281 528 q 203 516 235 528 l 203 398 q 455 309 304 360 q 493 260 493 296 l 493 57 q 376 -14 493 -14 m 377 13 q 466 57 466 13 l 466 259 q 427 291 466 279 q 366 307 399 299 l 184 376 q 176 388 176 380 l 176 526 q 211 548 176 539 q 257 555 238 555 q 303 548 276 555 q 339 526 339 539 l 339 473 q 409 460 375 460 q 466 472 441 460 l 466 555 q 385 582 466 582 l 129 582 q 51 552 51 582 l 51 364 q 65 342 51 349 l 230 289 q 339 234 339 254 l 339 67 q 306 45 339 53 q 264 39 281 39 q 214 45 243 39 q 176 67 176 53 l 176 117 q 114 131 149 131 q 51 117 79 131 l 51 41 q 135 13 51 13 l 377 13 "},"ń":{"x_min":23,"x_max":226,"ha":250,"o":"m 163 459 l 81 459 q 23 524 23 459 l 23 533 q 81 599 23 599 l 163 599 q 222 533 222 599 l 222 524 q 163 459 222 459 m 163 486 q 195 524 195 486 l 195 533 q 163 572 195 572 l 81 572 q 50 533 50 572 l 50 524 q 81 486 50 486 l 163 486 m 196 -119 q 158 -134 185 -123 q 104 -147 126 -147 q 70 -113 70 -147 l 70 -98 q 95 -67 70 -79 q 136 -54 115 -60 q 138 -33 138 -42 q 137 -20 138 -26 l 83 -20 q 25 46 25 -20 l 25 54 q 83 121 25 121 l 166 121 q 226 55 226 121 l 226 -63 q 226 -72 226 -68 l 226 -86 q 196 -119 226 -109 m 97 -120 l 99 -120 l 188 -93 q 199 -86 199 -90 l 199 -72 q 199 -69 199 -71 l 199 -65 l 199 55 q 166 94 199 94 l 83 94 q 52 54 52 94 l 52 46 q 83 7 52 7 l 147 7 q 166 -33 166 7 q 151 -77 166 -67 q 107 -91 138 -81 q 97 -99 97 -94 l 97 -113 q 97 -120 97 -116 "},";":{"x_min":38,"x_max":212,"ha":250,"o":"m 210 524 q 165 472 210 472 l 82 472 q 38 524 38 472 l 38 532 q 82 585 38 585 l 165 585 q 210 532 210 585 l 210 524 m 212 -86 q 191 -107 212 -101 l 104 -133 q 84 -113 84 -139 l 84 -99 q 105 -78 84 -85 l 148 -64 q 154 -33 154 -48 q 148 -6 154 -18 l 84 -6 q 40 46 40 -6 l 40 54 q 84 107 40 107 l 166 107 q 212 54 212 107 l 212 -65 q 212 -72 212 -69 l 212 -86 "},"Г":{"x_min":37,"x_max":529,"ha":567,"o":"m 386 930 l 335 930 q 295 994 295 930 l 295 1003 q 335 1068 295 1068 l 386 1068 q 428 1003 428 1068 l 428 994 q 386 930 428 930 m 386 957 q 401 994 401 957 l 401 1003 q 386 1041 401 1041 l 335 1041 q 322 1003 322 1041 l 322 994 q 335 957 322 957 l 386 957 m 233 930 l 182 930 q 142 994 142 930 l 142 1003 q 182 1068 142 1068 l 233 1068 q 275 1003 275 1068 l 275 994 q 233 930 275 930 m 233 957 q 248 994 248 957 l 248 1003 q 233 1041 248 1041 l 182 1041 q 169 1003 169 1041 l 169 994 q 182 957 169 957 l 233 957 m 360 -14 l 201 -14 q 37 76 37 -14 l 37 785 q 201 876 37 876 l 360 876 q 529 785 529 876 l 529 76 q 360 -14 529 -14 m 360 13 q 502 76 502 13 l 502 785 q 360 849 502 849 l 201 849 q 64 785 64 849 l 64 76 q 201 13 64 13 l 360 13 m 347 783 q 280 798 306 798 q 219 783 251 798 l 219 77 q 281 65 253 65 q 347 78 308 65 l 347 783 m 374 792 l 374 69 q 334 45 374 54 q 281 38 302 38 q 231 44 260 38 q 192 69 192 54 l 192 792 q 230 817 192 807 q 280 825 259 825 q 333 816 300 825 q 374 792 374 806 "},"6":{"x_min":37,"x_max":502,"ha":540,"o":"m 502 77 q 350 0 502 0 l 192 0 q 37 77 37 0 l 37 784 q 188 862 37 862 l 347 862 q 502 784 502 862 l 502 741 q 422 716 463 716 q 346 741 382 716 l 346 794 q 266 817 298 817 q 192 793 231 817 l 192 597 l 400 597 q 502 533 502 597 l 502 77 m 346 67 l 346 516 q 267 541 302 541 q 192 516 234 541 l 192 67 q 266 47 231 47 q 346 67 298 47 "},"Ь":{"x_min":37,"x_max":323,"ha":360,"o":"m 280 687 l 230 687 q 189 751 189 687 l 189 760 q 230 825 189 825 l 280 825 q 323 760 323 825 l 323 751 q 280 687 323 687 m 280 714 q 296 751 296 714 l 296 760 q 280 798 296 798 l 230 798 q 216 760 216 798 l 216 751 q 230 714 216 714 l 280 714 m 128 687 l 77 687 q 37 751 37 687 l 37 760 q 77 825 37 825 l 128 825 q 169 760 169 825 l 169 751 q 128 687 169 687 m 128 714 q 142 751 142 714 l 142 760 q 128 798 142 798 l 77 798 q 64 760 64 798 l 64 751 q 77 714 64 714 l 128 714 m 267 0 q 182 -26 267 -26 q 91 0 91 -26 l 91 594 q 128 618 91 608 q 178 625 155 625 q 230 618 201 625 q 269 594 269 608 l 267 0 m 240 9 l 242 585 q 178 598 202 598 q 118 585 156 598 l 118 10 q 182 1 154 1 q 240 9 208 1 "},"ϊ":{"x_min":37,"x_max":529,"ha":567,"o":"m 349 901 l 289 901 q 236 930 249 906 l 168 1056 q 166 1066 166 1060 q 218 1096 166 1096 q 245 1094 228 1096 l 262 1093 q 315 1065 301 1089 l 382 941 q 385 929 385 935 q 349 901 385 900 m 193 1066 l 260 943 q 307 928 268 928 q 328 928 320 928 q 349 928 357 928 q 357 927 353 928 l 290 1052 q 244 1068 282 1067 q 222 1068 230 1068 q 193 1066 211 1068 m 440 -33 q 387 -25 417 -33 q 347 0 347 -15 l 347 452 q 278 464 304 464 q 219 453 249 464 l 219 0 q 208 -12 219 -10 q 129 -31 142 -31 q 76 -23 108 -31 q 37 0 37 -14 l 37 784 q 201 876 37 876 l 360 876 q 529 784 529 876 l 529 0 q 491 -25 529 -16 q 440 -33 461 -33 m 440 -6 q 502 8 475 -6 l 502 784 q 360 849 502 849 l 201 849 q 64 784 64 849 l 64 9 q 129 -4 101 -4 q 192 10 138 -4 l 192 462 q 229 485 192 477 q 278 491 254 491 q 374 462 374 491 l 374 8 q 440 -6 405 -6 m 347 783 q 275 793 302 793 q 219 784 248 793 l 219 559 q 278 549 249 549 q 347 559 305 549 l 347 783 m 374 794 l 374 550 q 278 522 374 522 q 192 550 192 522 l 192 794 q 275 820 192 820 q 374 794 374 820 "},"ά":{"x_min":37,"x_max":524,"ha":562,"o":"m 343 139 q 429 163 354 163 q 524 135 524 163 l 524 67 q 378 -14 524 -14 l 343 -14 l 343 -60 q 330 -77 343 -60 q 308 -87 323 -87 q 284 -70 295 -87 q 254 -87 271 -87 q 230 -70 242 -87 q 226 -60 227 -67 l 226 -14 l 180 -14 q 37 64 37 -14 l 37 531 q 175 609 37 609 l 226 609 l 226 659 q 231 675 226 659 q 252 690 234 690 q 282 669 268 690 q 288 659 288 665 l 288 609 l 294 609 l 281 594 l 281 659 q 286 675 281 658 q 308 690 289 690 q 330 679 317 690 q 343 659 343 669 l 343 609 l 395 609 q 524 539 524 609 l 524 455 q 482 431 524 440 q 429 425 450 425 q 343 450 355 425 l 343 139 m 310 660 q 308 655 309 657 l 308 595 q 294 582 308 582 l 274 582 q 261 595 261 582 l 261 653 q 255 661 258 657 l 253 655 l 253 595 q 239 582 253 582 l 175 582 q 64 531 64 582 l 64 63 q 180 13 64 13 l 239 13 q 253 0 253 13 l 253 -55 q 258 -65 256 -59 q 253 -61 254 -64 l 253 -60 l 253 -60 q 261 -53 257 -56 l 261 0 q 274 13 261 13 l 294 13 q 308 0 308 13 l 308 -55 q 313 -66 311 -60 q 308 -60 310 -65 l 309 -60 q 315 -53 312 -56 l 315 0 q 329 13 315 13 l 378 13 q 496 66 496 13 l 496 125 q 429 136 464 136 q 369 125 396 136 l 369 67 q 334 48 369 48 q 315 61 315 48 l 315 533 q 332 547 315 547 q 369 527 369 547 l 369 464 q 429 452 400 452 q 496 464 455 452 l 496 539 q 395 582 496 582 l 329 582 q 315 595 315 582 l 315 654 q 310 660 312 657 m 281 526 l 275 526 l 288 540 l 288 56 l 275 69 l 281 69 l 281 526 m 308 539 l 308 56 q 278 42 308 42 l 274 42 q 261 56 261 42 l 261 540 q 274 554 261 554 l 276 554 q 308 539 308 554 m 226 519 l 216 516 l 216 77 l 226 75 l 226 519 m 253 537 l 253 59 q 236 46 253 46 q 199 53 230 46 q 188 67 188 56 l 188 526 q 236 550 188 539 q 253 537 253 553 "},"n":{"x_min":37,"x_max":495,"ha":533,"o":"m 495 -2 q 431 -29 495 -29 q 381 -23 407 -29 q 344 -2 344 -15 l 344 525 q 293 531 314 531 q 191 483 235 531 l 191 -5 q 114 -22 157 -22 q 37 -5 71 -22 l 37 594 q 113 611 66 611 q 191 598 153 611 l 191 552 q 283 593 265 593 l 390 593 q 495 528 495 593 l 495 -2 "},"¤":{"x_min":51,"x_max":601,"ha":652,"o":"m 601 77 q 446 0 601 0 l 287 0 q 136 77 136 0 l 136 395 l 68 395 q 51 426 51 409 q 68 461 51 440 l 136 461 l 136 543 l 101 543 q 85 570 85 554 q 101 609 85 586 l 136 609 l 136 784 q 287 862 136 862 l 446 862 q 601 784 601 862 l 601 740 q 519 726 561 726 q 445 740 478 726 l 445 793 q 373 806 407 806 q 291 793 341 806 l 291 609 l 520 609 q 531 576 531 594 q 520 543 531 557 l 291 543 l 291 461 l 486 461 q 499 427 499 443 q 486 395 499 410 l 291 395 l 291 67 q 371 54 359 54 q 445 67 389 54 l 445 121 q 520 140 479 140 q 601 121 564 140 l 601 77 "},"κ":{"x_min":37,"x_max":376,"ha":414,"o":"m 262 491 l 155 491 q 37 579 37 491 l 37 794 q 171 876 37 876 l 244 876 q 376 798 376 876 l 376 580 q 262 491 376 491 m 262 518 q 349 580 349 518 l 349 798 q 244 849 349 849 l 171 849 q 64 794 64 849 l 64 579 q 155 518 64 518 l 262 518 m 258 784 q 206 797 220 797 q 153 784 186 797 l 153 580 q 208 570 185 570 q 258 580 223 570 l 258 784 m 285 793 l 285 570 q 252 549 285 557 q 208 543 225 543 q 162 549 188 543 q 126 570 126 557 l 126 793 q 160 816 126 807 q 206 824 187 824 q 251 815 223 824 q 285 793 285 806 "},"p":{"x_min":37,"x_max":495,"ha":532,"o":"m 495 64 q 389 0 495 0 l 282 0 q 189 41 264 0 l 189 -268 q 108 -283 137 -283 q 37 -268 78 -283 l 37 595 q 113 610 81 610 q 189 595 146 610 l 189 556 q 195 558 190 557 q 300 595 275 595 l 372 595 q 495 538 495 595 l 495 64 m 342 67 l 342 526 q 313 528 329 528 q 189 483 205 528 l 189 109 q 292 62 233 62 q 342 67 313 62 "},"‡":{"x_min":39,"x_max":429,"ha":466,"o":"m 429 569 q 420 531 429 556 l 315 531 l 314 526 l 312 526 l 312 67 l 419 67 q 429 38 429 54 q 419 1 429 26 l 312 1 l 312 -116 q 228 -146 299 -146 q 157 -113 157 -146 l 157 1 l 54 1 q 39 27 39 11 q 54 67 39 36 l 157 67 l 157 531 l 54 531 q 39 558 39 541 q 54 597 39 567 l 157 597 l 157 750 q 238 769 196 769 q 312 750 279 769 l 312 597 l 420 597 q 429 569 429 585 "},"ň":{"x_min":23,"x_max":514,"ha":538,"o":"m 397 436 l 387 436 q 376 436 383 436 q 290 406 330 436 l 290 193 q 202 168 290 168 q 113 193 113 168 l 113 408 q 151 508 113 468 q 249 549 190 549 l 269 549 q 269 549 275 549 q 333 565 320 549 l 333 783 q 267 795 297 795 q 205 783 240 795 l 205 741 q 113 713 205 713 q 23 741 23 713 l 23 784 q 191 876 23 876 l 350 876 q 514 785 514 876 l 514 502 q 397 436 514 436 m 397 463 q 487 502 487 465 l 487 785 q 350 849 487 849 l 191 849 q 50 784 50 849 l 50 750 q 113 740 77 740 q 178 750 148 740 l 178 792 q 216 815 178 807 q 267 822 243 822 q 319 816 292 822 q 360 792 360 808 l 360 562 q 269 522 360 522 q 249 522 259 522 q 171 487 202 519 q 140 408 140 455 l 140 203 q 202 195 169 195 q 263 203 235 195 l 263 412 q 313 450 263 433 q 378 463 354 463 l 397 463 m 241 -16 l 160 -16 q 102 49 102 -16 l 102 58 q 160 124 102 124 l 241 124 q 300 58 300 124 l 300 49 q 241 -16 300 -16 m 241 11 q 273 49 273 11 l 273 58 q 241 96 273 96 l 160 96 q 129 58 129 96 l 129 49 q 160 11 129 11 l 241 11 "},"Ю":{"x_min":37,"x_max":522.578125,"ha":560,"o":"m 207 760 q 207 766 207 763 l 207 776 q 258 841 207 820 q 348 857 296 857 l 373 857 q 506 780 506 857 l 506 713 q 476 690 506 700 q 434 682 451 682 q 399 690 418 682 q 376 713 376 699 l 376 765 q 356 776 362 771 q 340 767 349 771 q 339 760 340 762 l 339 745 q 206 669 339 669 l 181 669 q 46 750 46 669 l 46 817 q 72 837 46 830 q 109 844 94 844 q 146 837 125 844 q 173 817 173 829 l 173 760 q 188 750 182 754 q 207 760 195 755 m 234 772 q 234 766 234 769 l 234 751 q 205 728 234 743 q 189 720 196 720 q 170 729 182 720 q 154 738 157 737 q 144 770 143 743 q 146 808 144 771 q 109 817 125 817 q 73 808 91 817 l 73 750 q 181 696 73 696 l 206 696 q 312 745 312 696 l 312 766 q 312 771 312 769 q 339 797 311 784 q 356 805 347 805 q 375 797 361 805 q 393 787 389 788 q 403 775 403 784 l 403 719 q 434 709 416 709 q 477 721 454 709 l 477 780 q 372 830 477 830 l 348 830 q 234 776 234 830 l 234 772 m 445 -43 q 344 -1 344 -43 l 343 514 q 306 518 322 518 q 218 478 257 518 l 218 -4 q 179 -28 218 -20 q 128 -35 152 -35 q 76 -28 103 -35 q 37 -4 37 -20 l 37 594 q 127 624 37 624 q 219 597 220 624 l 218 575 q 297 607 279 607 l 404 607 q 522 528 522 607 l 522 -2 q 445 -43 522 -43 m 495 -3 l 495 528 q 404 580 495 580 l 297 580 q 249 559 287 580 q 201 538 211 538 q 191 552 191 538 l 192 587 q 127 597 161 597 q 64 585 89 597 l 64 4 q 128 -8 93 -8 q 191 4 163 -8 l 191 484 q 195 493 192 490 q 306 545 243 545 q 370 526 370 545 l 370 0 q 445 -16 382 -16 q 495 -3 495 -16 "},"ο":{"x_min":37,"x_max":523,"ha":560,"o":"m 405 -14 l 298 -14 q 219 18 279 -14 l 219 -247 q 128 -274 219 -274 q 75 -267 104 -274 q 37 -243 37 -258 l 37 598 q 76 622 37 614 q 128 629 104 629 q 180 622 150 629 q 219 598 219 613 l 219 114 q 308 75 257 75 q 344 77 323 75 l 344 594 q 445 636 344 636 q 523 595 523 636 l 523 64 q 405 -14 523 -14 m 405 13 q 496 63 496 13 l 496 596 q 445 609 496 609 q 371 594 381 609 l 371 67 q 307 48 371 48 q 195 99 243 48 q 192 109 192 105 l 192 589 q 128 602 164 602 q 64 589 93 602 l 64 -234 q 128 -246 90 -246 q 192 -237 160 -246 l 192 41 q 202 54 192 54 q 250 33 212 54 q 297 13 287 13 l 405 13 "},"S":{"x_min":37,"x_max":502,"ha":540,"o":"m 502 77 q 350 0 502 0 l 192 0 q 37 77 37 0 l 37 121 q 117 138 74 138 q 192 121 157 138 l 192 68 q 276 54 243 54 q 347 68 311 54 l 347 438 l 140 512 q 64 532 128 515 q 37 560 37 540 l 37 784 q 188 862 37 862 l 346 862 q 502 784 502 862 l 502 741 q 424 724 464 724 q 347 741 382 724 l 347 791 q 266 808 298 808 q 192 791 231 808 l 192 593 l 475 495 q 502 456 502 483 l 502 77 "},"/":{"x_min":37,"x_max":749.96875,"ha":787,"o":"m 749 862 l 198 0 q 104 -28 146 -28 q 37 0 60 -28 l 589 862 q 681 884 637 884 q 749 862 726 884 "},"į":{"x_min":24,"x_max":557,"ha":581,"o":"m 544 255 q 531 247 540 247 l 516 247 l 516 76 q 347 -14 516 -14 l 149 -14 q 24 64 24 -14 l 24 472 q 74 522 33 503 q 24 575 24 551 l 24 797 q 160 876 24 876 l 320 876 q 489 784 489 876 l 489 741 q 455 715 489 725 q 409 708 430 708 q 352 715 385 708 q 307 741 307 725 l 307 784 q 262 795 279 795 q 206 782 248 795 l 206 566 l 345 566 q 369 517 369 566 q 345 471 369 471 l 206 471 l 206 77 q 267 65 241 65 q 334 77 291 65 l 334 247 l 250 247 q 225 310 225 247 q 250 377 225 377 l 531 377 q 557 318 557 377 q 544 255 557 284 m 523 274 q 530 318 530 293 q 524 349 530 338 l 258 349 q 252 309 252 335 q 256 274 252 284 l 347 274 q 361 260 361 274 l 361 67 q 320 44 361 53 q 267 37 289 37 q 217 44 246 37 q 179 67 179 53 l 179 484 q 192 498 179 498 l 337 498 q 342 516 342 506 q 337 538 342 528 l 192 538 q 179 552 179 538 l 179 792 q 214 815 179 806 q 262 822 241 822 q 303 814 277 822 q 334 792 334 805 l 334 750 q 409 735 373 735 q 462 747 443 735 l 462 784 q 321 848 462 848 l 160 848 q 51 796 51 848 l 51 579 q 116 532 74 545 q 129 519 129 529 q 116 507 129 510 q 51 466 60 493 l 51 63 q 149 13 51 13 l 347 13 q 489 76 489 13 l 489 260 q 502 274 489 274 l 523 274 "},"Ŧ":{"x_min":24,"x_max":516,"ha":540,"o":"m 434 -33 q 377 -25 410 -33 q 334 0 334 -15 l 334 393 l 264 441 l 206 393 l 206 0 q 168 -24 206 -15 q 118 -31 139 -31 q 65 -24 96 -31 q 24 0 24 -15 l 24 448 q 65 518 24 496 q 24 578 24 542 l 24 861 q 120 890 24 890 q 206 861 206 890 l 206 596 l 265 547 l 334 597 l 334 861 q 375 887 334 877 q 428 895 405 895 q 477 887 447 895 q 516 861 516 878 l 516 576 q 461 519 502 539 q 515 452 501 497 l 516 448 l 516 0 q 480 -25 516 -15 q 434 -33 455 -33 m 434 -6 q 489 7 465 -6 l 489 446 q 417 507 473 494 q 405 520 405 510 q 417 533 405 531 q 489 583 473 546 l 489 853 q 428 868 461 868 q 361 853 392 868 l 361 590 q 355 579 361 584 l 273 519 q 267 518 271 518 q 214 546 250 518 q 179 590 179 575 l 179 852 q 120 863 150 863 q 51 852 86 863 l 51 580 q 115 533 59 530 q 131 519 131 534 q 118 506 131 508 q 51 448 51 497 l 51 8 q 118 -4 83 -4 q 179 8 152 -4 l 179 401 q 183 411 181 409 l 254 469 q 270 469 262 475 l 354 412 q 361 401 361 408 l 361 9 q 434 -6 401 -6 "},"Τ":{"x_min":37,"x_max":506,"ha":544,"o":"m 354 681 q 279 655 321 655 q 204 681 238 655 l 202 684 l 101 815 q 97 823 97 819 q 122 847 97 836 q 159 857 144 857 q 202 849 174 857 q 240 832 233 841 l 280 781 q 323 834 292 803 q 410 857 376 857 q 458 821 454 857 q 455 811 457 815 l 354 681 m 336 701 l 429 823 q 409 830 425 830 q 337 810 383 830 q 279 746 286 746 q 220 812 273 746 q 159 830 184 830 q 129 821 141 830 l 222 701 q 279 682 247 682 q 336 701 311 682 m 389 -14 l 148 -14 q 37 41 37 -14 l 37 125 q 75 150 37 141 q 127 158 105 158 q 177 150 148 158 q 216 125 216 140 l 216 75 q 277 65 253 65 q 325 74 301 65 l 325 224 q 68 316 237 255 q 37 363 37 328 l 37 552 q 142 609 37 609 l 398 609 q 506 555 506 609 l 506 464 q 470 439 506 449 q 422 433 445 433 q 367 439 400 433 q 325 464 325 448 l 325 516 q 270 528 294 528 q 216 516 248 528 l 216 398 q 468 309 317 360 q 506 260 506 296 l 506 57 q 389 -14 506 -14 m 390 13 q 479 57 479 13 l 479 260 q 440 291 479 279 q 379 308 412 300 l 197 377 q 189 389 189 380 l 189 526 q 224 548 189 539 q 270 555 251 555 q 316 548 289 555 q 352 526 352 539 l 352 473 q 422 460 388 460 q 479 472 454 460 l 479 555 q 398 582 479 582 l 142 582 q 64 552 64 582 l 64 363 q 78 342 64 349 l 243 289 q 352 234 352 254 l 352 67 q 319 44 352 52 q 277 38 294 38 q 227 44 256 38 q 189 67 189 52 l 189 117 q 127 130 162 130 q 64 117 92 130 l 64 41 q 148 13 64 13 l 390 13 "},"y":{"x_min":37,"x_max":495,"ha":533,"o":"m 495 -158 q 349 -274 495 -274 l 58 -274 q 45 -234 45 -258 q 58 -184 45 -211 l 95 -184 q 133 -184 108 -184 q 172 -184 159 -184 q 341 -115 341 -184 l 341 41 q 248 0 266 0 l 141 0 q 37 64 37 0 l 37 596 q 101 623 37 623 q 151 617 125 623 q 189 594 189 609 l 189 67 q 238 62 217 62 q 341 109 297 62 l 341 598 q 416 615 374 615 q 495 598 460 615 l 495 -158 "},"Π":{"x_min":37,"x_max":669.734375,"ha":707,"o":"m 660 261 q 647 253 657 253 l 66 253 q 45 266 54 253 q 37 293 37 280 q 46 325 37 304 q 66 346 56 346 l 647 346 q 669 304 669 346 q 660 261 669 290 m 637 280 q 642 304 642 297 q 639 319 642 312 l 74 319 q 64 293 64 297 q 70 280 64 285 l 637 280 "},"ΐ":{"x_min":24,"x_max":442,"ha":466,"o":"m 323 518 q 314 513 317 513 l 312 513 l 326 526 l 326 81 l 418 81 q 442 38 442 81 q 418 -12 442 -12 l 326 -12 l 326 -121 q 229 -160 309 -160 q 143 -113 143 -160 l 143 -12 l 53 -12 q 32 1 41 -12 q 24 28 24 15 q 33 60 24 39 q 53 81 43 81 l 143 81 l 143 518 l 53 518 q 32 532 41 518 q 24 558 24 546 q 33 588 24 569 q 53 610 43 610 l 143 610 l 143 750 q 185 776 143 766 q 238 783 215 783 q 287 776 260 783 q 326 750 326 766 l 326 610 l 419 610 q 442 569 442 610 q 419 518 442 518 l 323 518 m 303 537 q 315 545 308 545 l 409 545 q 415 569 415 561 q 412 583 415 577 l 312 583 q 299 596 299 583 l 299 742 q 238 756 272 756 q 170 741 203 756 l 170 596 q 156 583 170 583 l 62 583 q 52 558 52 563 q 59 545 52 551 l 156 545 q 170 531 170 545 l 170 67 q 156 54 170 54 l 61 54 q 51 28 51 32 q 57 15 51 20 l 156 15 q 170 1 170 15 l 170 -113 q 228 -133 170 -133 q 299 -113 287 -133 l 299 1 q 312 15 299 15 l 408 15 q 413 38 413 32 q 410 54 413 47 l 312 54 q 299 67 299 54 l 299 527 q 303 537 299 533 "},"ǿ":{"x_min":23,"x_max":510,"ha":534,"o":"m 377 75 q 263 -14 294 6 q 248 -13 255 -19 q 119 99 200 24 q 23 198 23 187 l 23 594 q 111 623 23 623 q 202 594 202 623 l 202 248 q 261 179 223 200 q 328 249 297 204 l 328 594 q 370 619 328 609 q 424 626 401 626 q 504 605 482 626 q 510 594 510 600 l 510 200 q 377 75 510 186 m 360 95 q 483 204 445 166 l 483 586 q 424 599 457 599 q 355 586 390 599 l 355 245 q 316 189 355 229 q 261 149 277 149 q 257 151 259 149 q 176 240 203 177 l 175 245 l 175 585 q 111 596 145 596 q 50 585 77 596 l 50 203 q 257 13 199 61 q 360 95 288 36 "},"g":{"x_min":37,"x_max":495,"ha":533,"o":"m 495 -158 q 349 -274 495 -274 l 58 -274 q 45 -234 45 -258 q 58 -184 45 -211 l 95 -184 q 133 -184 108 -184 q 172 -184 159 -184 q 341 -115 341 -184 l 341 41 q 248 0 266 0 l 141 0 q 37 64 37 0 l 37 538 q 158 595 37 595 l 230 595 q 336 558 253 595 q 341 556 338 558 l 341 598 q 416 615 374 615 q 495 598 460 615 l 495 -158 m 341 109 l 341 484 q 217 528 323 528 q 189 526 201 528 l 189 67 q 238 62 217 62 q 341 109 297 62 "},"ĸ":{"x_min":23.59375,"x_max":764.59375,"ha":787,"o":"m 210 -7 q 161 -31 201 -20 q 104 -41 126 -41 q 27 -8 53 -41 q 26 7 20 0 l 578 869 q 626 890 586 882 q 681 897 660 897 q 759 871 732 897 q 761 855 768 864 l 210 -7 m 188 10 l 731 859 q 681 870 712 870 q 599 851 642 870 l 55 0 q 104 -14 73 -14 q 188 10 142 -14 "},"²":{"x_min":52,"x_max":290.390625,"ha":341,"o":"m 290 446 q 283 431 290 437 l 52 431 l 52 640 q 64 661 52 655 q 101 672 70 665 l 206 699 l 206 827 q 168 835 187 835 q 128 827 149 835 l 128 801 q 89 791 111 791 q 52 801 68 791 l 52 822 q 128 862 52 862 l 207 862 q 282 822 282 862 l 282 682 q 270 667 282 672 q 231 659 256 665 l 128 632 l 128 466 l 283 466 q 290 446 290 455 "},"–":{"x_min":51,"x_max":540.640625,"ha":591,"o":"m 540 304 q 531 267 540 293 l 66 267 q 51 293 51 277 q 66 332 51 302 l 531 332 q 540 304 540 319 "},"ë":{"x_min":51,"x_max":511,"ha":562,"o":"m 399 752 q 370 701 399 701 l 320 701 q 293 752 293 701 l 293 761 q 320 812 293 812 l 370 812 q 399 761 399 812 l 399 752 m 246 752 q 218 701 246 701 l 167 701 q 140 752 140 701 l 140 761 q 167 812 140 812 l 218 812 q 246 761 246 812 l 246 752 m 511 49 q 407 0 511 0 l 154 0 q 51 45 51 0 l 51 531 q 164 595 51 595 l 389 595 q 511 531 511 595 l 511 345 l 203 245 l 203 66 q 277 56 245 56 q 356 66 309 56 l 356 134 q 432 152 389 152 q 511 135 474 152 l 511 49 m 356 386 l 356 527 q 283 538 316 538 q 203 527 251 538 l 203 333 l 356 386 "},"б":{"x_min":37,"x_max":524,"ha":562,"o":"m 411 661 q 363 669 393 661 q 320 687 328 677 l 281 733 q 237 681 270 712 q 160 661 192 661 q 123 670 146 661 q 98 692 98 680 q 102 700 98 696 l 205 834 q 280 861 239 861 q 356 834 323 861 l 358 831 l 456 703 q 459 694 459 697 q 411 661 456 661 m 410 688 q 430 692 426 688 l 338 813 q 280 834 312 834 q 224 813 249 834 l 131 694 q 160 688 143 688 q 222 704 186 688 q 281 769 275 769 q 338 706 287 769 q 410 688 384 688 m 410 -14 l 155 -14 q 37 75 37 -14 l 37 528 q 171 609 37 609 l 391 609 q 524 532 524 609 l 524 76 q 487 7 524 32 q 410 -14 455 -14 m 471 29 q 497 76 497 45 l 497 532 q 391 582 497 582 l 171 582 q 64 528 64 582 l 64 74 q 155 13 64 13 l 410 13 q 471 29 445 13 m 342 516 q 277 529 303 529 q 216 516 250 529 l 216 76 q 278 66 249 66 q 342 76 305 66 l 342 516 m 369 526 l 369 67 q 329 44 369 52 q 278 39 303 39 q 189 67 189 39 l 189 526 q 227 549 189 540 q 277 556 256 556 q 328 549 298 556 q 369 526 369 540 "},"ƒ":{"x_min":-174,"x_max":590.96875,"ha":541,"o":"m 590 797 q 535 737 569 760 q 456 797 500 797 q 401 773 427 797 l 356 602 l 492 602 q 496 587 496 595 q 475 536 496 570 l 338 536 l 172 -90 q 51 -177 150 -172 q -21 -180 -3 -180 q -174 -114 -132 -180 q -119 -56 -152 -78 q -39 -115 -83 -115 q 14 -90 -11 -115 l 182 536 l 109 536 q 100 555 100 544 q 101 563 100 558 q 127 602 104 572 l 199 602 l 244 772 q 365 860 266 855 q 437 863 421 863 q 590 797 548 863 "},"J":{"x_min":37,"x_max":504,"ha":542,"o":"m 504 77 q 353 0 504 0 l 194 0 q 37 77 37 0 l 37 121 q 117 140 74 140 q 193 121 158 140 l 193 67 q 278 50 245 50 q 349 67 313 50 l 349 862 q 424 882 382 882 q 504 862 466 882 l 504 77 "},"Ã":{"x_min":51,"x_max":516,"ha":567,"o":"m 495 950 q 438 932 464 932 q 393 950 412 932 l 393 1011 q 360 1028 388 1013 q 345 1021 357 1028 l 329 1011 l 329 1003 l 329 1003 l 329 982 q 210 918 329 918 l 186 918 q 64 986 64 918 l 64 1054 q 114 1067 88 1067 q 164 1054 134 1067 l 164 988 q 179 979 167 987 q 194 971 192 971 q 227 988 208 979 l 227 1003 l 224 1003 l 224 1013 q 273 1068 224 1050 q 352 1081 308 1081 l 377 1081 q 495 1017 495 1081 l 495 950 m 516 0 q 440 -20 484 -20 q 361 0 398 -20 l 361 462 q 278 477 310 477 q 206 462 243 477 l 206 0 q 130 -18 141 -18 q 51 0 97 -18 l 51 783 q 202 862 51 862 l 360 862 q 516 783 516 862 l 516 0 m 361 549 l 361 793 q 276 806 307 806 q 206 793 242 806 l 206 549 q 278 535 243 535 q 361 549 311 535 "},"ŷ":{"x_min":23,"x_max":222,"ha":246,"o":"m 163 652 l 81 652 q 23 717 23 652 l 23 726 q 81 791 23 791 l 163 791 q 222 726 222 791 l 222 717 q 163 652 222 652 m 163 679 q 195 717 195 679 l 195 726 q 163 764 195 764 l 81 764 q 50 726 50 764 l 50 717 q 81 679 50 679 l 163 679 m 210 0 q 125 -26 210 -26 q 33 0 33 -26 l 33 594 q 71 618 33 608 q 121 625 98 625 q 172 618 144 625 q 212 594 212 608 l 210 0 m 183 9 l 185 585 q 121 598 144 598 q 60 585 98 598 l 60 10 q 125 1 96 1 q 183 9 151 1 "},"ŕ":{"x_min":23,"x_max":344,"ha":368,"o":"m 326 -9 q 317 -14 324 -12 l 49 -14 q 29 6 37 -14 q 23 37 23 23 q 29 65 23 51 q 49 83 37 83 l 94 83 l 94 779 l 49 779 q 25 823 25 779 q 49 876 25 876 l 317 876 q 339 827 339 876 q 317 779 339 779 l 277 779 l 277 83 l 317 83 q 337 62 329 83 q 344 31 344 46 q 326 -9 344 7 m 310 13 q 316 31 316 20 q 309 56 316 42 l 263 56 q 250 69 250 56 l 250 792 q 263 806 250 806 l 308 806 q 312 827 312 816 q 308 849 312 839 l 57 849 q 52 823 52 835 q 56 806 52 812 l 107 806 q 121 792 121 806 l 121 69 q 107 56 121 56 l 55 56 q 50 37 50 47 q 56 13 50 26 l 310 13 "},"Ј":{"x_min":37,"x_max":358,"ha":395,"o":"m 255 901 l 194 901 q 142 930 155 906 l 73 1056 q 71 1066 71 1060 q 123 1096 71 1096 q 150 1095 133 1096 l 167 1093 q 220 1065 206 1090 l 287 941 q 291 929 291 935 q 255 901 291 900 m 98 1066 l 166 943 q 212 928 174 928 q 233 928 225 928 q 255 928 262 928 q 262 927 258 928 l 195 1052 q 149 1068 187 1067 q 127 1068 135 1068 q 98 1066 116 1068 m 340 -9 q 331 -14 338 -12 l 63 -14 q 43 6 51 -14 q 37 37 37 23 q 43 65 37 51 q 63 83 51 83 l 108 83 l 108 779 l 63 779 q 39 823 39 779 q 63 876 39 876 l 331 876 q 353 827 353 876 q 331 779 353 779 l 291 779 l 291 83 l 331 83 q 351 62 343 83 q 358 31 358 46 q 340 -9 358 7 m 324 13 q 330 31 330 20 q 323 56 330 42 l 277 56 q 264 69 264 56 l 264 792 q 277 806 264 806 l 322 806 q 326 827 326 816 q 322 849 326 839 l 71 849 q 66 823 66 835 q 70 806 66 812 l 121 806 q 135 792 135 806 l 135 69 q 121 56 135 56 l 69 56 q 64 37 64 47 q 70 13 64 26 l 324 13 "},"‐":{"x_min":37,"x_max":426.953125,"ha":456,"o":"m 426 304 q 417 267 426 293 l 52 267 q 37 293 37 277 q 52 332 37 302 l 417 332 q 426 304 426 319 "},"©":{"x_min":51,"x_max":674,"ha":725,"o":"m 674 157 q 518 79 674 79 l 202 79 q 51 157 51 79 l 51 705 q 202 783 51 783 l 518 783 q 674 705 674 783 l 674 157 m 544 147 l 544 713 q 359 732 496 732 q 180 713 219 732 l 180 147 q 360 131 221 131 q 544 147 498 131 m 479 254 q 401 216 479 216 l 321 216 q 246 254 246 216 l 246 607 q 321 646 246 646 l 401 646 q 479 607 479 646 l 479 586 q 438 579 459 579 q 400 586 417 579 l 400 612 q 364 619 381 619 q 323 612 348 619 l 323 249 q 363 242 357 242 q 400 249 372 242 l 400 277 q 438 287 417 287 q 479 277 460 287 l 479 254 "},"ώ":{"x_min":37,"x_max":529,"ha":567,"o":"m 386 930 l 335 930 q 295 994 295 930 l 295 1003 q 335 1068 295 1068 l 386 1068 q 428 1003 428 1068 l 428 994 q 386 930 428 930 m 386 957 q 401 994 401 957 l 401 1003 q 386 1041 401 1041 l 335 1041 q 322 1003 322 1041 l 322 994 q 335 957 322 957 l 386 957 m 233 930 l 182 930 q 142 994 142 930 l 142 1003 q 182 1068 142 1068 l 233 1068 q 275 1003 275 1068 l 275 994 q 233 930 275 930 m 233 957 q 248 994 248 957 l 248 1003 q 233 1041 248 1041 l 182 1041 q 169 1003 169 1041 l 169 994 q 182 957 169 957 l 233 957 m 440 -33 q 387 -25 417 -33 q 347 0 347 -15 l 347 452 q 278 464 304 464 q 219 453 249 464 l 219 0 q 208 -12 219 -10 q 129 -31 142 -31 q 76 -23 108 -31 q 37 0 37 -14 l 37 784 q 201 876 37 876 l 360 876 q 529 784 529 876 l 529 0 q 491 -25 529 -16 q 440 -33 461 -33 m 440 -6 q 502 8 475 -6 l 502 784 q 360 849 502 849 l 201 849 q 64 784 64 849 l 64 9 q 129 -4 102 -4 q 192 10 138 -4 l 192 462 q 229 485 192 477 q 278 491 254 491 q 374 462 374 491 l 374 8 q 440 -6 405 -6 m 347 783 q 275 793 302 793 q 219 784 248 793 l 219 559 q 278 549 249 549 q 347 559 305 549 l 347 783 m 374 794 l 374 550 q 278 522 374 522 q 192 550 192 522 l 192 794 q 275 820 192 820 q 374 794 374 820 "},"˘":{"x_min":23,"x_max":510,"ha":534,"o":"m 421 -28 q 328 0 328 -28 l 328 202 l 266 245 l 207 202 l 207 0 q 116 -28 207 -28 q 23 0 23 -28 l 23 259 q 66 314 23 281 q 23 366 23 340 l 23 593 q 120 621 23 621 q 207 593 207 621 l 207 385 l 267 337 l 328 386 l 328 592 q 371 616 328 607 q 428 623 405 623 q 475 616 449 623 q 510 592 510 607 l 510 366 q 469 316 510 345 q 509 263 499 294 l 510 259 l 510 0 q 421 -28 510 -28 m 421 -1 q 483 9 455 -1 l 483 257 q 436 305 472 286 q 427 319 427 311 q 438 331 428 326 q 483 370 461 339 l 483 584 q 428 596 459 596 q 355 583 398 596 l 355 380 q 350 369 352 372 l 295 322 q 267 307 277 307 q 239 322 259 307 q 184 368 227 332 q 180 378 180 372 l 180 583 q 120 593 155 593 q 50 583 85 593 l 50 370 q 100 332 72 332 q 115 319 115 331 q 105 306 115 310 q 50 255 72 291 l 50 9 q 116 -1 81 -1 q 180 9 150 -1 l 180 210 q 184 221 180 217 l 258 274 q 274 273 266 279 l 348 221 q 355 210 355 217 l 355 9 q 421 -1 385 -1 "},"D":{"x_min":37,"x_max":502,"ha":540,"o":"m 502 76 q 367 0 502 0 l 37 0 l 37 862 l 330 862 q 502 777 502 862 l 502 76 m 347 114 l 347 754 q 293 792 325 792 l 192 792 l 192 69 l 293 69 q 347 114 338 69 "},"ÿ":{"x_min":51,"x_max":509,"ha":560,"o":"m 399 752 q 370 701 399 701 l 320 701 q 293 752 293 701 l 293 761 q 320 812 293 812 l 370 812 q 399 761 399 812 l 399 752 m 246 752 q 218 701 246 701 l 167 701 q 140 752 140 701 l 140 761 q 167 812 140 812 l 218 812 q 246 761 246 812 l 246 752 m 509 -158 q 363 -274 509 -274 l 72 -274 q 59 -234 59 -258 q 72 -184 59 -211 l 109 -184 q 147 -184 122 -184 q 186 -184 173 -184 q 355 -115 355 -184 l 355 41 q 262 0 280 0 l 155 0 q 51 64 51 0 l 51 596 q 115 623 51 623 q 165 617 139 623 q 203 594 203 609 l 203 67 q 252 62 231 62 q 355 109 311 62 l 355 598 q 430 615 388 615 q 509 598 474 615 l 509 -158 "},"ĺ":{"x_min":23,"x_max":385,"ha":401,"o":"m 375 -5 q 362 -14 371 -14 l 63 -14 q 39 31 39 -14 q 63 85 39 85 l 123 85 l 123 650 l 47 650 q 23 685 23 650 q 137 806 23 749 q 285 873 151 812 q 306 861 306 885 l 306 85 l 362 85 q 385 36 385 85 q 375 -5 385 14 m 353 13 q 358 36 358 24 q 353 58 358 47 l 292 58 q 279 71 279 58 l 279 838 l 57 710 q 50 685 50 692 q 52 677 50 680 l 136 677 q 150 663 150 677 l 150 71 q 136 58 150 58 l 72 58 q 66 31 66 44 q 70 13 66 20 l 353 13 "},"ł":{"x_min":24,"x_max":516,"ha":540,"o":"m 351 -14 l 192 -14 q 24 77 24 -14 l 24 120 q 63 145 24 136 q 115 152 93 152 q 166 145 136 152 q 206 120 206 136 l 206 78 q 266 72 238 72 q 334 79 293 72 l 334 368 l 137 368 q 24 445 24 368 l 24 785 q 188 876 24 876 l 347 876 q 516 785 516 876 l 516 76 q 351 -14 516 -14 m 351 13 q 489 76 489 13 l 489 785 q 347 849 489 849 l 188 849 q 51 785 51 849 l 51 445 q 137 395 51 395 l 347 395 q 361 381 361 395 l 361 68 q 266 45 361 45 q 179 68 179 45 l 179 112 q 115 125 151 125 q 51 112 80 125 l 51 77 q 192 13 51 13 l 351 13 m 334 784 q 267 793 294 793 q 206 784 240 793 l 206 473 q 275 467 248 467 q 334 473 303 467 l 334 784 m 361 794 l 361 461 q 275 439 361 439 q 179 461 179 439 l 179 794 q 267 820 179 820 q 361 794 361 820 "},"Ł":{"x_min":24,"x_max":516,"ha":540,"o":"m 351 -14 l 192 -14 q 24 76 24 -14 l 24 444 q 74 509 37 487 q 24 572 24 529 l 24 779 q 188 876 24 876 l 347 876 q 516 785 516 876 l 516 569 q 464 509 506 527 q 514 445 497 489 l 516 440 l 516 74 q 351 -14 516 -14 m 351 13 q 489 74 489 13 l 489 438 q 418 498 466 491 q 405 512 405 500 q 419 525 405 523 q 489 573 478 532 l 489 785 q 347 849 489 849 l 188 849 q 51 779 51 849 l 51 572 q 119 525 51 537 q 133 512 133 522 q 120 498 133 501 q 51 438 65 485 l 51 76 q 192 13 51 13 l 351 13 m 334 779 q 268 798 293 798 q 206 780 243 798 l 206 589 l 269 539 l 334 589 l 334 779 m 361 788 l 361 582 q 355 572 361 576 l 277 510 q 260 511 268 504 l 184 571 q 179 582 179 576 l 179 789 q 217 815 179 803 q 268 825 248 825 q 320 814 287 825 q 361 788 361 802 m 334 406 l 268 444 l 206 405 l 204 81 q 268 62 239 62 q 334 81 296 62 l 334 406 m 361 414 l 361 73 q 321 45 361 58 q 268 35 287 35 q 216 45 249 35 q 177 74 177 58 l 179 414 q 185 425 179 421 l 261 473 q 274 473 268 477 l 354 425 q 361 414 361 421 "},"Л":{"x_min":37,"x_max":555,"ha":593,"o":"m 441 195 l 219 195 l 219 0 q 124 -26 219 -26 q 40 0 40 -26 l 40 259 q 37 283 37 270 l 37 629 q 40 650 37 640 l 40 857 q 75 881 40 873 q 122 888 99 888 q 176 881 147 888 q 219 857 219 873 l 219 711 l 423 711 q 555 633 555 711 l 555 284 q 519 215 555 239 q 441 195 487 195 m 528 284 l 528 633 q 423 684 528 684 l 205 684 q 192 697 192 684 l 192 848 q 122 861 157 861 q 67 850 90 861 l 67 644 q 64 629 64 638 l 64 283 q 66 264 64 274 l 67 261 l 67 9 q 124 1 92 1 q 192 10 158 1 l 192 208 q 205 222 192 222 l 441 222 q 528 284 528 222 m 373 619 q 292 632 330 632 q 219 619 256 632 l 219 283 q 294 274 254 274 q 373 284 332 274 l 373 619 m 400 628 l 400 274 q 294 247 400 247 q 192 274 192 247 l 192 629 q 236 652 192 644 q 292 659 268 659 q 353 652 320 659 q 400 628 400 644 "},"$":{"x_min":37,"x_max":502,"ha":540,"o":"m 502 114 q 351 37 502 37 l 312 37 l 312 -1 l 280 -1 l 280 37 l 260 37 l 260 -1 l 227 -1 l 227 37 l 192 37 q 37 114 37 37 l 37 159 l 192 159 l 192 106 l 227 106 l 227 465 l 140 496 q 64 517 128 500 q 37 544 37 524 l 37 736 q 188 814 37 814 l 227 814 l 227 863 l 260 863 l 260 814 l 280 814 l 280 863 l 312 863 l 312 814 l 347 814 q 502 736 502 814 l 502 693 l 347 693 l 347 745 l 312 745 l 312 535 l 400 504 l 474 480 q 502 440 502 467 l 502 114 m 280 547 l 280 745 l 260 745 l 260 554 l 280 547 m 227 566 l 227 745 l 192 745 l 192 577 l 227 566 m 347 106 l 346 422 l 312 436 l 312 106 l 347 106 m 280 106 l 280 447 l 260 454 l 260 106 l 280 106 "},"w":{"x_min":37,"x_max":802,"ha":840,"o":"m 802 199 q 674 85 766 162 q 562 -3 587 12 q 417 126 532 20 q 257 -3 295 20 q 37 198 201 41 l 37 594 q 111 610 70 610 q 189 594 153 610 l 189 245 q 263 163 214 187 q 342 245 306 191 l 342 594 q 425 612 383 612 q 497 594 465 612 l 497 240 q 568 163 523 185 q 647 245 611 191 l 647 594 q 730 612 688 612 q 802 594 770 612 l 802 199 "},"\\":{"x_min":37.328125,"x_max":749.75,"ha":787,"o":"m 749 0 q 682 -28 727 -28 q 588 0 639 -28 l 37 862 q 106 884 61 884 q 197 862 149 884 l 749 0 "},"Д":{"x_min":36,"x_max":453.75,"ha":491,"o":"m 424 137 q 359 97 390 97 q 350 100 353 97 l 234 209 l 141 103 q 131 99 139 101 q 88 118 111 99 q 65 157 65 137 q 69 168 65 163 l 162 274 l 42 378 q 36 395 36 383 q 63 463 36 431 q 126 496 90 496 q 141 491 135 496 l 261 387 l 356 496 q 366 500 359 500 q 409 480 388 500 q 430 439 430 460 q 394 380 430 414 q 333 322 381 368 l 449 212 q 453 200 453 208 q 424 137 453 170 m 425 197 l 304 311 q 305 330 296 320 l 402 443 q 371 471 392 464 l 273 359 q 253 357 263 348 l 127 466 q 64 394 66 460 l 190 286 q 191 267 200 277 l 94 155 q 125 126 103 130 l 223 237 q 243 239 233 249 l 362 125 q 425 197 414 147 "},"Ì":{"x_min":51,"x_max":345,"ha":395,"o":"m 278 929 q 256 914 278 914 l 196 917 q 154 937 165 918 l 87 1061 q 85 1066 85 1063 q 107 1081 85 1081 l 167 1080 q 208 1058 197 1079 l 276 934 q 278 929 278 932 m 345 31 q 331 0 345 12 l 63 0 q 51 37 51 20 q 64 69 51 55 l 123 69 l 123 792 l 63 792 q 53 822 53 803 q 63 862 53 841 l 331 862 q 340 827 340 847 q 331 792 340 808 l 278 792 l 278 69 l 331 69 q 345 31 345 50 "},"Ç":{"x_min":51,"x_max":516,"ha":567,"o":"m 516 77 q 361 0 516 0 l 335 0 l 335 -24 q 444 -86 444 -26 l 444 -178 q 343 -255 444 -255 l 262 -255 q 217 -224 217 -255 q 247 -187 217 -189 q 304 -203 287 -203 q 352 -188 308 -203 l 352 -92 q 305 -79 325 -83 l 266 -79 l 266 0 l 201 0 q 51 77 51 0 l 51 784 q 202 862 51 862 l 361 862 q 516 784 516 862 l 516 740 q 434 726 476 726 q 360 740 394 726 l 360 793 q 288 806 322 806 q 206 793 256 806 l 206 67 q 286 54 273 54 q 360 67 304 54 l 360 121 q 436 140 394 140 q 516 121 478 140 l 516 77 "},"Ŝ":{"x_min":24,"x_max":516,"ha":540,"o":"m 389 433 l 387 433 q 297 430 350 433 q 206 412 219 426 l 206 0 q 167 -28 206 -16 q 116 -37 137 -37 q 63 -27 96 -37 q 24 0 24 -15 l 24 862 q 37 876 24 876 l 383 876 q 516 804 516 876 l 516 502 q 467 447 516 467 q 389 433 430 433 m 463 474 q 489 502 489 487 l 489 804 q 383 849 489 849 l 51 849 l 51 7 q 116 -10 82 -10 q 179 7 151 -10 l 179 416 q 387 460 179 460 q 463 474 455 470 m 334 785 q 278 800 306 800 q 206 783 250 800 l 206 526 q 270 513 243 513 q 334 526 300 513 l 334 785 m 361 792 l 361 517 q 321 492 361 502 q 270 486 293 486 q 219 493 250 486 q 179 517 179 502 l 179 792 q 222 818 179 807 q 278 827 257 827 q 325 818 297 827 q 361 792 361 807 "},"ς":{"x_min":37,"x_max":291,"ha":328,"o":"m 176 -269 l 96 -269 q 37 -224 37 -269 q 47 -190 37 -207 q 73 -173 57 -173 q 85 -175 79 -173 q 137 -189 122 -189 q 171 -178 141 -187 l 171 -101 q 137 -92 152 -95 l 100 -92 q 87 -78 87 -92 l 87 21 q 100 35 87 35 l 168 35 q 182 21 182 35 l 182 -10 q 291 -86 291 -17 l 291 -178 q 255 -247 291 -223 q 176 -269 223 -269 m 238 -225 q 264 -178 264 -209 l 264 -86 q 209 -42 264 -55 q 155 -23 155 -29 l 155 8 l 114 8 l 114 -65 l 142 -65 q 198 -92 198 -77 l 198 -187 q 155 -211 198 -200 l 145 -214 q 137 -216 140 -216 q 78 -202 118 -216 q 64 -224 64 -204 q 95 -242 64 -242 l 176 -242 q 238 -225 212 -242 "},"C":{"x_min":37,"x_max":502,"ha":540,"o":"m 502 77 q 347 0 502 0 l 188 0 q 37 77 37 0 l 37 784 q 188 862 37 862 l 347 862 q 502 784 502 862 l 502 740 q 420 726 462 726 q 346 740 380 726 l 346 793 q 274 806 308 806 q 192 793 242 806 l 192 67 q 272 54 259 54 q 346 67 290 54 l 346 121 q 422 140 380 140 q 502 121 464 140 l 502 77 "},"!":{"x_min":51,"x_max":223.265625,"ha":274,"o":"m 223 58 q 178 111 223 111 l 96 111 q 51 58 51 111 l 51 50 q 96 -2 51 -2 l 178 -2 q 223 50 223 -2 l 223 58 m 213 847 q 138 861 180 861 q 61 847 95 861 l 82 198 q 139 188 118 188 q 192 198 160 188 l 213 847 "},"ç":{"x_min":51,"x_max":511,"ha":562,"o":"m 511 67 q 379 0 511 0 l 277 0 l 277 -24 q 385 -86 385 -26 l 385 -178 q 283 -255 385 -255 l 203 -255 q 158 -224 158 -255 q 187 -187 158 -189 q 245 -203 227 -203 q 293 -188 254 -200 l 293 -92 q 246 -78 267 -82 l 208 -78 l 208 0 l 181 0 q 51 64 51 0 l 51 531 q 175 595 51 595 l 395 595 q 511 539 511 595 l 511 454 q 429 438 460 438 q 356 455 393 438 l 356 527 q 277 541 309 541 q 202 527 245 541 l 202 66 q 279 56 248 56 q 356 66 311 56 l 356 134 q 429 149 389 149 q 511 134 472 149 l 511 67 "},"Ĵ":{"x_min":23,"x_max":537,"ha":551,"o":"m 524 258 q 513 252 520 252 l 359 252 l 359 147 q 325 123 359 132 q 282 117 300 117 q 236 123 263 117 q 201 147 201 132 l 201 252 l 49 252 q 23 296 23 252 q 29 326 23 310 q 49 345 37 345 l 201 345 l 201 455 q 235 483 201 471 q 282 493 262 493 q 327 483 302 493 q 359 455 359 471 l 359 345 l 513 345 q 537 298 537 345 q 524 258 537 278 m 505 279 q 509 298 509 289 q 505 318 509 308 l 345 318 q 332 331 332 318 l 332 449 q 282 466 310 466 q 228 448 253 466 l 228 331 q 214 318 228 318 l 56 318 q 50 296 50 307 q 55 279 50 286 l 214 279 q 228 265 228 279 l 228 155 q 282 144 254 144 q 332 155 308 144 l 332 265 q 345 279 332 279 l 505 279 "},"Й":{"x_min":37,"x_max":529,"ha":567,"o":"m 386 930 l 335 930 q 295 994 295 930 l 295 1003 q 335 1068 295 1068 l 386 1068 q 428 1003 428 1068 l 428 994 q 386 930 428 930 m 386 957 q 401 994 401 957 l 401 1003 q 386 1041 401 1041 l 335 1041 q 322 1003 322 1041 l 322 994 q 335 957 322 957 l 386 957 m 233 930 l 182 930 q 142 994 142 930 l 142 1003 q 182 1068 142 1068 l 233 1068 q 275 1003 275 1068 l 275 994 q 233 930 275 930 m 233 957 q 248 994 248 957 l 248 1003 q 233 1041 248 1041 l 182 1041 q 169 1003 169 1041 l 169 994 q 182 957 169 957 l 233 957 m 360 -14 l 201 -14 q 37 76 37 -14 l 37 861 q 121 890 37 890 q 219 861 219 890 l 219 82 q 278 74 249 74 q 347 82 306 74 l 347 861 q 387 885 347 877 q 441 892 415 892 q 491 885 465 892 q 529 861 529 877 l 529 76 q 360 -14 529 -14 m 360 13 q 502 76 502 13 l 502 852 q 441 865 473 865 q 374 852 407 865 l 374 72 q 278 47 374 47 q 192 72 192 47 l 192 852 q 121 863 156 863 q 64 853 89 863 l 64 76 q 201 13 64 13 l 360 13 "},"È":{"x_min":51,"x_max":505,"ha":556,"o":"m 372 929 q 350 914 372 914 l 290 917 q 250 937 261 917 l 182 1061 q 180 1066 180 1063 q 202 1081 180 1081 l 261 1080 q 303 1058 292 1079 l 370 934 q 372 929 372 931 m 505 34 q 494 0 505 15 l 171 0 q 51 58 51 0 l 51 805 q 165 862 51 862 l 495 862 q 503 823 503 842 q 495 792 503 806 l 206 792 l 206 551 l 432 551 q 443 516 443 532 q 432 484 443 499 l 206 484 l 206 69 l 494 69 q 505 34 505 54 "},"X":{"x_min":37,"x_max":502,"ha":540,"o":"m 502 0 q 433 -20 472 -20 q 347 0 395 -20 l 347 401 l 262 459 l 192 401 l 192 0 q 118 -18 160 -18 q 37 0 75 -18 l 37 448 q 116 520 37 509 q 64 535 87 518 q 37 580 41 551 l 37 862 q 119 877 79 877 q 192 862 159 877 l 192 590 l 264 531 l 347 590 l 347 862 q 427 882 384 882 q 502 862 469 882 l 502 581 q 420 520 485 535 q 502 448 485 505 l 502 0 "},"ô":{"x_min":51,"x_max":511,"ha":562,"o":"m 446 695 q 411 674 444 674 q 331 695 381 674 l 282 754 l 231 692 q 160 672 190 672 q 113 692 131 672 l 215 823 q 280 847 244 847 q 348 823 318 847 l 446 695 m 511 76 q 478 17 511 38 q 410 0 451 0 l 156 0 q 51 75 51 0 l 51 527 q 172 595 51 595 l 392 595 q 511 531 511 595 l 511 76 m 356 66 l 356 526 q 277 543 309 543 q 203 526 245 543 l 203 66 q 279 52 243 52 q 356 66 311 52 "},"Б":{"x_min":37,"x_max":529,"ha":567,"o":"m 414 896 q 366 904 397 896 q 324 922 331 912 l 286 969 q 240 916 274 948 q 164 896 197 896 q 127 904 147 896 q 102 928 102 914 q 105 935 102 932 l 209 1069 q 284 1096 242 1096 q 359 1069 327 1096 l 361 1066 l 460 939 q 462 929 462 931 q 414 896 460 896 m 414 923 q 435 927 430 923 l 341 1049 q 284 1069 316 1069 q 227 1049 253 1069 l 135 929 q 165 923 147 923 q 226 939 190 923 q 285 1004 279 1004 q 342 941 292 1004 q 414 923 388 923 m 360 -14 l 201 -14 q 37 76 37 -14 l 37 785 q 201 876 37 876 l 360 876 q 529 785 529 876 l 529 76 q 360 -14 529 -14 m 360 13 q 502 76 502 13 l 502 785 q 360 849 502 849 l 201 849 q 64 785 64 849 l 64 76 q 201 13 64 13 l 360 13 m 347 783 q 280 798 306 798 q 219 783 251 798 l 219 77 q 281 65 253 65 q 347 78 308 65 l 347 783 m 374 792 l 374 69 q 333 45 374 54 q 281 38 302 38 q 231 44 259 38 q 192 69 192 54 l 192 792 q 230 817 192 807 q 280 825 259 825 q 333 816 300 825 q 374 792 374 806 "},"г":{"x_min":37,"x_max":524,"ha":562,"o":"m 370 687 l 320 687 q 279 751 279 687 l 279 760 q 320 825 279 825 l 370 825 q 412 760 412 825 l 412 751 q 370 687 412 687 m 370 714 q 385 751 385 714 l 385 760 q 370 798 385 798 l 320 798 q 306 760 306 798 l 306 751 q 320 714 306 714 l 370 714 m 217 687 l 167 687 q 126 751 126 687 l 126 760 q 167 825 126 825 l 217 825 q 259 760 259 825 l 259 751 q 217 687 259 687 m 217 714 q 232 751 232 714 l 232 760 q 217 798 232 798 l 167 798 q 153 760 153 798 l 153 751 q 167 714 153 714 l 217 714 m 410 -14 l 155 -14 q 37 75 37 -14 l 37 528 q 171 609 37 609 l 391 609 q 524 532 524 609 l 524 76 q 487 7 524 32 q 410 -14 455 -14 m 471 29 q 497 76 497 45 l 497 532 q 391 582 497 582 l 171 582 q 64 528 64 582 l 64 74 q 155 13 64 13 l 410 13 q 471 29 445 13 m 342 516 q 277 529 303 529 q 216 516 250 529 l 216 76 q 278 66 249 66 q 342 76 305 66 l 342 516 m 368 526 l 368 67 q 329 44 368 52 q 278 39 302 39 q 188 67 188 39 l 188 526 q 227 549 188 540 q 277 556 256 556 q 328 549 298 556 q 368 526 368 540 "},"Ŀ":{"x_min":24,"x_max":516,"ha":540,"o":"m 351 -14 l 192 -14 q 24 76 24 -14 l 24 785 q 188 876 24 876 l 347 876 q 516 784 516 876 l 516 741 q 475 712 516 724 q 422 702 441 702 q 371 712 403 702 q 334 741 334 724 l 334 785 q 266 804 293 804 q 206 786 239 804 l 206 610 l 400 610 q 516 532 516 610 l 516 76 q 351 -14 516 -14 m 351 13 q 489 76 489 13 l 489 532 q 400 583 489 583 l 192 583 q 179 596 179 583 l 179 794 q 216 821 179 809 q 266 831 246 831 q 320 820 286 831 q 361 794 361 808 l 361 748 q 422 729 390 729 q 489 748 456 729 l 489 784 q 347 849 489 849 l 188 849 q 51 785 51 849 l 51 76 q 192 13 51 13 l 351 13 m 334 508 q 267 527 296 527 q 206 508 240 527 l 206 76 q 266 61 238 61 q 334 77 293 61 l 334 508 m 361 516 l 361 67 q 319 42 361 53 q 266 33 286 33 q 217 42 245 33 q 179 67 179 52 l 179 516 q 217 543 179 531 q 267 554 248 554 q 320 543 289 554 q 361 516 361 531 "},"Δ":{"x_min":13.75,"x_max":297,"ha":307,"o":"m 277 399 l 276 398 l 198 300 l 266 202 q 291 144 291 174 q 276 98 291 132 q 245 60 259 60 q 235 64 239 60 l 18 284 q 18 303 9 293 l 235 535 q 244 540 239 540 q 279 503 260 540 q 297 458 297 471 q 277 399 297 427 m 253 414 q 270 458 270 440 q 246 506 270 473 l 47 294 l 245 94 q 264 145 264 124 q 244 185 264 164 l 169 293 q 169 310 163 302 l 253 414 "},"}":{"x_min":37,"x_max":388,"ha":426,"o":"m 388 341 q 376 318 388 328 q 293 230 295 284 l 277 -188 q 113 -272 273 -272 l 47 -272 q 37 -229 37 -248 q 47 -203 37 -211 l 122 -203 l 138 240 q 221 342 140 301 q 138 446 140 383 l 122 867 l 47 867 q 37 902 37 883 q 47 936 37 921 l 110 936 q 211 921 165 936 q 277 853 274 900 l 293 462 q 293 432 293 447 q 342 383 295 408 q 376 368 361 373 q 388 341 388 355 "},"â":{"x_min":51,"x_max":509,"ha":559,"o":"m 446 695 q 411 674 444 674 q 331 695 381 674 l 282 754 l 231 692 q 160 672 190 672 q 113 692 131 672 l 215 823 q 280 847 244 847 q 348 823 318 847 l 446 695 m 509 0 q 431 -13 472 -13 q 356 0 390 -13 l 356 41 q 262 0 280 0 l 156 0 q 51 64 51 0 l 51 538 q 172 595 51 595 l 244 595 q 350 558 278 595 q 356 556 352 558 l 356 594 q 431 609 389 609 q 509 594 472 609 l 509 0 m 356 109 l 356 483 q 231 528 339 528 q 203 526 215 528 l 203 67 q 252 62 231 62 q 356 109 311 62 "},"ø":{"x_min":51,"x_max":511,"ha":562,"o":"m 511 76 q 478 17 511 38 q 410 0 451 0 l 156 0 q 51 75 51 0 l 51 527 q 172 595 51 595 l 392 595 q 511 531 511 595 l 511 76 m 356 66 l 356 526 q 277 543 309 543 q 203 526 245 543 l 203 66 q 279 52 243 52 q 356 66 311 52 "},"ŋ":{"x_min":24,"x_max":516,"ha":540,"o":"m 368 -14 l 37 -14 q 24 0 24 -14 l 24 862 q 37 876 24 876 l 330 876 q 516 778 516 876 l 516 580 q 495 541 516 556 q 456 518 487 534 q 496 493 491 498 q 516 452 516 476 l 516 76 q 368 -14 516 -14 m 368 13 q 489 76 489 13 l 489 452 q 449 492 489 468 q 410 520 410 516 q 458 548 410 523 q 489 580 489 563 l 489 778 q 331 849 489 849 l 51 849 l 51 13 l 368 13 m 334 782 q 265 793 293 793 q 206 782 236 793 l 206 568 q 272 561 244 561 q 334 568 299 561 l 334 782 m 361 792 l 361 557 q 272 534 361 534 q 179 557 179 534 l 179 792 q 265 820 179 820 q 361 792 361 820 m 334 469 q 276 480 304 480 q 206 469 249 480 l 206 78 q 265 68 235 68 q 334 79 293 68 l 334 469 m 361 479 l 361 69 q 265 41 361 41 q 216 46 241 41 q 179 69 179 54 l 179 479 q 276 507 179 507 q 361 479 361 507 "},"‰":{"x_min":37,"x_max":1496,"ha":1528,"o":"m 1496 71 q 1395 -4 1496 -4 l 1199 -4 q 1094 71 1094 -4 l 1094 349 q 1215 417 1094 417 l 1377 417 q 1496 353 1496 417 l 1496 71 m 1043 71 q 941 -4 1043 -4 l 746 -4 q 641 71 641 -4 l 641 349 q 763 417 641 417 l 924 417 q 1043 353 1043 417 l 1043 71 m 893 862 l 342 0 q 248 -28 291 -28 q 181 0 203 -28 l 733 862 q 824 884 781 884 q 893 862 870 884 m 438 517 q 337 442 438 442 l 141 442 q 37 517 37 442 l 37 795 q 158 863 37 863 l 320 863 q 438 799 438 863 l 438 517 m 1341 62 l 1341 347 l 1292 364 q 1246 347 1288 364 l 1246 62 q 1293 48 1286 48 q 1341 62 1297 48 m 888 62 l 888 347 l 839 364 q 794 347 835 364 l 794 62 q 841 48 833 48 q 888 62 850 50 m 283 507 l 283 793 l 234 810 q 189 793 230 810 l 189 507 q 236 493 228 493 q 283 507 239 493 "},"Ä":{"x_min":51,"x_max":516,"ha":567,"o":"m 415 995 q 387 944 415 944 l 336 944 q 309 995 309 944 l 309 1004 q 336 1055 309 1055 l 387 1055 q 415 1004 415 1055 l 415 995 m 262 995 q 234 944 262 944 l 183 944 q 156 995 156 944 l 156 1004 q 183 1055 156 1055 l 234 1055 q 262 1004 262 1055 l 262 995 m 516 0 q 440 -20 484 -20 q 361 0 398 -20 l 361 462 q 278 477 310 477 q 206 462 243 477 l 206 0 q 130 -18 141 -18 q 51 0 97 -18 l 51 783 q 202 862 51 862 l 360 862 q 516 783 516 862 l 516 0 m 361 549 l 361 793 q 276 806 307 806 q 206 793 242 806 l 206 549 q 278 535 243 535 q 361 549 311 535 "},"ř":{"x_min":23,"x_max":824,"ha":848,"o":"m 743 -39 q 685 -28 721 -39 q 642 0 642 -15 l 642 619 l 465 311 q 423 292 448 292 q 381 312 398 292 l 379 314 l 205 619 l 205 0 q 165 -28 205 -16 q 114 -37 135 -37 q 62 -28 93 -37 q 23 0 23 -16 l 23 863 q 61 898 23 882 q 113 912 93 912 q 374 613 256 912 q 423 485 388 578 l 632 870 q 679 895 640 884 q 732 904 711 904 q 784 893 752 904 q 824 864 824 881 l 824 0 q 790 -29 824 -17 q 743 -39 764 -39 m 743 -12 q 797 6 774 -12 l 797 857 q 733 877 768 877 q 655 853 693 877 l 436 450 q 424 440 430 440 q 412 451 418 440 l 192 854 q 113 885 150 885 q 50 857 80 885 l 50 7 q 114 -10 78 -10 q 178 7 149 -10 l 178 671 q 190 686 178 686 q 204 678 199 686 l 403 328 q 423 319 412 319 q 443 329 434 319 l 643 678 q 656 686 648 686 q 669 671 669 686 l 669 8 q 743 -12 708 -12 "},"Ч":{"x_min":37,"x_max":524,"ha":562,"o":"m 411 661 q 363 669 393 661 q 320 687 328 677 l 281 733 q 237 681 270 712 q 160 661 192 661 q 123 670 146 661 q 98 692 98 680 q 102 700 98 696 l 205 834 q 280 861 239 861 q 356 834 323 861 l 358 831 l 456 703 q 459 694 459 697 q 411 661 456 661 m 410 688 q 430 692 426 688 l 338 813 q 280 834 312 834 q 224 813 249 834 l 131 694 q 160 688 143 688 q 222 704 186 688 q 281 769 275 769 q 338 706 287 769 q 410 688 384 688 m 407 -14 l 153 -14 q 37 45 37 -14 l 37 532 q 163 609 37 609 l 389 609 q 524 532 524 609 l 524 345 q 514 332 524 335 l 216 235 l 216 77 q 277 70 250 70 q 342 78 303 70 l 342 134 q 380 158 342 149 q 431 165 409 165 q 484 158 453 165 q 524 134 524 149 l 524 49 q 407 -14 524 -14 m 407 13 q 497 49 497 13 l 497 125 q 431 138 466 138 q 369 125 396 138 l 369 67 q 277 43 369 43 q 189 67 189 43 l 189 246 q 198 258 189 255 l 497 356 l 497 532 q 389 582 497 582 l 163 582 q 64 532 64 582 l 64 44 q 153 13 64 13 l 407 13 m 342 516 q 282 524 309 524 q 216 516 256 524 l 216 352 l 342 395 l 342 516 m 369 526 l 369 385 q 359 373 369 376 q 202 320 205 320 q 189 332 189 320 l 189 526 q 282 551 189 551 q 369 526 369 551 "},"—":{"x_min":51,"x_max":656.609375,"ha":707,"o":"m 656 304 q 647 267 656 293 l 66 267 q 51 293 51 277 q 66 332 51 302 l 647 332 q 656 304 656 319 "},"N":{"x_min":37,"x_max":523,"ha":561,"o":"m 523 0 q 454 -24 492 -24 q 367 0 419 -24 l 366 0 l 192 600 l 192 0 q 122 -24 162 -24 q 37 0 85 -24 l 37 862 q 114 884 71 884 q 192 862 158 884 l 192 860 l 367 265 l 367 862 q 450 879 407 879 q 523 862 492 879 l 523 0 "},"2":{"x_min":37,"x_max":514.4375,"ha":552,"o":"m 514 30 q 502 0 514 12 l 39 0 l 39 420 q 64 461 39 448 q 137 483 76 467 l 347 536 l 347 792 q 271 811 305 811 q 193 792 238 811 l 193 741 q 113 720 157 720 q 37 741 69 720 l 37 784 q 192 862 37 862 l 350 862 q 502 784 502 862 l 502 502 q 475 474 502 481 l 398 455 l 193 402 l 193 67 l 502 67 q 514 30 514 50 "},"М":{"x_min":37,"x_max":560,"ha":598,"o":"m 434 -182 l 205 -182 q 37 -92 37 -182 l 37 -59 q 72 -34 37 -45 q 120 -26 102 -26 q 176 -34 143 -26 q 219 -60 219 -46 l 219 -90 q 301 -103 262 -103 q 378 -90 341 -103 l 378 471 l 297 471 q 274 517 274 471 q 297 566 274 566 l 342 566 l 342 782 q 285 795 298 795 q 240 784 268 795 l 240 9 q 194 -16 240 -6 q 137 -24 161 -24 q 91 -16 116 -24 q 58 9 58 -7 l 58 785 q 226 876 58 876 l 387 876 q 524 797 524 876 l 524 576 q 482 524 524 556 q 559 472 553 502 l 560 468 l 560 -104 q 434 -182 560 -182 m 435 -155 q 533 -104 533 -155 l 533 466 q 442 507 523 487 q 429 520 429 510 q 441 533 429 529 q 496 580 471 542 l 496 797 q 387 849 496 849 l 226 849 q 85 785 85 849 l 85 15 q 137 3 104 3 q 213 17 173 3 l 213 792 q 243 814 213 805 q 285 822 269 822 q 333 815 306 822 q 369 792 369 806 l 369 552 q 355 539 369 539 l 305 539 q 301 517 301 528 q 305 498 301 506 l 391 498 q 405 484 405 498 l 405 -100 q 301 -130 405 -130 q 192 -100 192 -130 l 192 -69 q 120 -52 147 -52 q 64 -67 94 -52 l 64 -92 q 205 -155 64 -155 l 435 -155 "},"ü":{"x_min":51,"x_max":509,"ha":560,"o":"m 399 752 q 370 701 399 701 l 320 701 q 293 752 293 701 l 293 761 q 320 812 293 812 l 370 812 q 399 761 399 812 l 399 752 m 246 752 q 218 701 246 701 l 167 701 q 140 752 140 701 l 140 761 q 167 812 140 812 l 218 812 q 246 761 246 812 l 246 752 m 509 -1 q 431 -18 478 -18 q 354 -5 391 -18 l 354 41 q 261 0 279 0 l 155 0 q 51 64 51 0 l 51 596 q 115 623 51 623 q 165 617 139 623 q 203 594 203 609 l 203 67 q 251 62 231 62 q 354 109 310 62 l 354 598 q 430 615 387 615 q 509 598 474 615 l 509 -1 "},"˜":{"x_min":51,"x_max":483,"ha":534,"o":"m 483 807 q 425 789 452 789 q 380 807 399 789 l 380 868 q 347 885 374 870 q 332 877 344 885 q 316 868 319 869 l 318 860 l 316 860 l 316 838 q 198 776 316 776 l 173 776 q 51 844 51 776 l 51 912 q 101 925 76 925 q 151 912 122 925 l 151 845 q 166 836 154 844 q 181 828 177 828 q 214 845 195 835 l 214 860 l 214 860 l 214 870 q 261 925 214 907 q 340 938 296 938 l 365 938 q 483 874 483 938 l 483 807 "},"Ó":{"x_min":51,"x_max":516,"ha":567,"o":"m 372 1066 q 370 1061 371 1063 l 303 937 q 261 917 292 918 l 202 914 q 180 929 180 914 q 181 934 180 932 l 249 1058 q 290 1080 260 1079 l 350 1081 q 372 1066 372 1081 m 516 77 q 361 0 516 0 l 202 0 q 51 77 51 0 l 51 784 q 202 862 51 862 l 361 862 q 516 784 516 862 l 516 77 m 360 69 l 360 792 q 280 811 312 811 q 206 792 245 811 l 206 69 q 282 52 247 52 q 360 69 314 52 "},"ˇ":{"x_min":24,"x_max":816,"ha":840,"o":"m 683 75 q 570 -14 600 4 q 555 -13 562 -19 q 418 108 521 12 q 264 -14 304 10 q 249 -13 256 -19 q 120 99 201 24 q 24 198 24 187 l 24 594 q 112 623 24 623 q 203 594 203 623 l 203 248 q 262 179 224 200 q 329 249 298 204 l 329 594 q 371 619 329 609 q 425 626 402 626 q 505 605 483 626 q 511 594 511 600 l 511 243 q 568 179 532 199 q 634 249 604 204 l 634 594 q 676 619 634 610 q 731 626 709 626 q 810 605 788 626 q 816 594 816 600 l 816 200 q 683 75 816 186 m 666 95 q 789 204 753 168 l 789 586 q 731 599 763 599 q 661 586 696 599 l 661 245 q 625 193 661 234 q 568 150 587 150 q 564 151 565 150 q 514 188 540 162 q 484 240 484 219 l 484 586 q 425 599 458 599 q 356 586 390 599 l 356 245 q 317 190 356 230 q 262 150 278 150 q 258 151 260 150 q 177 240 204 177 l 176 245 l 176 585 q 112 596 146 596 q 51 585 78 596 l 51 203 q 258 13 201 60 q 409 136 298 40 q 427 137 418 145 q 564 13 531 40 q 666 95 592 33 "},"Ў":{"x_min":37,"x_max":550.375,"ha":588,"o":"m 212 997 q 211 1003 211 1000 l 211 1013 q 262 1079 211 1057 q 352 1095 299 1095 l 377 1095 q 509 1018 509 1095 l 509 950 q 479 927 509 937 q 438 919 454 919 q 402 927 421 919 q 379 950 379 936 l 379 1002 q 359 1013 366 1007 q 343 1003 352 1008 q 342 996 344 1000 l 342 982 q 209 905 342 905 l 185 905 q 50 986 50 905 l 50 1054 q 76 1075 50 1067 q 113 1081 94 1081 q 149 1074 129 1081 q 176 1054 176 1066 l 176 996 q 193 986 187 992 q 212 997 200 992 m 238 1010 q 239 1003 239 1006 l 239 988 q 227 974 239 981 q 209 965 218 969 q 193 957 200 957 q 175 965 186 957 q 158 975 160 975 q 148 1007 147 980 q 150 1045 148 1023 q 113 1054 129 1054 q 77 1046 95 1054 l 77 986 q 185 932 77 932 l 209 932 q 315 982 315 932 l 315 1003 q 315 1008 315 1006 q 342 1036 315 1016 q 360 1042 350 1042 q 380 1033 366 1042 q 397 1024 393 1025 q 406 1011 406 1021 l 406 956 q 437 946 420 946 q 481 958 458 946 l 481 1018 q 376 1068 481 1068 l 351 1068 q 238 1013 238 1068 l 238 1010 m 468 -37 q 375 -11 430 -37 l 393 -5 q 220 502 369 -4 l 219 0 q 184 -27 219 -15 q 136 -37 155 -37 q 80 -27 114 -37 q 37 0 37 -15 l 37 861 q 77 888 37 878 q 128 897 107 897 q 178 890 152 897 q 219 864 214 880 l 367 359 l 367 861 q 409 885 367 877 q 464 892 439 892 q 513 885 487 892 q 550 861 550 877 l 550 0 q 515 -27 550 -16 q 468 -37 486 -37 m 193 852 q 128 870 165 870 q 64 854 92 870 l 64 8 q 136 -10 104 -10 q 192 6 167 -10 l 192 596 q 206 612 192 612 q 219 600 216 612 q 371 8 378 50 q 381 12 374 12 q 422 1 392 12 q 468 -10 452 -10 q 523 6 498 -10 l 523 853 q 464 865 498 865 q 395 852 428 865 l 394 264 q 381 249 394 249 q 367 261 371 249 l 193 852 "},"Ÿ":{"x_min":51,"x_max":517,"ha":568,"o":"m 415 995 q 387 944 415 944 l 336 944 q 309 995 309 944 l 309 1004 q 336 1055 309 1055 l 387 1055 q 415 1004 415 1055 l 415 995 m 262 995 q 234 944 262 944 l 183 944 q 156 995 156 944 l 156 1004 q 183 1055 156 1055 l 234 1055 q 262 1004 262 1055 l 262 995 m 517 504 q 362 427 517 428 l 362 0 q 285 -18 325 -18 q 206 0 242 -18 l 206 427 q 51 504 51 427 l 51 862 q 135 877 94 877 q 206 862 175 877 l 206 505 q 283 483 248 483 q 362 505 317 483 l 362 862 q 433 875 391 875 q 517 862 475 875 l 517 504 "},"ų":{"x_min":23,"x_max":510,"ha":534,"o":"m 393 -14 l 139 -14 q 23 45 23 -14 l 23 532 q 149 609 23 609 l 375 609 q 510 532 510 609 l 510 345 q 500 332 510 335 l 202 235 l 202 77 q 263 70 236 70 q 328 78 289 70 l 328 134 q 366 158 328 149 q 417 165 395 165 q 470 158 439 165 q 510 134 510 149 l 510 49 q 393 -14 510 -14 m 393 13 q 483 49 483 13 l 483 125 q 417 138 452 138 q 355 125 382 138 l 355 67 q 263 43 355 43 q 175 67 175 43 l 175 246 q 184 259 175 255 l 483 356 l 483 532 q 375 582 483 582 l 149 582 q 50 532 50 582 l 50 44 q 139 13 50 13 l 393 13 m 328 516 q 268 524 295 524 q 202 515 242 524 l 202 352 l 328 395 l 328 516 m 355 526 l 355 385 q 345 372 355 376 q 188 320 191 320 q 175 333 175 320 l 175 526 q 268 551 175 551 q 355 526 355 551 "},"в":{"x_min":37,"x_max":523.921875,"ha":562,"o":"m 207 760 q 207 766 207 763 l 207 776 q 258 841 207 820 q 348 857 296 857 l 373 857 q 506 780 506 857 l 506 713 q 476 690 506 700 q 434 682 451 682 q 399 690 418 682 q 376 713 376 699 l 376 765 q 356 776 362 771 q 340 767 349 771 q 339 760 340 762 l 339 745 q 206 669 339 669 l 181 669 q 46 750 46 669 l 46 817 q 72 837 46 830 q 109 844 94 844 q 146 837 125 844 q 173 817 173 829 l 173 760 q 188 750 182 754 q 207 760 195 755 m 234 772 q 234 766 234 769 l 234 751 q 205 728 234 743 q 189 720 196 720 q 170 729 182 720 q 154 738 157 737 q 144 770 143 743 q 146 808 144 771 q 109 817 125 817 q 73 808 91 817 l 73 750 q 181 696 73 696 l 206 696 q 312 745 312 696 l 312 766 q 312 771 312 769 q 339 797 311 784 q 356 805 347 805 q 375 797 361 805 q 393 787 389 788 q 403 775 403 784 l 403 719 q 434 709 416 709 q 477 721 454 709 l 477 780 q 372 830 477 830 l 348 830 q 234 776 234 830 l 234 772 m 409 -14 l 155 -14 q 37 75 37 -14 l 37 528 q 171 609 37 609 l 391 609 q 523 532 523 609 l 523 76 q 487 7 523 32 q 409 -14 455 -14 m 471 29 q 496 76 496 45 l 496 532 q 391 582 496 582 l 171 582 q 64 528 64 582 l 64 74 q 155 13 64 13 l 409 13 q 471 29 445 13 m 341 516 q 277 529 303 529 q 216 516 250 529 l 216 75 q 278 65 249 65 q 341 75 305 65 l 341 516 m 368 526 l 368 67 q 329 44 368 52 q 278 38 302 38 q 188 67 188 38 l 188 526 q 227 549 188 540 q 277 556 256 556 q 328 549 298 556 q 368 526 368 540 "},"Ŭ":{"x_min":23,"x_max":452.953125,"ha":477,"o":"m 404 617 q 356 625 387 617 q 314 644 323 634 l 236 736 q 203 682 228 724 q 160 640 183 651 q 84 619 116 619 q 48 628 68 619 q 23 652 23 638 q 25 661 23 657 l 159 836 q 233 863 192 863 q 309 836 276 863 l 311 834 l 450 661 q 452 651 452 658 q 404 617 449 617 m 404 644 q 423 649 419 644 l 291 815 q 233 836 266 836 q 177 815 202 836 l 55 654 q 85 646 67 646 q 146 663 110 646 l 204 743 q 235 770 223 770 q 267 743 246 770 l 332 663 q 404 644 378 644 "},"С":{"x_min":37,"x_max":522,"ha":559,"o":"m 370 687 l 320 687 q 279 751 279 687 l 279 760 q 320 825 279 825 l 370 825 q 412 760 412 825 l 412 751 q 370 687 412 687 m 370 714 q 385 751 385 714 l 385 760 q 370 798 385 798 l 320 798 q 306 760 306 798 l 306 751 q 320 714 306 714 l 370 714 m 217 687 l 167 687 q 126 751 126 687 l 126 760 q 167 825 126 825 l 217 825 q 259 760 259 825 l 259 751 q 217 687 259 687 m 217 714 q 232 751 232 714 l 232 760 q 217 798 232 798 l 167 798 q 153 760 153 798 l 153 751 q 167 714 153 714 l 217 714 m 342 577 l 342 594 q 430 623 342 623 q 522 594 522 623 l 522 0 q 430 -26 522 -26 q 342 0 342 -26 l 342 18 q 262 -14 280 -14 l 155 -14 q 37 64 37 -14 l 37 538 q 171 609 37 609 l 244 609 q 342 577 267 609 m 430 1 q 494 10 464 1 l 494 585 q 430 596 464 596 q 369 585 396 596 l 369 556 q 344 546 369 536 q 244 582 262 582 l 171 582 q 64 538 64 582 l 64 63 q 155 13 64 13 l 261 13 q 310 33 272 13 q 358 54 347 54 q 369 41 369 54 l 369 9 q 430 1 397 1 m 342 480 q 230 514 326 514 q 216 513 223 514 l 216 77 q 252 75 236 75 q 342 114 303 75 l 342 480 m 369 483 l 369 109 q 364 99 367 102 q 252 48 317 48 q 188 67 188 48 l 188 526 q 231 541 188 541 q 368 488 348 541 l 369 483 "},"Ω":{"x_min":37,"x_max":530,"ha":568,"o":"m 386 930 l 335 930 q 295 994 295 930 l 295 1003 q 335 1068 295 1068 l 386 1068 q 428 1003 428 1068 l 428 994 q 386 930 428 930 m 386 957 q 401 994 401 957 l 401 1003 q 386 1041 401 1041 l 335 1041 q 322 1003 322 1041 l 322 994 q 335 957 322 957 l 386 957 m 233 930 l 182 930 q 142 994 142 930 l 142 1003 q 182 1068 142 1068 l 233 1068 q 275 1003 275 1068 l 275 994 q 233 930 275 930 m 233 957 q 248 994 248 957 l 248 1003 q 233 1041 248 1041 l 182 1041 q 169 1003 169 1041 l 169 994 q 182 957 169 957 l 233 957 m 374 414 l 374 0 q 335 -24 374 -14 q 284 -31 307 -31 q 231 -24 262 -31 q 192 0 192 -15 l 192 414 q 37 504 37 417 l 37 861 q 135 890 37 890 q 219 861 219 890 l 219 513 q 282 497 254 497 q 347 513 310 497 l 347 861 q 432 888 347 888 q 530 861 530 888 l 530 504 q 374 414 530 418 m 361 441 q 502 504 502 442 l 502 851 q 431 861 467 861 q 374 852 399 861 l 374 505 q 334 478 374 490 q 282 470 304 470 q 231 478 261 470 q 192 505 192 490 l 192 853 q 135 863 166 863 q 64 851 100 863 l 64 504 q 205 440 64 440 q 219 427 219 440 l 219 8 q 284 -4 249 -4 q 347 8 316 -4 l 347 427 q 361 441 347 441 "},"ß":{"x_min":51,"x_max":547,"ha":598,"o":"m 547 -104 q 435 -168 547 -168 l 206 -168 q 51 -91 51 -168 l 51 -59 q 120 -39 88 -39 q 206 -59 153 -39 l 206 -99 q 301 -116 257 -116 q 392 -99 349 -116 l 392 485 l 297 485 q 287 517 287 498 q 297 552 287 535 l 356 552 l 356 792 q 285 808 302 808 q 227 792 263 808 l 227 9 q 138 -10 180 -10 q 72 9 96 -10 l 72 784 q 227 862 72 862 l 388 862 q 511 796 511 862 l 511 575 q 445 520 481 531 q 547 468 538 497 l 547 -104 "},"s":{"x_min":38,"x_max":479,"ha":517,"o":"m 479 58 q 376 0 479 0 l 136 0 q 38 41 38 0 l 38 125 q 115 144 72 144 q 190 125 157 144 l 190 66 q 264 52 235 52 q 325 66 295 52 l 325 233 l 124 307 q 60 328 101 315 q 38 363 38 339 l 38 552 q 130 595 38 595 l 385 595 q 479 555 479 595 l 479 463 q 409 446 448 446 q 325 463 368 446 l 325 526 q 257 542 286 542 q 190 526 229 542 l 190 389 l 371 321 q 451 296 379 318 q 479 260 479 287 l 479 58 "},"Ű":{"x_min":23,"x_max":508,"ha":532,"o":"m 202 17 l 202 0 q 107 -24 202 -24 q 23 0 23 -24 l 23 863 q 61 888 23 879 q 113 895 90 895 q 163 888 134 895 q 202 863 202 879 l 202 582 q 282 609 238 609 l 388 609 q 508 530 508 609 l 508 56 q 372 -14 508 -14 l 299 -14 q 202 17 277 -14 m 372 13 q 481 56 481 13 l 481 531 q 388 582 481 582 l 282 582 q 198 543 235 582 q 183 539 190 535 q 175 553 175 541 l 175 855 q 113 868 147 868 q 50 855 77 868 l 50 10 q 107 3 75 3 q 175 11 142 3 l 175 38 q 200 48 175 59 q 299 13 281 13 l 372 13 m 328 517 q 291 520 307 520 q 202 481 241 520 l 202 114 q 313 81 217 81 q 328 81 321 81 l 328 517 m 355 528 l 355 69 q 312 54 355 54 q 176 106 191 54 l 175 111 l 175 486 q 179 495 176 492 q 291 547 226 547 q 355 528 355 547 "},"?":{"x_min":37,"x_max":501,"ha":538,"o":"m 501 502 q 398 450 501 450 l 387 450 q 378 450 384 450 q 277 412 323 450 l 277 193 q 203 181 243 181 q 127 193 162 181 l 127 409 q 153 488 127 452 q 250 536 187 534 q 270 535 260 535 q 347 562 332 535 l 347 792 q 267 808 304 808 q 191 792 234 808 l 191 741 q 113 726 155 726 q 37 741 69 726 l 37 784 q 93 852 37 834 q 191 862 123 862 l 351 862 q 501 784 501 862 l 501 502 m 288 50 q 243 -2 288 -2 l 160 -2 q 116 50 116 -2 l 116 58 q 160 111 116 111 l 243 111 q 288 58 288 111 l 288 50 "},"c":{"x_min":37,"x_max":497,"ha":534,"o":"m 497 67 q 364 0 497 0 l 167 0 q 37 64 37 0 l 37 531 q 161 595 37 595 l 381 595 q 497 539 497 595 l 497 454 q 415 438 446 438 q 342 455 379 438 l 342 527 q 263 541 295 541 q 189 527 231 541 l 189 66 q 265 56 234 56 q 342 66 297 56 l 342 134 q 415 149 375 149 q 497 134 458 149 l 497 67 "},"Ņ":{"x_min":24,"x_max":453,"ha":455,"o":"m 422 99 q 411 99 416 96 l 31 265 q 24 278 24 269 q 31 292 24 288 l 410 501 q 418 503 413 503 q 439 487 430 503 q 448 458 448 471 q 367 347 448 387 l 245 286 q 363 244 304 267 q 453 145 453 208 q 422 99 453 113 m 66 279 l 416 127 q 426 145 426 133 q 409 183 426 163 l 211 273 q 198 284 198 278 q 209 297 198 290 l 407 415 q 421 457 421 440 q 416 472 421 468 l 66 279 "},"¶":{"x_min":51,"x_max":573,"ha":624,"o":"m 573 -107 q 520 -118 549 -118 q 462 -107 490 -118 l 462 756 l 421 756 l 421 -105 q 365 -114 396 -114 q 308 -105 334 -114 l 308 446 l 165 446 q 96 457 131 446 q 51 501 51 472 l 51 803 q 169 862 51 862 l 369 862 q 374 862 372 862 l 505 862 q 573 793 573 862 l 573 -107 "},"Μ":{"x_min":24,"x_max":400.390625,"ha":425,"o":"m 397 824 q 366 794 393 806 q 324 781 345 788 q 315 748 315 763 l 335 748 q 385 692 385 745 q 313 608 385 608 l 262 608 q 214 662 214 608 q 220 707 214 669 q 237 796 224 729 q 273 848 237 839 q 369 876 348 876 q 400 845 400 876 q 397 824 400 836 m 373 848 l 281 822 q 264 794 264 817 l 263 792 l 247 703 q 240 662 240 666 q 262 635 240 635 l 313 635 q 358 693 358 635 q 335 721 358 721 l 303 721 q 288 748 288 721 q 310 806 288 800 q 371 830 343 815 q 373 848 374 845 m 208 824 q 177 794 204 806 q 134 781 155 788 q 133 780 133 780 q 125 748 125 762 l 145 748 q 195 692 195 745 q 123 608 195 608 l 73 608 q 24 662 24 608 q 31 707 24 669 q 47 796 31 710 q 84 848 49 837 q 179 876 167 876 q 211 845 211 876 q 208 824 211 836 m 184 848 l 91 822 q 74 794 74 817 l 75 792 l 51 662 q 73 635 51 635 l 123 635 q 168 693 168 635 q 145 721 168 721 l 114 721 q 98 748 98 721 q 120 806 98 800 q 182 830 153 815 q 184 848 185 846 "},"Ή":{"x_min":24,"x_max":211,"ha":235,"o":"m 203 25 l 186 -59 q 150 -112 190 -98 q 53 -140 66 -140 q 24 -108 24 -140 q 57 -58 24 -72 q 99 -46 78 -52 q 109 -12 109 -27 l 89 -12 q 40 42 40 -12 q 110 128 40 128 l 160 128 q 211 73 211 128 q 209 59 211 71 l 203 25 m 50 -111 l 142 -86 q 159 -60 162 -80 l 159 -55 l 182 65 q 184 73 184 69 q 161 101 184 101 l 110 101 q 67 42 67 101 q 89 15 67 15 l 121 15 q 136 -12 136 15 q 113 -70 136 -64 q 53 -93 80 -78 q 50 -111 49 -109 "},"Ī":{"x_min":24,"x_max":223,"ha":247,"o":"m 192 193 q 120 170 191 170 q 55 193 55 170 l 34 844 q 122 871 33 871 q 213 844 213 871 l 192 193 m 165 204 l 186 834 q 122 843 156 843 q 61 834 88 843 l 82 203 q 120 197 105 197 q 165 204 136 197 m 164 -20 l 82 -20 q 24 46 24 -20 l 24 54 q 82 121 24 121 l 164 121 q 223 54 223 121 l 223 46 q 164 -20 223 -20 m 164 7 q 196 46 196 7 l 196 54 q 164 94 196 94 l 82 94 q 51 54 51 94 l 51 46 q 82 7 51 7 l 164 7 "},"•":{"x_min":41,"x_max":282,"ha":323,"o":"m 282 304 q 218 212 282 212 l 103 212 q 41 304 41 212 l 41 320 q 103 414 41 414 l 218 414 q 282 320 282 414 l 282 304 "},"(":{"x_min":37,"x_max":291,"ha":312,"o":"m 291 -220 q 274 -267 291 -246 l 170 -267 q 37 -184 37 -267 l 37 853 q 98 920 37 898 q 196 936 141 936 l 273 936 q 287 891 287 916 q 273 846 287 865 l 192 846 l 192 -177 l 273 -177 q 291 -220 291 -195 "},"γ":{"x_min":37,"x_max":687,"ha":725,"o":"m 518 65 l 201 65 q 37 156 37 65 l 37 705 q 201 796 37 796 l 518 796 q 687 705 687 796 l 687 156 q 518 65 687 65 m 518 92 q 660 156 660 92 l 660 705 q 518 769 660 769 l 201 769 q 64 705 64 769 l 64 156 q 201 92 64 92 l 518 92 m 531 703 q 359 718 482 718 q 193 703 235 718 l 193 156 q 360 144 237 144 q 531 157 483 144 l 531 703 m 558 713 l 558 147 q 549 134 558 138 q 360 117 501 117 q 174 135 219 117 q 166 147 166 138 l 166 713 q 174 725 166 721 q 359 745 215 745 q 549 726 500 745 q 558 713 558 722 m 400 202 l 321 202 q 232 254 232 202 l 232 607 q 321 659 232 659 l 400 659 q 492 607 492 659 l 492 585 q 437 564 492 564 q 386 585 386 564 l 386 602 q 364 604 375 604 q 337 601 353 604 l 337 260 q 363 256 358 256 q 386 260 369 256 l 386 276 q 438 299 386 299 q 492 276 492 299 l 492 253 q 400 202 492 202 m 400 229 q 464 254 464 229 l 464 267 q 438 272 452 272 q 414 267 425 272 l 414 249 q 363 229 414 229 q 309 249 309 229 l 309 612 q 364 632 309 632 q 414 612 414 632 l 414 595 q 437 592 424 592 q 464 596 451 592 l 464 607 q 400 632 464 632 l 320 632 q 259 607 259 632 l 259 254 q 320 229 259 229 l 400 229 "},"α":{"x_min":37,"x_max":422,"ha":460,"o":"m 346 180 q 395 163 391 165 q 422 122 422 149 l 422 -52 q 325 -117 422 -117 l 130 -117 q 37 -66 37 -117 l 37 5 q 70 29 37 19 q 113 36 93 36 q 155 29 132 36 q 187 5 187 19 l 187 -35 q 233 -44 215 -44 q 270 -36 251 -44 l 270 90 q 188 115 213 107 q 64 168 125 138 l 62 169 q 37 211 37 182 l 37 374 q 125 425 37 425 l 169 424 q 64 465 135 437 q 37 507 37 476 l 37 671 q 125 722 37 722 l 331 722 q 422 674 422 722 l 422 593 q 392 572 422 580 q 351 566 369 566 q 305 571 328 566 q 270 593 270 579 l 270 638 q 228 648 246 648 q 187 638 210 648 l 187 539 q 389 462 283 501 q 422 418 422 450 l 422 243 q 346 180 422 187 m 325 -90 q 395 -52 395 -90 l 395 122 q 363 148 395 138 q 316 162 343 154 l 270 180 q 260 193 260 184 q 275 206 260 206 l 325 206 q 395 243 395 206 l 395 417 q 362 443 395 433 q 315 457 352 447 l 168 516 q 160 529 160 519 l 160 647 q 189 668 160 660 q 228 675 209 675 q 267 668 245 675 q 297 647 297 660 l 297 603 q 351 593 324 593 q 395 601 375 593 l 395 674 q 331 695 395 695 l 125 695 q 64 671 64 695 l 64 508 q 74 490 64 495 q 246 424 98 481 q 257 410 257 420 q 241 398 257 398 l 124 398 q 64 374 64 398 l 64 211 q 74 194 64 199 q 297 99 297 120 l 297 -45 q 270 -65 297 -58 q 233 -71 250 -71 q 160 -45 160 -71 l 160 -2 q 113 8 139 8 q 64 -2 86 8 l 64 -66 q 130 -90 64 -90 l 325 -90 m 270 343 q 228 352 246 352 q 187 343 210 352 l 187 260 q 233 252 215 252 q 270 259 251 252 l 270 343 m 297 351 l 297 250 q 270 230 297 238 q 233 225 251 225 q 160 250 160 225 l 160 351 q 189 373 160 364 q 228 379 211 379 q 267 373 244 379 q 297 351 297 364 "},"м":{"x_min":37,"x_max":523,"ha":560,"o":"m 370 687 l 320 687 q 279 751 279 687 l 279 760 q 320 825 279 825 l 370 825 q 412 760 412 825 l 412 751 q 370 687 412 687 m 370 714 q 385 751 385 714 l 385 760 q 370 798 385 798 l 320 798 q 306 760 306 798 l 306 751 q 320 714 306 714 l 370 714 m 217 687 l 167 687 q 126 751 126 687 l 126 760 q 167 825 126 825 l 217 825 q 259 760 259 825 l 259 751 q 217 687 259 687 m 217 714 q 232 751 232 714 l 232 760 q 217 798 232 798 l 167 798 q 153 760 153 798 l 153 751 q 167 714 153 714 l 217 714 m 363 -288 l 73 -288 q 46 -235 46 -288 q 52 -198 46 -218 q 73 -171 60 -171 l 109 -171 q 148 -171 122 -171 q 187 -171 174 -171 q 342 -116 342 -171 l 342 18 q 262 -14 281 -14 l 155 -14 q 37 64 37 -14 l 37 595 q 115 636 37 636 q 216 594 216 636 l 216 77 q 252 75 236 75 q 342 114 303 75 l 342 598 q 380 622 342 613 q 431 629 410 629 q 483 622 455 629 q 523 598 523 614 l 523 -159 q 363 -288 523 -288 m 363 -261 q 495 -159 495 -261 l 495 589 q 431 602 467 602 q 369 589 396 602 l 369 109 q 364 99 367 102 q 252 48 317 48 q 188 67 188 48 l 188 593 q 114 609 177 609 q 64 596 64 609 l 64 63 q 155 13 64 13 l 262 13 q 310 33 272 13 q 358 54 348 54 q 369 41 369 54 l 369 -116 q 187 -198 369 -198 q 148 -198 174 -198 q 109 -197 122 -197 l 81 -197 q 72 -234 72 -217 q 79 -261 72 -250 l 363 -261 "},"­":{"x_min":51,"x_max":440.953125,"ha":492,"o":"m 440 304 q 431 267 440 293 l 66 267 q 51 293 51 277 q 66 332 51 302 l 431 332 q 440 304 440 319 "},"з":{"x_min":37,"x_max":523,"ha":560,"o":"m 386 816 l 386 815 l 317 691 q 266 663 304 667 q 205 662 224 663 q 169 690 169 661 l 169 693 q 172 700 171 697 l 173 701 l 240 826 q 292 854 253 849 q 353 855 315 854 q 388 827 388 855 q 386 816 388 821 m 198 689 q 205 689 201 689 l 247 689 q 294 704 285 690 l 361 827 q 353 828 359 828 q 311 828 324 829 q 265 812 272 827 l 198 689 m 432 -31 q 341 -4 340 -31 l 341 18 q 262 -14 281 -14 l 155 -14 q 37 64 37 -14 l 37 595 q 114 636 37 636 q 216 594 216 636 l 216 77 q 251 75 236 75 q 341 114 302 75 l 341 598 q 379 622 341 613 q 430 629 409 629 q 483 622 455 629 q 523 598 523 614 l 523 -1 q 485 -24 523 -16 q 432 -31 458 -31 m 432 -4 q 496 7 470 -4 l 496 589 q 430 602 467 602 q 368 589 396 602 l 368 109 q 363 99 366 102 q 251 48 316 48 q 189 67 189 48 l 189 593 q 114 609 177 609 q 64 596 64 609 l 64 63 q 155 13 64 13 l 261 13 q 309 33 271 13 q 357 54 347 54 q 368 40 368 54 l 368 4 q 432 -4 399 -4 "},":":{"x_min":37,"x_max":211.296875,"ha":249,"o":"m 209 524 q 164 472 209 472 l 81 472 q 37 524 37 472 l 37 532 q 81 585 37 585 l 164 585 q 209 532 209 585 l 209 524 m 211 46 q 165 -6 211 -6 l 83 -6 q 39 46 39 -6 l 39 54 q 83 107 39 107 l 165 107 q 211 54 211 107 l 211 46 "},"Û":{"x_min":51,"x_max":516,"ha":567,"o":"m 450 931 q 415 909 447 909 q 335 931 385 909 l 285 990 l 235 927 q 165 908 194 908 q 116 927 135 908 l 218 1058 q 284 1082 247 1082 q 351 1058 322 1082 l 450 931 m 516 76 q 361 0 516 0 l 202 0 q 51 76 51 0 l 51 862 q 122 877 81 877 q 206 862 163 877 l 206 71 q 278 60 243 60 q 360 71 311 60 l 360 862 q 441 879 400 879 q 516 862 481 879 l 516 76 "},"V":{"x_min":37,"x_max":497,"ha":535,"o":"m 497 203 q 369 89 460 166 q 257 1 282 16 q 37 202 200 45 l 37 858 q 111 873 70 873 q 189 858 153 873 l 189 250 q 263 168 214 191 q 342 250 306 196 l 342 858 q 424 875 383 875 q 497 858 465 875 l 497 203 "},"ś":{"x_min":24,"x_max":516,"ha":540,"o":"m 347 -14 l 188 -14 q 24 76 24 -14 l 24 785 q 188 876 24 876 l 347 876 q 516 785 516 876 l 516 76 q 347 -14 516 -14 m 347 13 q 489 76 489 13 l 489 785 q 347 849 489 849 l 188 849 q 51 785 51 849 l 51 76 q 188 13 51 13 l 347 13 m 334 783 q 267 798 293 798 q 206 783 238 798 l 206 77 q 268 65 240 65 q 334 78 295 65 l 334 783 m 361 792 l 361 69 q 320 45 361 54 q 268 38 289 38 q 218 44 246 38 q 179 69 179 54 l 179 792 q 217 817 179 807 q 267 825 246 825 q 320 816 287 825 q 361 792 361 806 "},"Ŗ":{"x_min":24,"x_max":518,"ha":542,"o":"m 344 804 q 336 861 336 810 q 375 887 336 877 q 424 895 404 895 q 476 887 444 895 q 518 861 518 878 l 518 76 q 353 -14 518 -14 l 194 -14 q 24 77 24 -14 l 24 121 q 65 147 24 137 q 117 154 95 154 q 167 147 140 154 q 208 121 208 137 l 208 78 q 279 64 250 64 q 336 76 307 64 l 336 791 q 344 804 336 801 m 349 779 l 363 792 l 363 68 q 326 43 363 53 q 279 37 300 37 q 223 43 254 37 q 181 68 181 53 l 181 113 q 117 127 151 127 q 51 113 82 127 l 51 77 q 194 13 51 13 l 353 13 q 491 76 491 13 l 491 853 q 424 868 459 868 q 363 853 390 868 q 349 779 363 823 "},"У":{"x_min":37,"x_max":829,"ha":867,"o":"m 342 577 l 342 594 q 430 623 342 623 q 510 609 473 623 l 694 609 q 829 532 829 609 l 829 345 q 819 332 829 335 l 522 235 l 522 77 q 582 70 555 70 q 647 78 608 70 l 647 134 q 685 158 647 149 q 736 165 714 165 q 789 158 758 165 q 829 134 829 149 l 829 49 q 713 -14 829 -14 l 510 -14 q 430 -26 473 -26 q 342 0 342 -26 l 342 18 q 262 -14 280 -14 l 155 -14 q 37 64 37 -14 l 37 538 q 171 609 37 609 l 244 609 q 342 577 267 609 m 713 13 q 802 49 802 13 l 802 125 q 736 138 772 138 q 674 125 701 138 l 674 67 q 582 43 674 43 q 495 67 495 43 l 495 246 q 504 258 495 255 l 802 356 l 802 532 q 694 582 802 581 l 502 582 q 430 596 469 596 q 369 585 396 596 l 369 556 q 344 546 369 536 q 244 582 262 582 l 171 582 q 64 538 64 582 l 64 63 q 155 13 64 13 l 261 13 q 310 33 272 13 q 358 54 347 54 q 369 41 369 54 l 369 9 q 430 1 397 1 q 503 12 470 1 l 508 13 l 713 13 m 647 516 q 587 524 615 524 q 522 516 561 524 l 522 353 l 647 395 l 647 516 m 674 526 l 674 385 q 664 372 674 376 q 507 320 513 320 q 495 333 495 320 l 495 526 q 587 551 495 551 q 674 526 674 551 m 342 480 q 230 514 326 514 q 216 513 223 514 l 216 77 q 252 75 236 75 q 342 114 303 75 l 342 480 m 369 483 l 369 109 q 364 99 367 102 q 252 48 317 48 q 188 67 188 48 l 188 526 q 231 541 188 541 q 368 488 348 541 l 369 483 "},"@":{"x_min":37,"x_max":908,"ha":946,"o":"m 908 201 q 723 121 908 121 q 532 151 611 121 q 523 150 525 151 q 536 149 525 148 q 542 151 540 149 q 532 156 540 153 l 532 224 q 438 183 456 183 l 332 183 q 228 248 228 183 l 228 637 q 348 694 228 694 l 421 694 q 526 657 442 694 q 532 655 528 657 l 532 693 q 607 708 565 708 q 685 693 649 708 l 685 215 q 727 211 708 211 q 775 222 756 211 l 775 740 l 171 740 l 171 74 l 874 74 q 886 43 886 60 q 874 9 886 25 l 184 9 q 90 18 120 9 q 37 84 37 35 l 37 718 q 90 796 37 776 q 193 807 120 807 l 741 807 q 849 796 818 807 q 908 719 908 777 l 908 201 m 532 292 l 532 582 q 408 627 515 627 q 381 625 393 627 l 381 250 q 429 245 408 245 q 532 292 488 245 "},"¾":{"x_min":51,"x_max":888.546875,"ha":939,"o":"m 888 175 q 881 159 888 166 l 833 159 l 833 15 q 792 4 814 4 q 756 15 771 4 l 756 159 l 665 159 q 601 189 601 159 l 601 445 q 640 458 618 458 q 678 445 661 458 l 678 195 l 756 195 l 756 390 q 793 406 772 406 q 833 390 815 406 l 833 195 l 881 195 q 888 175 888 185 m 736 862 l 186 0 q 92 -28 134 -28 q 65 -21 73 -28 l 51 0 l 603 862 q 668 884 651 884 q 736 862 713 884 m 283 463 q 227 432 283 432 l 128 432 q 51 470 51 432 l 51 491 q 88 504 66 504 q 128 491 110 504 l 128 465 q 168 458 154 458 q 206 465 184 458 l 206 674 l 82 674 q 76 690 76 680 q 82 707 76 698 l 206 707 l 206 828 q 163 836 180 836 q 128 828 146 836 l 128 802 q 84 792 105 792 q 51 802 63 792 l 51 824 q 128 863 51 863 l 221 863 q 283 830 283 863 l 283 719 q 245 691 270 698 q 283 666 278 683 l 283 463 "},"Ί":{"x_min":-187,"x_max":603.75,"ha":541,"o":"m 542 726 q 535 724 538 724 q 506 753 533 724 q 455 783 478 783 q 413 765 433 783 l 373 616 l 492 616 q 508 598 504 616 q 507 571 510 584 q 474 523 494 523 l 347 523 l 208 -3 q 167 -131 180 -109 q 52 -191 134 -186 q -21 -194 -2 -194 q -185 -122 -140 -194 q -187 -117 -187 -120 q -160 -71 -187 -99 q -117 -43 -134 -43 q -106 -49 -110 -43 q -39 -102 -75 -102 q 2 -83 -18 -102 l 164 522 l 109 523 q 90 539 96 523 q 88 567 84 554 q 104 596 91 577 q 126 616 118 616 l 188 616 l 207 685 q 248 813 234 789 q 364 873 281 869 q 437 876 419 876 q 601 803 556 876 q 603 797 603 800 q 542 726 603 767 m 538 757 q 574 796 558 773 q 437 849 535 849 q 289 820 319 849 q 233 678 263 796 q 223 628 230 664 q 198 589 215 589 l 133 589 q 114 554 114 563 q 115 550 114 552 l 182 550 q 195 532 200 550 l 28 -94 q 0 -119 24 -108 q -39 -129 -22 -129 q -122 -75 -85 -129 q -157 -114 -142 -92 q -21 -167 -118 -167 q 127 -139 97 -167 q 181 3 149 -118 l 324 540 q 337 550 327 550 l 467 550 q 482 589 483 577 l 356 589 q 341 617 341 589 q 358 703 341 644 q 392 782 376 767 q 455 810 422 810 q 538 757 502 810 "},"i":{"x_min":37,"x_max":209,"ha":246,"o":"m 209 717 q 164 665 209 665 l 81 665 q 37 717 37 665 l 37 726 q 81 778 37 778 l 164 778 q 209 726 209 778 l 209 717 m 199 595 l 196 0 q 125 -13 157 -13 q 47 0 91 -13 l 47 595 q 121 612 94 612 q 199 595 150 612 "},"ŉ":{"x_min":23,"x_max":922,"ha":946,"o":"m 519 676 l 519 693 q 607 722 519 722 q 699 693 699 722 l 699 227 q 728 225 714 225 q 762 231 748 225 l 762 727 l 184 727 l 184 87 l 874 87 q 899 43 899 87 q 874 -5 899 -5 l 184 -5 q 23 84 23 -5 l 23 719 q 81 807 23 784 q 193 821 115 821 l 742 821 q 858 808 822 821 q 922 719 922 785 l 922 201 q 723 108 922 108 q 530 138 611 108 l 528 138 q 530 139 529 138 l 534 155 q 528 151 532 151 q 532 142 532 149 q 519 156 519 149 l 519 202 q 439 169 457 169 l 332 169 q 214 248 214 169 l 214 636 q 348 707 214 707 l 421 707 q 519 676 444 707 m 722 135 q 894 201 894 135 l 894 719 q 838 786 894 770 q 741 793 811 793 l 193 793 q 100 785 127 793 q 50 718 50 769 l 50 84 q 184 22 50 22 l 866 22 q 872 43 872 32 q 867 60 872 52 l 170 60 q 156 73 156 60 l 156 740 q 170 754 156 754 l 775 754 q 789 740 789 754 l 789 223 q 727 198 789 198 q 671 216 671 198 l 671 684 q 607 695 642 695 q 546 684 573 695 l 546 655 q 521 645 546 635 q 421 680 440 680 l 348 680 q 241 636 241 680 l 241 247 q 332 196 241 196 l 438 196 q 487 217 449 196 q 535 238 525 238 q 546 223 546 238 l 546 165 q 555 151 555 160 q 530 135 555 135 q 509 150 509 135 q 519 163 509 159 q 537 164 529 168 q 722 135 613 135 m 519 579 q 407 613 503 613 q 393 612 399 613 l 393 261 q 428 258 412 258 q 519 297 479 258 l 519 579 m 546 582 l 546 292 q 542 282 544 286 q 428 231 494 231 q 366 250 366 231 l 366 625 q 407 640 366 640 q 545 587 525 640 l 546 582 "},"υ":{"x_min":38,"x_max":547.65625,"ha":584,"o":"m 326 64 q 316 60 321 60 q 284 97 301 60 q 270 144 270 131 q 294 202 270 173 l 362 299 l 282 399 q 265 458 265 427 q 282 503 265 470 q 316 540 302 540 q 326 535 321 540 l 543 303 q 543 284 552 293 l 326 64 m 315 93 l 514 294 l 315 506 q 292 458 292 473 q 306 414 292 440 l 390 309 q 391 293 396 301 l 316 185 q 297 145 297 164 q 315 93 297 124 m 99 65 q 90 60 94 60 q 58 98 74 60 q 44 144 44 131 q 69 202 44 174 l 137 300 l 56 399 q 38 458 38 427 q 55 503 38 470 q 90 540 75 540 q 99 535 94 540 l 316 303 q 316 284 325 293 l 99 65 m 90 93 l 287 294 l 89 506 q 65 458 65 474 q 80 414 65 440 l 164 310 q 165 293 170 302 l 90 185 q 71 145 71 164 q 90 93 71 124 "},"m":{"x_min":37,"x_max":790,"ha":828,"o":"m 790 -2 q 725 -29 790 -29 q 638 -2 638 -29 l 638 526 q 588 532 609 532 q 495 494 534 532 l 495 -2 q 430 -29 495 -29 q 381 -24 404 -29 q 344 -2 344 -17 l 344 526 q 293 532 314 532 q 191 484 235 532 l 191 -5 q 114 -22 157 -22 q 37 -5 71 -22 l 37 594 q 113 611 66 611 q 191 598 153 611 l 191 552 q 283 593 265 593 l 390 593 q 490 554 471 593 q 578 594 558 594 l 685 594 q 790 528 790 594 l 790 -2 "},"ż":{"x_min":23,"x_max":804,"ha":828,"o":"m 726 -43 q 625 0 625 -43 l 625 515 q 588 519 604 519 q 508 488 542 519 l 508 -2 q 430 -43 508 -43 q 330 -1 330 -43 l 330 515 q 293 519 308 519 q 205 479 243 519 l 205 -4 q 165 -28 205 -20 q 114 -35 138 -35 q 62 -28 89 -35 q 23 -4 23 -20 l 23 594 q 113 625 23 625 q 205 598 205 625 l 205 575 q 283 607 265 607 l 390 607 q 494 573 467 607 q 578 607 557 607 l 685 607 q 804 528 804 607 l 804 -2 q 726 -43 804 -43 m 777 -2 l 777 528 q 686 580 777 580 l 578 580 q 533 560 568 580 q 490 541 499 541 q 478 549 481 541 q 391 580 463 580 l 283 580 q 235 559 273 580 q 188 538 197 538 q 178 552 178 538 l 178 587 q 113 597 146 597 q 50 585 75 597 l 50 4 q 114 -8 79 -8 q 178 4 149 -8 l 178 484 q 181 494 179 491 q 293 546 229 546 q 357 526 357 546 l 357 -1 q 430 -16 367 -16 q 481 -3 481 -16 l 481 494 q 526 532 481 515 q 588 546 562 546 q 652 527 652 546 l 652 -1 q 726 -16 652 -16 q 777 -2 777 -16 "}}}
